<svg width="18" height="20" viewBox="0 0 18 20" fill="none" xmlns="http://www.w3.org/2000/svg">
<path d="M17.25 8.16668H0.75M12.6667 0.833344V4.50001M5.33333 0.833344V4.50001M5.15 19.1667H12.85C14.3901 19.1667 15.1602 19.1667 15.7485 18.8669C16.2659 18.6033 16.6866 18.1826 16.9503 17.6651C17.25 17.0769 17.25 16.3068 17.25 14.7667V7.06668C17.25 5.52653 17.25 4.75646 16.9503 4.1682C16.6866 3.65076 16.2659 3.23006 15.7485 2.96641C15.1602 2.66668 14.3901 2.66668 12.85 2.66668H5.15C3.60986 2.66668 2.83978 2.66668 2.25153 2.96641C1.73408 3.23006 1.31338 3.65076 1.04973 4.1682C0.75 4.75646 0.75 5.52653 0.75 7.06668V14.7667C0.75 16.3068 0.75 17.0769 1.04973 17.6651C1.31338 18.1826 1.73408 18.6033 2.25153 18.8669C2.83978 19.1667 3.60986 19.1667 5.15 19.1667Z" stroke="#667085" stroke-width="1.5" stroke-linecap="round" stroke-linejoin="round"/>
</svg>
