<svg width="17" height="20" viewBox="0 0 17 20" fill="none" xmlns="http://www.w3.org/2000/svg">
<path d="M14.6666 8.75008V5.66675C14.6666 4.26662 14.6666 3.56655 14.3942 3.03177C14.1545 2.56137 13.772 2.17892 13.3016 1.93923C12.7668 1.66675 12.0668 1.66675 10.6666 1.66675H5.33331C3.93318 1.66675 3.23312 1.66675 2.69834 1.93923C2.22793 2.17892 1.84548 2.56137 1.6058 3.03177C1.33331 3.56655 1.33331 4.26662 1.33331 5.66675V14.3334C1.33331 15.7335 1.33331 16.4336 1.6058 16.9684C1.84548 17.4388 2.22793 17.8212 2.69834 18.0609C3.23312 18.3334 3.93318 18.3334 5.33331 18.3334H7.99998M9.66665 9.16675H4.66665M6.33331 12.5001H4.66665M11.3333 5.83341H4.66665M13 17.5001V12.5001M10.5 15.0001H15.5" stroke="white" stroke-width="1.66667" stroke-linecap="round" stroke-linejoin="round"/>
</svg>
