<svg width="16" height="17" viewBox="0 0 16 17" fill="none" xmlns="http://www.w3.org/2000/svg">
<path d="M6.05992 6.43797C6.21665 5.99241 6.52602 5.61671 6.93322 5.37739C7.34042 5.13807 7.81918 5.05059 8.2847 5.13044C8.75022 5.21029 9.17246 5.45232 9.47664 5.81365C9.78081 6.17499 9.94729 6.63232 9.94659 7.10463C9.94659 8.43797 7.94659 9.10463 7.94659 9.10463M7.99992 11.7713H8.00659M14.6666 8.43797C14.6666 12.1199 11.6818 15.1046 7.99992 15.1046C4.31802 15.1046 1.33325 12.1199 1.33325 8.43797C1.33325 4.75607 4.31802 1.7713 7.99992 1.7713C11.6818 1.7713 14.6666 4.75607 14.6666 8.43797Z" stroke="#98A2B3" stroke-width="1.33333" stroke-linecap="round" stroke-linejoin="round"/>
</svg>
