<svg width="20" height="18" viewBox="0 0 20 18" fill="none" xmlns="http://www.w3.org/2000/svg">
<path d="M1.29168 9.00002H4.39181C5.01992 9.00002 5.59411 9.35489 5.87501 9.91669C6.15591 10.4785 6.7301 10.8334 7.35821 10.8334H12.6418C13.2699 10.8334 13.8441 10.4785 14.125 9.91669C14.4059 9.35489 14.9801 9.00002 15.6082 9.00002H18.7083M7.21936 1.66669H12.7807C13.7678 1.66669 14.2614 1.66669 14.6971 1.81699C15.0825 1.9499 15.4334 2.16682 15.7246 2.45204C16.0539 2.77457 16.2747 3.21604 16.7161 4.09895L18.7022 8.07098C18.8754 8.41747 18.962 8.59071 19.0231 8.77227C19.0774 8.93352 19.1165 9.09945 19.1401 9.26793C19.1667 9.45764 19.1667 9.65134 19.1667 10.0387V11.9334C19.1667 13.4735 19.1667 14.2436 18.8669 14.8318C18.6033 15.3493 18.1826 15.77 17.6651 16.0336C17.0769 16.3334 16.3068 16.3334 14.7667 16.3334H5.23334C3.6932 16.3334 2.92313 16.3334 2.33487 16.0336C1.81742 15.77 1.39673 15.3493 1.13308 14.8318C0.833344 14.2436 0.833344 13.4735 0.833344 11.9334V10.0387C0.833344 9.65134 0.833344 9.45764 0.859903 9.26793C0.88349 9.09945 0.922661 8.93352 0.976912 8.77227C1.038 8.59071 1.12462 8.41746 1.29786 8.07098L3.28388 4.09895C3.72534 3.21603 3.94607 2.77457 4.27538 2.45204C4.56659 2.16682 4.91756 1.9499 5.30291 1.81699C5.73866 1.66669 6.23223 1.66669 7.21936 1.66669Z" stroke="#667085" stroke-width="1.5" stroke-linecap="round" stroke-linejoin="round"/>
</svg>
