<svg width="18" height="18" viewBox="0 0 18 18" fill="none" xmlns="http://www.w3.org/2000/svg">
<path d="M13.5833 7.16667V5.33333C13.5833 2.80203 11.5313 0.75 8.99999 0.75C6.46868 0.75 4.41666 2.80203 4.41666 5.33333V7.16667M8.99999 11.2917V13.125M6.06666 17.25H11.9333C13.4735 17.25 14.2435 17.25 14.8318 16.9503C15.3492 16.6866 15.7699 16.2659 16.0336 15.7485C16.3333 15.1602 16.3333 14.3901 16.3333 12.85V11.5667C16.3333 10.0265 16.3333 9.25645 16.0336 8.66819C15.7699 8.15075 15.3492 7.73005 14.8318 7.4664C14.2435 7.16667 13.4735 7.16667 11.9333 7.16667H6.06666C4.52651 7.16667 3.75644 7.16667 3.16818 7.4664C2.65074 7.73005 2.23004 8.15075 1.96639 8.66819C1.66666 9.25645 1.66666 10.0265 1.66666 11.5667V12.85C1.66666 14.3901 1.66666 15.1602 1.96639 15.7485C2.23004 16.2659 2.65074 16.6866 3.16818 16.9503C3.75644 17.25 4.52651 17.25 6.06666 17.25Z" stroke="#667085" stroke-width="1.5" stroke-linecap="round" stroke-linejoin="round"/>
</svg>
