<svg width="20" height="20" viewBox="0 0 20 20" fill="none" xmlns="http://www.w3.org/2000/svg">
<path d="M15 1.66699L18.3334 5.00033M1.66669 18.3337L2.73035 14.4335C2.79975 14.1791 2.83445 14.0519 2.88771 13.9332C2.93501 13.8279 2.99312 13.7278 3.06112 13.6344C3.1377 13.5293 3.23095 13.4361 3.41744 13.2496L12.0286 4.6384C12.1936 4.47339 12.2761 4.39089 12.3713 4.35997C12.4549 4.33278 12.5451 4.33278 12.6288 4.35997C12.7239 4.39089 12.8064 4.47339 12.9714 4.6384L15.3619 7.02892C15.527 7.19393 15.6095 7.27643 15.6404 7.37157C15.6676 7.45525 15.6676 7.5454 15.6404 7.62908C15.6095 7.72422 15.527 7.80672 15.3619 7.97173L6.75077 16.5829C6.56428 16.7694 6.47103 16.8626 6.36592 16.9392C6.2726 17.0072 6.17246 17.0653 6.06712 17.1126C5.94848 17.1659 5.82125 17.2006 5.5668 17.27L1.66669 18.3337Z" stroke="#475467" stroke-width="1.66667" stroke-linecap="round" stroke-linejoin="round"/>
</svg>
