<svg width="20" height="20" viewBox="0 0 20 20" fill="none" xmlns="http://www.w3.org/2000/svg">
<path d="M6.68192 7.11545C7.31992 8.44427 8.18964 9.68969 9.29109 10.7911C10.3925 11.8926 11.638 12.7623 12.9668 13.4003C13.0811 13.4552 13.1382 13.4826 13.2105 13.5037C13.4675 13.5786 13.7831 13.5248 14.0007 13.369C14.062 13.3251 14.1144 13.2727 14.2192 13.1679C14.5396 12.8475 14.6999 12.6872 14.861 12.5825C15.4687 12.1874 16.252 12.1874 16.8597 12.5825C17.0208 12.6872 17.181 12.8475 17.5015 13.1679L17.6801 13.3466C18.1673 13.8337 18.4109 14.0773 18.5432 14.3389C18.8063 14.8592 18.8063 15.4736 18.5432 15.9938C18.4109 16.2554 18.1673 16.499 17.6801 16.9862L17.5356 17.1307C17.0502 17.6161 16.8074 17.8589 16.4774 18.0443C16.1112 18.25 15.5424 18.3979 15.1223 18.3967C14.7438 18.3955 14.4851 18.3221 13.9677 18.1753C11.1871 17.386 8.56325 15.8969 6.37427 13.708C4.18529 11.519 2.69619 8.89514 1.90697 6.11453C1.76011 5.59712 1.68668 5.33841 1.68555 4.95988C1.6843 4.53984 1.83222 3.97106 2.03794 3.60484C2.22333 3.27481 2.46608 3.03207 2.95156 2.54658L3.09606 2.40208C3.58322 1.91493 3.8268 1.67135 4.08839 1.53904C4.60866 1.27589 5.22307 1.27589 5.74333 1.53904C6.00493 1.67135 6.24851 1.91493 6.73567 2.40208L6.9143 2.58071C7.23477 2.90119 7.395 3.06142 7.49977 3.22255C7.89484 3.8302 7.89485 4.61357 7.49977 5.22122C7.395 5.38235 7.23477 5.54258 6.9143 5.86306C6.80951 5.96784 6.75712 6.02024 6.71326 6.08148C6.55742 6.29912 6.50361 6.61469 6.57852 6.87169C6.5996 6.944 6.62704 7.00115 6.68192 7.11545Z" stroke="#667085" stroke-width="1.5" stroke-linecap="round" stroke-linejoin="round"/>
</svg>
