<svg width="960" height="678" viewBox="0 0 960 678" fill="none" xmlns="http://www.w3.org/2000/svg">
<g clip-path="url(#clip0_2148_3227)">
<path d="M959.16 0.72998H0.840088V262.45H959.16V0.72998Z" fill="white"/>
<path d="M405.71 232C399.89 232 393.687 230.38 387.1 227.14L391.82 215.67C394.171 216.699 396.616 217.499 399.12 218.06C401.179 218.434 403.268 218.615 405.36 218.6C407.85 218.701 410.327 218.179 412.565 217.083C414.803 215.987 416.733 214.35 418.18 212.32C421.267 208.133 422.81 202.607 422.81 195.74V107.62H438.22V194.86C438.22 206.42 435.43 215.493 429.85 222.08C424.27 228.667 416.223 231.973 405.71 232Z" fill="#155EEF"/>
<path d="M892.36 127.47C889.375 121.757 884.75 117.066 879.08 114C872.923 110.751 866.041 109.12 859.08 109.26C852.946 109.247 846.856 110.296 841.08 112.36C835.554 114.301 830.383 117.131 825.77 120.74C821.278 129.124 819.009 138.52 819.18 148.03C819.18 156.51 821.437 166.28 825.95 177.34H780.67V107.61H765.18V177.37H754C748.42 177.37 743.82 176.37 740.24 174.37C736.66 172.37 733.34 168.94 730.31 164.03L730.49 162.1V120.9H715V157.49C715 163.41 713.38 168.19 710.1 171.84C706.82 175.49 702.27 177.34 696.39 177.34H676.74V120.93H661.23V177.37H488.23V60.4902H472V190.75H698C703.52 190.906 709 189.765 714 187.42C718.179 185.408 721.835 182.454 724.68 178.79C729.62 183.37 734.37 186.5 738.99 188.21C743.803 189.939 748.886 190.799 754 190.75H855.39C862.948 190.898 870.417 189.101 877.08 185.53C883.356 182.094 888.471 176.874 891.78 170.53C895.24 164.004 896.977 156.247 896.99 147.26C897.111 140.382 895.52 133.581 892.36 127.47ZM874.09 169.59C869.77 174.77 863.537 177.364 855.39 177.37H842.48C840.076 172.04 838.258 166.464 837.06 160.74C836.034 155.597 835.525 150.365 835.54 145.12C835.54 142.114 835.653 139.37 835.88 136.89C836.13 134.365 836.764 131.894 837.76 129.56C840.797 127.375 844.139 125.649 847.68 124.44C851.337 123.173 855.18 122.528 859.05 122.53C861.941 122.501 864.805 123.099 867.443 124.284C870.081 125.468 872.43 127.21 874.33 129.39C878.51 133.97 880.6 139.857 880.6 147.05C880.6 156.89 878.44 164.38 874.09 169.59Z" fill="#155EEF"/>
<path d="M0.840088 262.46V548.37H209.94V458.64H254.94V548.37H280.61C290.61 548.37 297.967 545.59 302.68 540.03C307.393 534.47 309.727 525.59 309.68 513.39V458.64H354.68V516.94C354.702 521.475 354.408 526.006 353.8 530.5C358.72 537.087 363.64 541.717 368.56 544.39C373.48 547.063 379.813 548.397 387.56 548.39H406.29V435H451.29V548.37H530.83C521.268 537.31 516.072 523.14 516.22 508.52C516.22 485.993 523.997 468.11 539.55 454.87C555.103 441.63 576.777 435.007 604.57 435H658.44V584.67H388.52C371.5 584.67 355.707 577.093 341.14 561.94C329.807 577.087 312.98 584.663 290.66 584.67H0.840088V677.27H959.16V262.46H0.840088ZM615.72 403.23C612.03 407.12 607.24 409.04 601.33 409.04C595.03 409.04 590.05 407.12 586.41 403.23C582.77 399.34 581 394.06 581 387.35C581 380.64 582.8 375.23 586.38 371.35C589.96 367.47 594.98 365.53 601.38 365.53C607.467 365.53 612.313 367.447 615.92 371.28C619.5 375.11 621.31 380.48 621.31 387.36C621.26 394.06 619.4 399.33 615.72 403.23ZM839.16 371.34C842.753 367.473 847.753 365.533 854.16 365.52C860.273 365.52 865.12 367.437 868.7 371.27C872.28 375.103 874.077 380.463 874.09 387.35C874.09 394.06 872.25 399.35 868.56 403.23C864.87 407.11 860 409 854.13 409C847.83 409 842.87 407.08 839.24 403.19C835.61 399.3 833.78 394.02 833.78 387.31C833.78 380.6 835.56 375.23 839.16 371.34ZM877 584.67H714.37V355H759.37V548.37H832V435H877V584.67Z" fill="#155EEF"/>
<path d="M613.44 471.32V548.32H604.86C591.193 548.32 580.747 545.073 573.52 538.58C566.293 532.087 562.677 522.837 562.67 510.83C562.67 497.93 566.407 488.12 573.88 481.4C581.353 474.68 591.88 471.303 605.46 471.27L613.44 471.32Z" fill="#155EEF"/>
<path d="M586.41 403.23C582.78 399.33 580.96 394.06 580.96 387.35C580.96 380.64 582.76 375.23 586.34 371.35C589.92 367.47 594.94 365.53 601.34 365.53C607.427 365.53 612.273 367.447 615.88 371.28C619.46 375.11 621.27 380.48 621.27 387.36C621.27 394.07 619.41 399.36 615.73 403.24C612.05 407.12 607.24 409 601.33 409C595 409 590.05 407.12 586.41 403.23Z" fill="white"/>
<path d="M604.57 435C576.83 435 555.19 441.617 539.65 454.85C524.11 468.083 516.333 485.967 516.32 508.5C516.172 523.12 521.367 537.29 530.93 548.35H451.39V435H406.39V548.37H387.64C379.86 548.37 373.527 547.037 368.64 544.37C363.753 541.703 358.82 537.08 353.84 530.5C354.448 526.006 354.742 521.475 354.72 516.94V458.64H309.72V513.39C309.72 525.583 307.387 534.463 302.72 540.03C298.053 545.597 290.697 548.377 280.65 548.37H255V458.64H210V548.37H0.840088V584.67H290.66C313 584.67 329.827 577.093 341.14 561.94C355.7 577.087 371.493 584.663 388.52 584.67H658.44V435H604.57ZM613.44 548.35H604.86C591.193 548.35 580.747 545.103 573.52 538.61C566.293 532.117 562.677 522.867 562.67 510.86C562.67 497.96 566.407 488.15 573.88 481.43C581.353 474.71 591.88 471.333 605.46 471.3H613.46L613.44 548.35Z" fill="white"/>
<path d="M839.24 403.23C835.58 399.33 833.78 394.06 833.78 387.35C833.78 380.64 835.56 375.23 839.16 371.35C842.76 367.47 847.74 365.53 854.16 365.53C860.273 365.53 865.12 367.447 868.7 371.28C872.28 375.114 874.077 380.474 874.09 387.36C874.09 394.07 872.25 399.36 868.56 403.24C864.87 407.12 860 409 854.13 409C847.83 409 842.87 407.12 839.24 403.23Z" fill="white"/>
<path d="M877.01 435.02V584.67H714.37V355.03H759.39V548.37H831.99V435.02H877.01Z" fill="white"/>
</g>
<defs>
<clipPath id="clip0_2148_3227">
<rect x="0.840088" y="0.72998" width="958.32" height="676.54" rx="32" fill="white"/>
</clipPath>
</defs>
</svg>
