<svg width="130" height="121" viewBox="0 0 130 121" fill="none" xmlns="http://www.w3.org/2000/svg">
<path d="M73.981 33.6713C75.1514 32.9793 76.3976 32.4545 77.6832 32.0972L78.4456 28.5117L84.6373 28.4056L85.5281 31.9624C86.8259 32.2751 88.0903 32.757 89.2849 33.4084L92.4139 31.4013L96.8688 35.61L94.9294 38.7397C95.6373 39.8852 96.1737 41.105 96.5384 42.3629L100.203 43.1091L100.311 49.167L96.6761 50.0389C96.3565 51.308 95.8639 52.5449 95.1983 53.7144L97.2493 56.7766L92.9483 61.1353L89.749 59.2372C88.578 59.9297 87.3318 60.4541 86.0458 60.8113L85.2828 64.3969L79.0911 64.5029L78.1998 60.9457C76.9025 60.6329 75.6381 60.1511 74.443 59.4996L71.314 61.5067L66.8592 57.298L68.7985 54.1684C68.0911 53.0224 67.5543 51.8031 67.1895 50.5452L63.5251 49.7989L63.4165 43.741L67.0519 42.8687C67.3714 41.5995 67.864 40.3626 68.5296 39.1932L66.4787 36.1315L70.7797 31.7723L73.981 33.6713ZM77.9196 41.1719C74.5075 43.8593 74.5994 48.9154 78.1074 51.4825C80.504 53.2364 83.867 53.1788 86.2001 51.3422C89.6138 48.6549 89.5223 43.5964 86.0123 41.0297C83.6153 39.2762 80.2523 39.3344 77.9196 41.1719Z" fill="#D1E9FF"/>
<path d="M111.502 30.3741C112.025 30.0652 112.581 29.8307 113.155 29.6713L113.496 28.0704L116.261 28.023L116.658 29.6112C117.238 29.751 117.802 29.966 118.336 30.2568L119.733 29.3605L121.722 31.2401L120.856 32.6377C121.172 33.1494 121.412 33.6938 121.574 34.2558L123.21 34.5891L123.259 37.2941L121.636 37.6836C121.493 38.2505 121.273 38.8027 120.976 39.3246L121.892 40.692L119.972 42.6385L118.543 41.7911C118.021 42.1 117.464 42.3345 116.89 42.4938L116.549 44.0948L113.785 44.1422L113.386 42.554C112.807 42.4142 112.242 42.1992 111.709 41.9084L110.312 42.8047L108.323 40.9256L109.189 39.5279C108.873 39.0163 108.634 38.4718 108.471 37.9103L106.835 37.577L106.786 34.8721L108.409 34.4826C108.552 33.9157 108.772 33.3635 109.069 32.8415L108.153 31.4742L110.074 29.5277L111.502 30.3741ZM113.261 33.7232C111.738 34.9229 111.778 37.1807 113.345 38.3272C114.415 39.1101 115.917 39.0847 116.958 38.2646C118.483 37.0649 118.442 34.8061 116.875 33.6596C115.804 32.8767 114.303 32.9026 113.261 33.7232Z" fill="#D1E9FF"/>
<path d="M72.1366 76.7566C72.6591 76.4477 73.2156 76.2132 73.7898 76.0538L74.1305 74.4529L76.8952 74.4055L77.2929 75.9937C77.8725 76.1335 78.4369 76.3485 78.9703 76.6393L80.3674 75.743L82.3564 77.6221L81.4902 79.0198C81.8063 79.5314 82.0457 80.0758 82.2084 80.6378L83.8445 80.9711L83.8931 83.6761L82.2699 84.0656C82.1273 84.6325 81.9076 85.1847 81.6102 85.7066L82.526 87.074L80.6058 89.0205L79.1772 88.1731C78.6547 88.4825 78.0977 88.7165 77.524 88.8759L77.1833 90.4768L74.4186 90.5242L74.0209 88.936C73.4413 88.7962 72.8769 88.5812 72.3435 88.2904L70.9464 89.1867L68.9569 87.3076L69.8231 85.9099C69.507 85.3983 69.2676 84.8539 69.1044 84.2923L67.4683 83.959L67.4197 81.2541L69.0429 80.8646C69.1855 80.2977 69.4057 79.7455 69.7027 79.2235L68.7868 77.8562L70.7075 75.9097L72.1366 76.7566ZM73.8955 80.1057C72.372 81.3059 72.4128 83.5632 73.9796 84.7097C75.0498 85.4926 76.5511 85.4672 77.5933 84.6471C79.1173 83.4474 79.0769 81.1886 77.5092 80.0421C76.4385 79.2592 74.9372 79.2851 73.8955 80.1057Z" fill="#F5F5F5"/>
<path d="M112.262 93.3489C114.366 93.1192 116.727 92.9531 116.727 92.9531L118.816 92.6946C118.789 92.8314 118.74 92.9668 118.689 93.0968C118.592 93.3435 118.487 93.6026 118.523 93.8665C118.591 94.3654 119.132 94.665 119.633 94.7564C120.68 94.9479 121.815 94.5413 122.492 93.7321C123.143 92.9541 123.34 91.8349 123.013 90.8751C123.121 90.6303 123.193 90.3542 123.202 90.0326C123.255 88.0636 120.91 86.4094 120.91 86.4094L121.629 86.2173C121.629 86.2173 123.91 86.5276 125.108 90.1528C125.287 90.6938 125.646 91.1742 126.143 91.4601C126.448 91.6355 126.802 91.7362 127.154 91.6106C128.032 91.2983 128.034 90.6 127.317 88.327C126.6 86.0536 125.151 84.0944 123.632 83.5652C122.114 83.0359 121.486 82.9264 121.486 82.9264C121.486 82.9264 127.864 80.8167 128.263 80.6667C129.414 80.2337 130.182 79.3599 129.963 78.5682C129.822 78.0604 129.266 77.5234 127.91 77.9862C126.736 78.3864 114.173 80.9711 114.173 80.9711L108.684 82.4387L104.354 84.3818L107.39 91.941L107.888 92.2738C109.174 93.1344 110.724 93.517 112.262 93.3489Z" fill="#FFBF9D"/>
<path d="M109.485 83.3281C109.535 84.0514 110.261 84.5636 110.977 84.72C111.692 84.8768 112.439 84.7889 113.163 84.8934C115.33 85.2082 117.003 87.1801 119.182 87.3912C119.486 87.421 119.87 87.3628 119.962 87.0755C120.047 86.8087 119.816 86.5526 119.605 86.3654C117.805 84.76 116.005 83.1556 114.204 81.5507" fill="#FFBF9D"/>
<path d="M114.203 81.5507C114.222 81.5297 114.448 81.6954 114.841 82.0126C115.233 82.3297 115.792 82.7984 116.477 83.3843C117.186 83.9981 117.99 84.696 118.869 85.4574C119.093 85.6543 119.323 85.8557 119.556 86.0609C119.759 86.2686 120.117 86.4514 120.18 86.9445C120.2 87.1923 120.008 87.4337 119.804 87.5104C119.604 87.5974 119.409 87.6087 119.218 87.5989C118.859 87.5608 118.512 87.4963 118.171 87.3814C116.805 86.9245 115.756 86.0932 114.7 85.5928C114.176 85.3342 113.656 85.1451 113.153 85.0645C112.65 84.9834 112.155 84.9936 111.697 84.9555C110.77 84.9228 110.02 84.5201 109.719 84.0842C109.4 83.6443 109.471 83.3159 109.485 83.3277C109.525 83.3179 109.52 83.6223 109.844 83.9835C110.163 84.3481 110.823 84.6672 111.713 84.6662C112.155 84.6857 112.653 84.6564 113.202 84.7287C113.752 84.8006 114.314 84.9931 114.865 85.2526C115.971 85.7589 117.033 86.5736 118.298 86.9909C118.61 87.098 118.936 87.1566 119.243 87.1918C119.543 87.2162 119.802 87.1112 119.776 86.9528C119.774 86.7759 119.527 86.554 119.293 86.3503C119.062 86.1416 118.836 85.9368 118.615 85.736C117.758 84.9506 116.974 84.2313 116.283 83.5979C115.623 82.9851 115.093 82.4837 114.734 82.1298C114.374 81.777 114.184 81.5718 114.203 81.5507Z" fill="#FF9A6C"/>
<path d="M120.847 86.3361C120.854 86.3898 121.386 86.1142 122.216 86.3341C122.622 86.4436 123.059 86.7197 123.403 87.1586C123.754 87.5935 124.017 88.1609 124.249 88.7786C124.484 89.3958 124.708 90.0043 125.031 90.5057C125.354 91.0037 125.744 91.3971 126.163 91.6038C126.585 91.8203 127.008 91.7572 127.228 91.6399C127.456 91.5231 127.542 91.4103 127.535 91.4024C127.521 91.3809 127.411 91.4655 127.188 91.5451C126.97 91.6233 126.613 91.6487 126.25 91.4386C125.889 91.2368 125.533 90.8551 125.241 90.3786C124.947 89.8997 124.736 89.3093 124.499 88.6858C124.264 88.0617 123.983 87.4645 123.594 87.0051C123.213 86.5404 122.711 86.2462 122.262 86.1528C121.813 86.0517 121.438 86.1059 121.198 86.1734C120.956 86.2437 120.84 86.3224 120.847 86.3361Z" fill="#FF9A6C"/>
<path d="M128.703 80.4942C128.688 80.4595 128.207 80.629 127.432 80.9052C126.568 81.2091 125.539 81.5713 124.401 81.9715C123.256 82.3551 122.221 82.7021 121.352 82.9924C120.57 83.2504 120.087 83.4117 120.097 83.4488C120.106 83.483 120.609 83.3843 121.407 83.1718C122.206 82.9606 123.297 82.6303 124.489 82.2212C125.679 81.8122 126.742 81.4022 127.502 81.0796C128.262 80.7571 128.718 80.5264 128.703 80.4942Z" fill="#FF9A6C"/>
<path d="M119.913 88.2464C119.9 88.2611 120.007 88.3681 120.185 88.5641C120.352 88.7542 120.627 89.0791 120.573 89.5175C120.548 89.7296 120.398 89.9148 120.159 90.0233C119.926 90.1382 119.634 90.1797 119.317 90.2432C119.007 90.3043 118.624 90.4094 118.374 90.7309C118.136 91.0471 118.083 91.4787 118.208 91.8628C118.335 92.2567 118.65 92.546 118.986 92.7033C119.327 92.8602 119.686 92.9223 120.034 92.869C120.687 92.7473 121.217 92.5123 121.652 92.2914C122.083 92.0631 122.403 91.8207 122.587 91.615C122.77 91.4078 122.817 91.2573 122.806 91.2534C122.784 91.2416 122.708 91.3682 122.513 91.5422C122.317 91.7152 121.995 91.9239 121.568 92.1237C121.141 92.3163 120.601 92.5299 119.998 92.6276C119.436 92.7024 118.674 92.4131 118.463 91.7826C118.361 91.4738 118.408 91.1239 118.584 90.8868C118.762 90.6484 119.069 90.5457 119.371 90.4807C119.674 90.4128 119.989 90.3625 120.262 90.2178C120.537 90.0893 120.749 89.8117 120.761 89.54C120.793 88.9922 120.448 88.6652 120.26 88.4917C120.052 88.3124 119.925 88.2347 119.913 88.2464Z" fill="#FF9A6C"/>
<path d="M119.142 92.5343C119.14 92.5216 118.993 92.5328 118.795 92.6911C118.606 92.8441 118.371 93.1769 118.399 93.6451C118.428 94.103 118.76 94.621 119.314 94.88C119.865 95.142 120.562 95.1444 121.204 94.9279C121.849 94.7095 122.377 94.2906 122.712 93.8127C123.053 93.3338 123.193 92.8104 123.227 92.3779C123.261 91.942 123.192 91.5906 123.121 91.3609C123.047 91.1297 122.976 91.0149 122.962 91.0208C122.911 91.0315 123.144 91.5354 123.039 92.3578C122.983 92.7615 122.834 93.2399 122.511 93.67C122.195 94.101 121.705 94.4788 121.116 94.6782C120.53 94.8771 119.898 94.8771 119.417 94.6601C118.934 94.4485 118.632 94.0131 118.587 93.628C118.539 93.2375 118.715 92.9257 118.866 92.7669C119.022 92.6012 119.151 92.5553 119.142 92.5343Z" fill="#FF9A6C"/>
<path d="M113.367 89.6343C113.39 89.6285 113.357 89.3856 113.147 89.0347C112.942 88.6897 112.527 88.2386 111.885 87.9942L111.897 88.2269C112.154 88.1091 112.426 87.9659 112.695 87.7993C114.204 86.8776 114.956 85.6221 114.892 85.5981C114.83 85.5459 114.007 86.6904 112.553 87.5754C112.293 87.7362 112.032 87.8774 111.786 87.9986L111.514 88.1321L111.798 88.2317C112.38 88.436 112.785 88.8226 113.014 89.1231C113.247 89.4281 113.334 89.647 113.367 89.6343Z" fill="#FF9A6C"/>
<path d="M124.231 86.0776C124.18 86.0277 123.81 86.426 123.765 87.0613C123.715 87.6961 124.022 88.1477 124.079 88.1071C124.15 88.0749 123.984 87.6346 124.031 87.0823C124.066 86.5291 124.295 86.1201 124.231 86.0776Z" fill="#FF9A6C"/>
<path d="M56.8359 73.9715C56.8359 73.9715 70.4286 97.1007 74.9558 99.3546C79.4834 101.609 95.8487 98.3171 99.6541 97.4545C103.972 96.4756 109.485 94.7574 109.485 94.7574L107.872 81.9119L104.312 81.9886C104.312 81.9886 84.1295 84.0236 82.9624 83.1063C81.7954 82.1885 74.0227 67.3736 74.0227 67.3736C74.0227 67.3736 69.1441 57.5536 67.396 55.3076C64.8269 52.0074 62.6889 52.0074 62.6889 52.0074L56.8359 73.9715Z" fill="#2563EB"/>
<path d="M73.1662 120.876C72.8069 102.52 71.1546 65.2189 71.1546 65.2189L62.6888 52.0074C62.6888 52.0074 60.0754 51.242 56.8358 50.8863C53.5967 50.53 53.0456 50.2216 53.0456 50.2216L50.6879 46.5212L31.2638 45.3918L28.2951 50.878C28.2951 50.878 16.1323 57.1925 14.5123 58.0814C12.8923 58.9708 23.4502 102.489 23.4502 102.489L21.4135 120.875L73.1662 120.876Z" fill="#2563EB"/>
<path d="M56.2669 120.876C56.1922 117.655 56.0236 113.823 55.7994 109.571C55.5443 105.32 55.2065 100.649 54.7228 95.7577C54.2179 90.8668 53.6206 86.2203 52.9599 82.0106C52.2614 77.8073 51.5638 74.0306 50.8146 70.8932C50.6342 70.1083 50.4621 69.3601 50.2989 68.6515C50.1126 67.9502 49.9366 67.2875 49.7719 66.6674C49.4475 65.4271 49.1672 64.3583 48.888 63.4991C48.6353 62.6552 48.4357 61.9886 48.2912 61.5062C48.2317 61.2946 48.1836 61.1226 48.1452 60.9848C48.1137 60.867 48.101 60.8049 48.1069 60.8035C48.1133 60.802 48.1383 60.8592 48.1816 60.9735C48.2298 61.1084 48.2893 61.2765 48.3635 61.4842C48.5242 61.9627 48.7469 62.6229 49.0281 63.4595C49.33 64.3138 49.6303 65.3782 49.9745 66.6161C50.149 67.2357 50.3343 67.8969 50.5314 68.5973C50.7025 69.3054 50.8839 70.0531 51.0737 70.8375C51.8578 73.9739 52.5834 77.7526 53.3016 81.9603C53.9824 86.1743 54.5911 90.8272 55.0969 95.724C55.5811 100.621 55.9095 105.298 56.1455 109.554C56.3505 113.812 56.4916 117.648 56.5329 120.872" fill="#263238"/>
<path d="M71.1546 65.2194C71.1807 65.2184 71.221 65.6646 71.2731 66.4724C71.3258 67.2807 71.3829 68.4507 71.4409 69.8967C71.5585 72.7888 71.6579 76.7859 71.774 81.1984C71.8901 85.6128 72.0391 89.6055 72.1818 92.4942C72.2522 93.8924 72.3102 95.0467 72.354 95.9151C72.3938 96.7234 72.4032 97.1715 72.3776 97.1735C72.352 97.1759 72.293 96.7312 72.2084 95.9258C72.1213 95.1205 72.0224 93.953 71.9171 92.5093C71.7066 89.6211 71.5152 85.6245 71.3991 81.2082C71.283 76.7937 71.2259 72.7967 71.1762 69.904C71.1561 68.5039 71.1398 67.3477 71.128 66.4778C71.1202 65.668 71.129 65.2203 71.1546 65.2194Z" fill="#263238"/>
<g opacity="0.3">
<path d="M70.4782 96.6897C70.3351 95.5407 69.4114 94.601 68.3461 94.1206C67.2808 93.6402 66.0838 93.5429 64.9143 93.4862C49.7514 92.7571 34.3772 98.0277 22.929 107.88L22.334 111.983C26.0281 113.542 30.3161 112.473 33.9795 110.844C37.6428 109.216 41.1238 107.027 45.0675 106.272C48.485 105.617 52.1681 106.056 55.3227 104.601C57.3127 103.684 58.9472 102.066 61.0351 101.395C62.8987 100.796 64.9344 101.015 66.8443 100.58C68.7536 100.145 70.7176 98.6117 70.4782 96.6897Z" fill="black"/>
</g>
<path d="M14.5121 58.0819C14.5121 58.0819 8.49959 60.8455 6.79709 68.3949C5.77619 72.9227 2.80733 85.3797 2.80733 85.3797C2.80733 85.3797 -0.415245 100.242 0.0449888 103.122C0.505174 106.004 1.47485 112.435 7.76775 113.194C14.0607 113.952 35.9535 106.004 35.9535 106.004L41.9383 103.577L39.6366 92.6589L29.3548 95.2373L19.2885 96.0329L20.6492 86.9558L22.8817 81.1226C22.8817 81.1226 22.7561 74.7642 20.3008 69.4564C17.8459 64.1491 14.5121 58.0819 14.5121 58.0819Z" fill="#2563EB"/>
<path d="M52.0419 87.4567L59.9872 71.4576C60.5269 70.3708 61.6448 69.6822 62.8699 69.6822H82.8327C83.5736 69.6822 84.047 70.4631 83.697 71.1087L70.1839 96.0387C69.8054 96.7376 69.0685 97.1735 68.2662 97.1735H47.5615L52.0419 87.4567Z" fill="#455A64"/>
<path d="M83.5646 71.225C83.5646 71.2377 83.4274 71.2484 83.1654 71.2568C82.8621 71.2621 82.4841 71.268 82.022 71.2758C80.9758 71.2763 79.5527 71.2763 77.8178 71.2768C74.2223 71.246 69.3466 71.2054 63.9587 71.1595C63.299 71.1859 62.6491 71.291 62.1157 71.6003C61.5793 71.9014 61.1964 72.4086 60.8911 72.9398C60.311 74.0331 59.8224 75.1732 59.317 76.2136C58.3255 78.3019 57.4298 80.1897 56.6688 81.7926C55.9191 83.3389 55.3046 84.608 54.8533 85.54C54.6468 85.9485 54.4782 86.2833 54.3425 86.5511C54.2221 86.7808 54.1528 86.8986 54.141 86.8932C54.1292 86.8878 54.1754 86.7593 54.2737 86.5198C54.3922 86.2437 54.5397 85.8997 54.7206 85.4794C55.1448 84.5342 55.7229 83.2495 56.4274 81.6822C57.1672 80.07 58.0384 78.1709 59.0024 76.07C59.5048 75.0158 59.9684 73.9065 60.5701 72.7615C60.8877 72.2034 61.307 71.6335 61.9274 71.2817C62.5414 70.9254 63.2562 70.8179 63.942 70.7891C69.379 70.8247 74.2665 70.9406 77.8208 71.0144C79.5556 71.0623 80.9783 71.1023 82.0234 71.1307C82.4855 71.1512 82.8631 71.1683 83.1659 71.1815C83.4274 71.1976 83.5646 71.2118 83.5646 71.225Z" fill="#263238"/>
<path d="M71.2636 74.73C71.7474 74.9782 71.7661 75.3726 71.563 75.7196C71.36 76.0665 70.8974 76.2219 70.5061 76.1154C70.2475 76.045 70.0066 75.8515 69.956 75.591C69.9049 75.3306 70.1467 74.7666 70.5656 74.6811C70.5656 74.6811 71.0228 74.6068 71.2636 74.73Z" fill="white"/>
<path d="M39.8398 93.6241L41.2168 92.2249C41.2168 92.2249 43.2383 89.3196 44.0651 88.4111C44.8925 87.5031 49.8537 84.3251 49.8537 84.3251C49.8537 84.3251 52.2448 81.1231 52.6121 81.1231C52.9798 81.1231 54.1429 81.3284 53.8293 82.817C53.5269 84.2503 52.9778 86.1773 52.5182 87.1126L63.1151 87.3418C63.7822 87.356 64.4291 87.6394 64.8415 88.1584C65.1183 88.5074 65.2343 88.892 64.7383 89.1368C63.6357 89.6822 59.1336 90.7715 59.1336 90.7715L61.1442 90.2594C61.1442 90.2594 61.5749 92.1599 60.3036 93.0621C59.0387 93.9593 58.9497 94.1308 58.9497 94.1308C58.9497 94.1308 58.8878 95.9288 58.3362 96.655C57.7847 97.3812 51.8147 100.416 51.8147 100.416C51.8147 100.416 47.9999 101.531 46.0704 101.44C44.1408 101.349 42.1558 102.43 41.9385 102.489C41.7212 102.547 39.8398 93.6241 39.8398 93.6241Z" fill="#FFBF9D"/>
<path d="M53.5379 87.1586C53.535 87.2632 52.1998 87.3164 50.5613 87.488C48.9223 87.6673 47.5694 87.7479 47.5606 87.6341C47.5547 87.5437 48.8682 87.2998 50.5239 87.119C52.1845 86.9455 53.5423 87.0584 53.5379 87.1586Z" fill="#FF9A6C"/>
<path d="M52.123 91.8061C52.09 91.6942 54.023 91.1723 56.452 90.8971C57.6633 90.7446 58.7605 90.6371 59.5525 90.5501C60.3445 90.4671 60.8326 90.4016 60.8454 90.4534C60.8572 90.5008 60.3818 90.6586 59.5923 90.8092C58.8043 90.9636 57.708 91.1131 56.4997 91.2641C54.0781 91.5393 52.1485 91.8911 52.123 91.8061Z" fill="#FF9A6C"/>
<path d="M52.1231 95.2329C52.1236 95.1239 53.6677 95.077 55.5328 94.7559C57.4004 94.4451 58.8722 93.9808 58.9091 94.0834C58.9469 94.1714 57.5041 94.8023 55.5962 95.1205C53.6913 95.4484 52.1177 95.3282 52.1231 95.2329Z" fill="#FF9A6C"/>
<path d="M52.7637 99.0726C52.6613 99.0892 52.5069 98.6777 52.4198 98.1533C52.3322 97.6285 52.344 97.1906 52.4459 97.1735C52.5482 97.1569 52.7022 97.5684 52.7897 98.0927C52.8773 98.6171 52.8655 99.0555 52.7637 99.0726Z" fill="#FF9A6C"/>
<path d="M51.8144 94.4749C51.7081 94.4671 51.6525 94.1265 51.47 93.7673C51.2968 93.4037 51.0607 93.1495 51.1192 93.0626C51.1669 92.9746 51.5817 93.1432 51.8075 93.6055C52.0357 94.0663 51.9137 94.4925 51.8144 94.4749Z" fill="#FF9A6C"/>
<path d="M50.6047 89.8728C50.4999 89.884 50.3912 89.6646 50.2628 89.4164C50.1388 89.1657 50.0266 88.9487 50.0985 88.8724C50.1649 88.7967 50.4389 88.9345 50.5983 89.2507C50.7587 89.5664 50.706 89.8655 50.6047 89.8728Z" fill="#FF9A6C"/>
<path d="M48.1064 60.803C48.0926 60.8216 47.8881 60.6886 47.5012 60.457C47.0622 60.1965 46.5052 59.8661 45.8303 59.4654C45.1121 59.0437 44.2429 58.5388 43.2666 57.9416C42.2972 57.3327 41.1916 56.6837 40.1233 55.7606L40.3971 55.7137C39.6519 57.147 39.1937 58.919 39.2709 60.7732L39.2714 60.7957L39.2827 61.2145L38.9622 60.9442C35.8474 58.3165 33.0527 55.9033 31.1104 54.0697C30.137 53.1553 29.3676 52.3964 28.8529 51.8563C28.3358 51.3183 28.0654 51.0055 28.0831 50.9894C28.1023 50.9703 28.408 51.2484 28.9552 51.7542C29.5544 52.2996 30.341 53.0146 31.2903 53.8786C33.2739 55.6589 36.0902 58.0355 39.206 60.6637L38.8973 60.8123L38.8968 60.7893C38.8167 58.8658 39.3014 57.0317 40.0874 55.5558L40.1921 55.3593L40.3617 55.5089C41.372 56.4013 42.4741 57.0762 43.4239 57.6973C44.3742 58.2969 45.2202 58.8311 45.9429 59.287C46.6463 59.7332 47.1974 60.0993 47.5651 60.3646C47.9338 60.6261 48.1167 60.7898 48.1064 60.803Z" fill="#263238"/>
<path d="M53.0454 50.2221C53.0676 50.2119 53.2204 50.4821 53.453 50.9889C53.6845 51.4957 53.9977 52.239 54.3555 53.1685C54.7105 54.099 55.1224 55.2098 55.5039 56.476C55.5998 56.7927 55.6888 57.1197 55.762 57.4661C55.7925 57.645 55.8362 57.8107 55.8112 58.055C55.7925 58.1865 55.6278 58.2916 55.5019 58.2583C55.4395 58.251 55.3658 58.1997 55.3417 58.1664L55.3004 58.1137L55.1347 57.9025C54.6918 57.3352 54.2341 56.7492 53.7646 56.1486C53.1487 55.3535 52.5529 54.5843 51.9949 53.8639L52.2997 53.84C51.1936 55.9091 50.1868 57.6753 49.4253 58.9073C49.0453 59.5231 48.7267 60.0059 48.4947 60.328C48.2646 60.6515 48.1221 60.8152 48.1054 60.804C48.0867 60.7908 48.1939 60.6051 48.3905 60.263C48.6201 59.8593 48.8978 59.3716 49.2262 58.7939C49.9307 57.535 50.8937 55.7503 51.9792 53.6753L52.1084 53.427L52.284 53.6509C52.8419 54.3649 53.4387 55.1277 54.0547 55.9155C54.5188 56.5146 54.972 57.0996 55.411 57.665L55.5742 57.8766L55.6145 57.9294L55.5491 57.9954L55.5496 57.9934C55.5496 57.9934 55.5491 57.9954 55.5526 58.0008L55.555 58.0037L55.5521 58.0022L55.4562 57.9778C55.4641 57.8713 55.4405 57.6929 55.41 57.5341C55.3446 57.2071 55.2611 56.8836 55.1711 56.5704C54.8132 55.3154 54.4273 54.1967 54.1053 53.2584C53.7927 52.3802 53.5287 51.6394 53.3168 51.0436C53.1275 50.5212 53.0204 50.2334 53.0454 50.2221Z" fill="#263238"/>
<path d="M6.52309 95.0134C6.51178 94.9724 7.20365 94.7329 8.36751 94.5272C9.52882 94.32 11.1704 94.1831 12.9733 94.3239C14.7768 94.4695 16.3747 94.8639 17.4878 95.2519C18.6036 95.6385 19.2478 95.9835 19.2298 96.0226C19.2062 96.0773 18.5288 95.8193 17.4079 95.5017C16.2886 95.1825 14.7132 94.836 12.9431 94.6933C11.1735 94.555 9.56269 94.6484 8.40596 94.7867C7.24824 94.9235 6.53739 95.0711 6.52309 95.0134Z" fill="#263238"/>
<path d="M12.8758 92.3021C12.8835 92.2112 14.6255 92.4458 16.495 93.4711C18.3723 94.4822 19.5059 95.81 19.4327 95.8652C19.3532 95.9478 18.134 94.774 16.3147 93.7956C14.5045 92.8016 12.8482 92.4126 12.8758 92.3021Z" fill="#263238"/>
<path d="M21.4694 81.5864C21.4766 81.5879 21.471 81.6744 21.4525 81.843C21.429 82.0336 21.3982 82.2794 21.3602 82.5868C21.266 83.2666 21.1338 84.2195 20.9667 85.4276C20.6028 87.9141 20.0857 91.4459 19.4543 95.7563L19.4558 95.7445C19.4502 95.8345 19.4435 95.9386 19.4369 96.0426L19.276 95.8872C22.477 95.5891 26.1198 95.2495 30.0624 94.8815L30.0354 94.8864C33.0125 94.1362 36.2393 93.324 39.5911 92.4795L39.7803 92.4321L39.8202 92.6213C40.0025 93.4853 40.1977 94.4084 40.3938 95.3404C40.9882 98.1675 41.5668 100.921 42.1179 103.541L42.1484 103.687L42.0083 103.745C34.1058 106.972 26.9931 109.252 21.8523 110.608C19.2842 111.297 17.2157 111.788 15.7915 112.108C15.0987 112.256 14.5528 112.374 14.1531 112.46C13.9819 112.492 13.8425 112.519 13.7277 112.542C13.6319 112.558 13.5822 112.564 13.5806 112.559C13.5791 112.554 13.6268 112.537 13.72 112.51C13.8328 112.479 13.9701 112.442 14.1382 112.396C14.5344 112.296 15.0751 112.159 15.7613 111.985C17.1758 111.627 19.2329 111.103 21.7887 110.385C26.906 108.968 33.9854 106.651 41.8681 103.41L41.759 103.614C41.2055 100.995 40.6234 98.2428 40.0256 95.4156C39.8295 94.4842 39.6353 93.561 39.4534 92.6965L39.6825 92.8382C36.3293 93.6754 33.1005 94.4812 30.1219 95.225L30.1081 95.229L30.0944 95.2299C26.1495 95.5764 22.5047 95.897 19.3026 96.178L19.1294 96.1937L19.1417 96.0231C19.1494 95.919 19.1566 95.8149 19.1632 95.7255L19.1637 95.7186L19.1648 95.7137C19.8489 91.4107 20.409 87.8848 20.8037 85.4032C21.0046 84.2 21.163 83.2509 21.2757 82.5741C21.331 82.2691 21.3751 82.0253 21.4095 81.8361C21.4418 81.6705 21.4618 81.5854 21.4694 81.5864Z" fill="#263238"/>
<path d="M22.1887 70.8638C22.1283 70.8712 22.014 70.1606 21.7224 69.0415C21.4328 67.9229 20.9286 66.403 20.1367 64.8274C19.3398 63.2533 18.4153 61.9412 17.686 61.039C16.9578 60.1354 16.4519 59.6174 16.4944 59.5744C16.5236 59.5431 17.0977 59.9971 17.889 60.8704C18.6802 61.7408 19.6601 63.0574 20.4724 64.6623C21.2801 66.2681 21.7541 67.8339 21.9812 68.9824C22.2098 70.1328 22.2313 70.859 22.1887 70.8638Z" fill="#263238"/>
<g opacity="0.3">
<path d="M22.5555 74.5638C21.6868 79.2304 21.0667 84.4981 20.3164 89.1847C20.4937 89.4027 20.3979 90.1035 20.5752 90.3219C21.4475 87.9224 22.5955 85.0293 23.0885 82.5272C23.5815 80.0255 23.2309 77.0244 22.5555 74.5638Z" fill="black"/>
</g>
<g opacity="0.3">
<path d="M41.0913 59.6057C43.2479 59.9004 45.4041 60.195 47.5612 60.4897C44.9897 59.0427 42.4948 57.5311 40.2428 55.634C39.4356 57.515 38.9833 58.2016 39.117 60.9178C35.9831 58.3155 33.0119 55.3452 29.8774 52.7429C33.1185 57.4828 37.0449 61.558 41.6011 65.0869C41.1832 63.2934 41.0112 61.4442 41.0913 59.6057Z" fill="black"/>
</g>
<path d="M37.9673 3.78238C38.5823 2.50403 40.0905 1.70887 41.5073 1.91623C43.1143 0.565377 45.6982 0.52503 47.3475 1.82479C48.5691 1.05157 50.2042 0.964776 51.5025 1.60316C52.8013 2.24204 53.7166 3.58372 53.8287 5.01268C55.2706 4.73485 56.8535 5.457 57.5747 6.72151C58.2954 7.98656 58.1002 9.69848 57.1126 10.773C58.7088 11.2255 59.808 12.9716 59.5131 14.586C59.2186 16.2009 57.5708 17.4573 55.9156 17.3301L38.7362 7.6735C37.6797 6.71848 37.3523 5.06067 37.9673 3.78238Z" fill="#263238"/>
<path d="M58.1065 35.8721C58.0225 32.1903 57.2261 24.6231 56.4243 17.7821C55.563 10.4273 49.13 4.96058 41.6424 5.21852L40.8986 5.24403C32.893 5.98304 29.055 13.1152 30.0245 21.0037L32.2799 45.8732L47.7702 59.7938L51.1465 49.9553L50.6087 44.9457C50.6087 44.9457 58.2796 43.4955 58.1065 35.8721Z" fill="#FFBF9D"/>
<path d="M50.6724 44.9325C50.6724 44.9325 45.7589 45.3948 40.4663 42.3582C40.4663 42.3582 43.0359 47.7601 50.7053 46.8091L50.6724 44.9325Z" fill="#FF9A6C"/>
<path d="M54.1752 24.9791C54.216 25.5531 53.7579 26.0602 53.1522 26.1134C52.5475 26.1659 52.023 25.7451 51.9827 25.1711C51.9424 24.5971 52.4001 24.0894 53.0047 24.0363C53.6104 23.9832 54.1344 24.4056 54.1752 24.9791Z" fill="#263238"/>
<path d="M54.8985 21.5675C54.7673 21.7141 53.9114 21.1324 52.7266 21.1763C51.5424 21.2033 50.6939 21.8356 50.5607 21.6967C50.4953 21.6354 50.6251 21.3744 50.9942 21.0889C51.3575 20.8045 51.9838 20.519 52.7222 20.4965C53.4601 20.4751 54.0908 20.7223 54.4576 20.9848C54.8312 21.2493 54.9634 21.5016 54.8985 21.5675Z" fill="#263238"/>
<path d="M43.7278 25.4489C43.7691 26.023 43.3109 26.5301 42.7052 26.5832C42.1001 26.6363 41.576 26.2155 41.5357 25.6409C41.4949 25.0674 41.9531 24.5592 42.5573 24.5061C43.1634 24.4525 43.6875 24.8749 43.7278 25.4489Z" fill="#263238"/>
<path d="M43.2589 22.1865C43.1276 22.3331 42.2703 21.7519 41.0865 21.7958C39.9027 21.8229 39.0542 22.4551 38.921 22.3162C38.8551 22.2549 38.9844 21.9939 39.3551 21.7085C39.7184 21.424 40.3442 21.1385 41.0826 21.116C41.8204 21.0946 42.4507 21.3417 42.8179 21.6043C43.1905 21.8688 43.3238 22.1211 43.2589 22.1865Z" fill="#263238"/>
<path d="M47.8652 30.7231C47.8573 30.6567 48.5898 30.5055 49.7775 30.3135C50.0789 30.2726 50.3635 30.2032 50.4068 29.9974C50.4702 29.7788 50.3325 29.4611 50.1737 29.1179C49.8635 28.4044 49.5391 27.6562 49.1989 26.8718C47.8416 23.6727 46.8486 21.0384 46.9793 20.9853C47.1106 20.9327 48.3165 23.4827 49.6728 26.6813C50.0007 27.4703 50.3129 28.2226 50.6108 28.9422C50.7376 29.2783 50.9475 29.6567 50.8094 30.1102C50.7361 30.3365 50.5193 30.5065 50.3271 30.5648C50.1349 30.6301 49.9653 30.6393 49.8154 30.6531C48.6169 30.7583 47.8721 30.7889 47.8652 30.7231Z" fill="#263238"/>
<path d="M44.4064 31.6531C44.5986 31.6352 44.6453 32.9058 45.7779 33.7705C46.9091 34.6377 48.2753 34.4477 48.2915 34.6254C48.3121 34.7046 47.9946 34.8828 47.4164 34.9186C46.8496 34.9574 46.0144 34.8057 45.3208 34.2771C44.6301 33.747 44.3149 33.0187 44.253 32.4988C44.1852 31.9682 44.3179 31.6485 44.4064 31.6531Z" fill="#263238"/>
<path d="M43.4026 17.5875C43.2974 17.9098 42.1087 17.7995 40.7244 18.0129C39.3356 18.1988 38.2286 18.6396 38.0344 18.3607C37.9474 18.2269 38.1322 17.9205 38.5746 17.5967C39.0131 17.2734 39.7196 16.9563 40.5509 16.8357C41.3822 16.7167 42.151 16.8214 42.6642 17.0078C43.1824 17.1932 43.4479 17.4343 43.4026 17.5875Z" fill="#263238"/>
<path d="M54.3437 18.1937C54.1446 18.467 53.3187 18.2188 52.3365 18.2397C51.3543 18.2264 50.5299 18.4808 50.3293 18.209C50.2403 18.0767 50.3617 17.8061 50.7162 17.5415C51.0652 17.2785 51.6566 17.0528 52.3321 17.0497C53.007 17.0477 53.5999 17.2688 53.9514 17.5293C54.3078 17.7908 54.4312 18.0609 54.3437 18.1937Z" fill="#263238"/>
<path d="M55.5598 14.3133C55.5598 14.3133 53.3579 9.61115 50.9904 8.57799C48.1239 7.32672 47.0183 10.4263 44.3056 9.77662C41.593 9.12699 38.8568 7.92631 36.1839 10.0729C33.2579 12.4226 34.7214 13.9497 34.6551 17.3372C34.3852 31.0703 31.9891 35.034 31.0408 28.6026C30.9366 27.8978 28.9309 27.4034 28.5312 24.4254C28.0131 20.5629 27.6965 15.8628 28.4747 13.0825C29.131 10.7388 30.4116 9.09176 32.7482 7.24301C36.4361 4.32527 41.6338 4.08679 45.1777 4.31609C48.7202 4.54538 55.6709 8.32724 55.5598 14.3133Z" fill="#263238"/>
<path d="M31.525 28.3779C31.435 27.2032 30.3771 26.31 29.1953 26.4622C27.7618 26.6471 26.1901 27.5087 26.3889 30.4422C26.741 35.6458 31.9547 34.2235 31.9537 34.0734C31.9527 33.9717 31.6921 30.554 31.525 28.3779Z" fill="#FFBF9D"/>
<path d="M30.6754 32.1914C30.6513 32.1761 30.5879 32.2608 30.4374 32.3415C30.2909 32.4196 30.0343 32.484 29.7526 32.4008C29.1829 32.2358 28.6554 31.3942 28.5664 30.4575C28.5212 29.9851 28.591 29.5275 28.7355 29.1429C28.8702 28.7517 29.1013 28.4693 29.3781 28.4019C29.6524 28.3196 29.8618 28.4724 29.936 28.6143C30.0166 28.7553 29.9906 28.861 30.0186 28.8682C30.0343 28.8804 30.1258 28.7732 30.0692 28.5612C30.0397 28.4591 29.9699 28.3406 29.8397 28.2492C29.7064 28.1557 29.5177 28.1164 29.324 28.1501C28.9194 28.2048 28.5792 28.598 28.4204 29.0199C28.2395 29.4453 28.1491 29.9606 28.2007 30.4912C28.3049 31.5377 28.915 32.483 29.6907 32.65C30.0673 32.721 30.3686 32.5902 30.5205 32.4569C30.6744 32.318 30.6941 32.2001 30.6754 32.1914Z" fill="#FF9A6C"/>
<path d="M31.2724 18.2811C31.9734 18.7192 32.7137 19.1707 33.5411 19.2228C34.3689 19.2754 35.2961 18.7744 35.4067 17.9619C35.4563 17.5972 35.3521 17.1794 35.5837 16.8909C35.86 16.5467 36.3943 16.633 36.8377 16.6641C38.3755 16.7719 39.9073 15.6468 40.2465 14.1601C40.6575 14.725 41.5689 14.6683 42.147 14.2714C42.7251 13.8741 43.0845 13.2444 43.5289 12.7046C43.9733 12.1648 44.6065 11.6739 45.3065 11.7475C45.6983 11.7888 46.0714 12.0054 46.4618 11.9579C47.152 11.8731 47.4617 11.0606 47.5428 10.3778C47.6234 9.69491 47.677 8.90024 48.2502 8.5106C48.7811 8.15003 49.4925 8.32313 50.1335 8.39414C50.7741 8.4651 51.5911 8.28892 51.7327 7.66739C51.8069 7.34153 51.655 7.00652 51.4638 6.73075C50.5981 5.48202 48.788 4.97593 47.3884 5.59237C46.8118 3.88862 45.1359 2.6052 43.3224 2.47901C41.5089 2.35288 39.6674 3.39166 38.8548 4.9989C37.7054 4.03826 36.0718 3.67462 34.6167 4.05615C33.1616 4.43714 31.9242 5.5525 31.4071 6.94983C30.1132 6.66077 28.6688 7.20112 27.8931 8.26439C27.1172 9.3277 27.0552 10.8532 27.7422 11.9747C26.8133 12.5422 26.0348 13.5008 26.0533 14.5799C26.0717 15.6585 27.1726 16.6968 28.2156 16.3766C27.8194 17.2305 28.2058 18.3587 29.0459 18.7989C29.8851 19.2397 31.0472 18.9245 31.5418 18.1222" fill="#263238"/>
<path d="M27.8285 16.3781C27.8098 16.3648 27.7464 16.8194 28.1923 17.3679C28.4125 17.6278 28.7827 17.8939 29.2704 17.9542C29.7482 18.0165 30.3263 17.8812 30.7584 17.4705L30.5343 17.4455C30.811 17.8852 31.1714 18.3301 31.6325 18.7085C31.9294 18.9496 32.2568 19.1523 32.6142 19.2657C32.9647 19.3903 33.3585 19.3893 33.6785 19.327C34.3441 19.231 34.9144 18.8566 35.1695 18.4123C35.4355 17.9771 35.5102 17.5788 35.5579 17.3132C35.6017 17.0446 35.6017 16.8939 35.5835 16.8909C35.5604 16.8868 35.521 17.0313 35.4424 17.2867C35.3627 17.539 35.2531 17.9164 34.9906 18.2943C34.5172 19.0588 32.9028 19.4966 31.8252 18.4766C31.397 18.1258 31.0485 17.7049 30.7786 17.2933L30.6803 17.1432L30.5544 17.2678C30.2049 17.6145 29.7103 17.7499 29.2969 17.7116C28.8781 17.6774 28.5438 17.4675 28.3255 17.2474C27.8855 16.7887 27.8732 16.3633 27.8285 16.3781Z" fill="#455A64"/>
<path d="M42.62 32.4738C42.706 32.4712 42.7193 31.9212 43.1519 31.4519C43.5673 30.9682 44.1179 30.885 44.1095 30.8007C44.1085 30.7639 43.9596 30.7251 43.7212 30.7741C43.4847 30.8206 43.1706 30.9769 42.9238 31.2537C42.677 31.531 42.561 31.8589 42.5438 32.0964C42.5256 32.3364 42.5826 32.4774 42.62 32.4738Z" fill="#FF9A6C"/>
<path d="M42.1021 31.0505C42.1779 31.0923 42.3629 30.9044 42.6389 30.7716C42.9104 30.6306 43.1736 30.5943 43.184 30.5101C43.2032 30.4309 42.8652 30.3211 42.5016 30.504C42.1371 30.6848 42.0264 31.0182 42.1021 31.0505Z" fill="#FF9A6C"/>
<path d="M51.7519 1.73746C51.7755 1.68693 52.3207 2.02706 52.7469 2.89065C52.9593 3.31508 53.1638 3.85641 53.2179 4.49686C53.2877 5.13422 53.122 5.88344 52.6742 6.49632C52.2175 7.10407 51.5976 7.4917 51.0298 7.75726C50.4571 8.0259 49.9217 8.2011 49.4739 8.34102C48.5742 8.61068 48.0183 8.76081 47.9996 8.71487C47.9794 8.66581 48.5128 8.42527 49.3859 8.09383C49.819 7.92323 50.3366 7.72511 50.8754 7.45134C51.4127 7.18118 51.9712 6.8109 52.3709 6.27875C52.7622 5.73791 52.918 5.10103 52.8743 4.51982C52.8438 3.93558 52.6786 3.41468 52.507 2.99943C52.161 2.15271 51.7205 1.77529 51.7519 1.73746Z" fill="#E0E0E0"/>
<path d="M55.0974 5.1628C55.1402 5.16485 55.1741 5.49326 55.032 6.00092C54.8939 6.50599 54.539 7.17248 53.9387 7.72305C53.336 8.27152 52.6355 8.56879 52.1154 8.66477C51.5923 8.76437 51.2634 8.70563 51.2644 8.66326C51.2624 8.60403 51.5781 8.56723 52.0465 8.41148C52.5155 8.25876 53.1315 7.95235 53.6841 7.4503C54.2337 6.94572 54.5906 6.363 54.7818 5.91305C54.976 5.46364 55.0374 5.15566 55.0974 5.1628Z" fill="#E0E0E0"/>
</svg>
