<svg width="309" height="256" viewBox="0 0 309 256" fill="none" xmlns="http://www.w3.org/2000/svg">
<path d="M194.49 77.558C196.871 76.142 199.406 75.068 202.021 74.337L203.572 67L216.167 66.783L217.979 74.061C220.619 74.701 223.191 75.687 225.621 77.02L231.986 72.913L241.048 81.525L237.103 87.929C238.543 90.273 239.634 92.769 240.376 95.343L247.83 96.87L248.051 109.266L240.656 111.05C240.006 113.647 239.004 116.178 237.65 118.571L241.822 124.837L233.073 133.756L226.565 129.872C224.183 131.289 221.648 132.362 219.032 133.093L217.48 140.43L204.885 140.647L203.072 133.368C200.433 132.728 197.861 131.742 195.43 130.409L189.065 134.516L180.003 125.904L183.948 119.5C182.509 117.155 181.417 114.66 180.675 112.086L173.221 110.559L173 98.163L180.395 96.378C181.045 93.781 182.047 91.25 183.401 88.857L179.229 82.592L187.978 73.672L194.49 77.558ZM202.502 92.906C195.561 98.405 195.748 108.751 202.884 114.004C207.759 117.593 214.6 117.475 219.346 113.717C226.29 108.218 226.104 97.867 218.964 92.615C214.088 89.027 207.247 89.146 202.502 92.906Z" fill="#EBEBEB"/>
<path d="M270.814 70.811C271.877 70.179 273.009 69.699 274.177 69.373L274.87 66.097L280.494 66L281.303 69.25C282.482 69.536 283.63 69.976 284.715 70.571L287.557 68.737L291.604 72.583L289.842 75.443C290.485 76.49 290.972 77.604 291.303 78.754L294.631 79.436L294.73 84.971L291.428 85.768C291.138 86.928 290.69 88.058 290.086 89.126L291.949 91.924L288.043 95.907L285.137 94.173C284.074 94.805 282.941 95.285 281.774 95.611L281.081 98.887L275.457 98.984L274.647 95.734C273.469 95.448 272.32 95.008 271.235 94.413L268.393 96.247L264.347 92.402L266.109 89.542C265.466 88.495 264.979 87.381 264.648 86.232L261.32 85.55L261.221 80.015L264.523 79.218C264.813 78.058 265.261 76.928 265.865 75.86L264.002 73.062L267.909 69.079L270.814 70.811ZM274.392 77.664C271.293 80.119 271.376 84.739 274.563 87.085C276.74 88.687 279.794 88.635 281.913 86.957C285.014 84.502 284.931 79.88 281.743 77.534C279.565 75.932 276.511 75.985 274.392 77.664Z" fill="#EBEBEB"/>
<path d="M190.738 165.721C191.801 165.089 192.933 164.609 194.101 164.283L194.794 161.007L200.418 160.91L201.227 164.16C202.406 164.446 203.554 164.886 204.639 165.481L207.481 163.647L211.527 167.492L209.765 170.352C210.408 171.399 210.895 172.513 211.226 173.663L214.554 174.345L214.653 179.88L211.351 180.677C211.061 181.837 210.614 182.967 210.009 184.035L211.872 186.833L207.966 190.816L205.06 189.082C203.997 189.715 202.864 190.194 201.697 190.52L201.004 193.796L195.38 193.893L194.571 190.643C193.392 190.357 192.244 189.917 191.159 189.322L188.317 191.156L184.27 187.311L186.032 184.451C185.389 183.404 184.902 182.29 184.57 181.141L181.242 180.459L181.143 174.924L184.445 174.127C184.735 172.967 185.183 171.837 185.787 170.769L183.924 167.971L187.831 163.988L190.738 165.721ZM194.316 172.574C191.217 175.03 191.3 179.649 194.487 181.995C196.664 183.597 199.718 183.545 201.838 181.867C204.938 179.412 204.856 174.79 201.667 172.444C199.489 170.842 196.435 170.895 194.316 172.574Z" fill="#F5F5F5"/>
<path d="M6.88346 0.21012C3.55579 0.21012 0.854637 2.90948 0.844212 6.24527L0.649252 61.3663L0.818124 83.5986C0.843144 86.924 3.54013 89.6066 6.85737 89.6066H49.3164L62.6397 102.937V89.6066H65.493C68.8488 89.6066 71.5614 86.8634 71.5322 83.4994L70.7952 6.21078C70.766 2.88753 68.0711 0.209076 64.7559 0.209076L6.88346 0.21012Z" fill="white"/>
<path d="M6.88342 0.210113C6.88342 0.210113 7.15445 0.22788 7.68509 0.237285C8.23136 0.243555 9.01634 0.251913 10.0401 0.263409C12.1272 0.274904 15.1786 0.291626 19.1078 0.313572C27.0037 0.333427 38.4149 0.36269 52.5492 0.398222C56.0854 0.403447 59.7925 0.409715 63.656 0.415986C64.6318 0.414941 65.5826 0.385679 66.4938 0.685607C67.3955 0.982401 68.2462 1.4882 68.9196 2.18839C69.5879 2.88961 70.1112 3.75387 70.3593 4.71322C70.6418 5.65794 70.5616 6.68941 70.5856 7.74281C70.6575 16.098 70.7336 25.0352 70.8149 34.4532C70.8993 43.8722 70.988 53.7709 71.0797 64.0489C71.1266 69.1885 71.1756 74.4221 71.2246 79.7382C71.2319 81.0623 71.2611 82.4125 71.2496 83.7303C71.2329 85.0136 70.7263 86.2708 69.9121 87.2626C69.0886 88.2554 67.9188 88.9461 66.6532 89.2178C66.0183 89.3485 65.3699 89.3349 64.6798 89.3359H62.6375H62.3665V89.6076C62.3665 91.8033 62.3665 94.1682 62.3665 96.5436C62.3665 98.686 62.3665 100.819 62.3665 102.938L62.8294 102.746C58.2788 98.1948 53.8148 93.7293 49.5041 89.4175L49.4259 89.3391H49.3154C39.495 89.3433 29.9654 89.3474 20.8071 89.3506C16.2284 89.3537 11.7414 89.3568 7.35772 89.3589C5.20703 89.5136 3.12725 88.4696 2.00343 86.7254C1.44152 85.8632 1.11211 84.86 1.07145 83.8432C1.03705 82.8054 1.04641 81.7395 1.03181 80.6997C0.981771 72.3456 0.844184 64.4439 0.873374 57.0774C0.887969 49.7109 0.900441 42.8784 0.912951 36.6593C0.922334 24.2337 0.930709 14.2639 0.935921 7.38227C0.940092 6.52115 0.900467 5.71438 1.06935 4.98284C1.22156 4.24817 1.50928 3.59711 1.85957 3.04951C2.55909 1.94594 3.47438 1.2583 4.26876 0.870583C5.89403 0.101428 6.90219 0.275951 6.88342 0.210113C6.88342 0.210113 6.64882 0.19757 6.19012 0.227877C5.73454 0.278039 5.04548 0.391949 4.22607 0.779662C3.41187 1.15901 2.46632 1.84666 1.73657 2.96904C1.37169 3.525 1.06829 4.19174 0.904616 4.94522C0.72322 5.70079 0.756589 6.52847 0.744079 7.38018C0.700294 14.2618 0.637742 24.2316 0.559554 36.6572C0.527236 42.8763 0.49282 49.7098 0.454247 57.0764C0.405249 64.444 0.525151 72.3466 0.559554 80.7018C0.572064 81.7499 0.560617 82.7877 0.593977 83.8662C0.637762 84.9666 0.991136 86.0566 1.59996 86.9908C2.79258 88.8824 5.11114 90.0204 7.35982 89.8553C11.7435 89.8585 16.2294 89.8616 20.8092 89.8647C29.9675 89.8689 39.4971 89.872 49.3175 89.8762L49.1277 89.7978C53.4364 94.1108 57.9004 98.5783 62.4489 103.131L62.9117 103.594V102.937C62.9117 100.818 62.9117 98.6849 62.9117 96.5426C62.9117 94.1672 62.9117 91.8022 62.9117 89.6066L62.6406 89.8783H64.6829C65.3491 89.8773 66.0673 89.8929 66.7648 89.7487C68.1503 89.453 69.4294 88.6953 70.3291 87.6095C71.2204 86.5258 71.7719 85.1474 71.7917 83.7449C71.8032 82.3853 71.773 81.0654 71.7657 79.7319C71.7136 74.4158 71.6615 69.1812 71.6114 64.0427C71.5072 53.7646 71.407 43.8659 71.3122 34.4469C71.2131 25.03 71.1193 16.0927 71.0318 7.73759C71.0046 6.71031 71.0891 5.63704 70.7826 4.59618C70.5126 3.56576 69.9486 2.63776 69.2293 1.88846C68.5047 1.13916 67.5915 0.59887 66.623 0.28431C65.6441 -0.0365193 64.6079 -0.000988677 63.6602 0.00319151C59.7957 0.0094618 56.0896 0.0146892 52.5534 0.0209595C38.4191 0.0564911 27.0079 0.0857532 19.112 0.106654C15.1828 0.1286 12.1314 0.145317 10.0443 0.156813C9.01949 0.168308 8.23445 0.17667 7.68922 0.182941C7.15442 0.192346 6.88342 0.210113 6.88342 0.210113Z" fill="#263238"/>
<path d="M20.6331 79.3618H11.53L11.53 49.8057H20.6331L20.6331 79.3618Z" fill="#2563EB"/>
<path d="M60.525 79.362H51.4218V63.7532H60.525V79.362Z" fill="#2563EB"/>
<path d="M34.7725 79.362H25.6694L25.6694 44.2463H34.7725V79.362Z" fill="#2563EB"/>
<path d="M48.4199 79.3623H39.3167L39.3167 29.5324H48.4199L48.4199 79.3623Z" fill="#2563EB"/>
<path d="M5.3134 79.362C5.3134 79.362 5.32279 79.2418 5.32696 79.0203C5.33009 78.782 5.3353 78.457 5.34051 78.0358C5.34677 77.1538 5.35619 75.882 5.3687 74.2298C5.38329 70.8929 5.40516 66.0376 5.43226 59.8802C5.46145 47.5612 5.50318 30.0358 5.55322 9.13167L5.3134 9.37203C23.2153 9.38144 43.9799 9.39189 66.0163 9.40339H66.0226L65.7515 9.13167C65.7671 35.0363 65.7818 59.1821 65.7943 79.362L66.0236 79.1321C47.7829 79.1812 32.6353 79.222 22.0289 79.2502C16.7288 79.2763 12.5641 79.2962 9.70447 79.3097C8.29083 79.3212 7.20452 79.3296 6.44766 79.3359C5.70748 79.3453 5.3134 79.362 5.3134 79.362C5.3134 79.362 5.67415 79.3787 6.39765 79.3871C7.14408 79.3933 8.21679 79.4017 9.61061 79.4132C12.4587 79.4268 16.6058 79.4466 21.8829 79.4728C32.5248 79.501 47.7214 79.5417 66.0226 79.5909L66.252 79.5919V79.362C66.2645 59.1821 66.279 35.0363 66.2946 9.13167V8.85892H66.0226H66.0163C43.9788 8.87041 23.2153 8.88086 5.3134 8.89027H5.07257V9.13063C5.12261 30.0974 5.16434 47.6772 5.19353 60.0338C5.22063 66.1683 5.2425 71.0058 5.25709 74.329C5.2696 75.9604 5.27903 77.2176 5.28528 78.0881C5.29154 78.4977 5.29571 78.8144 5.29883 79.0464C5.30405 79.2606 5.30819 79.3662 5.3134 79.362Z" fill="#263238"/>
<path d="M5.31339 57.74C5.31339 57.8905 18.9045 58.0117 35.667 58.0117C52.4346 58.0117 66.0226 57.8894 66.0226 57.74C66.0226 57.5905 52.4346 57.4683 35.667 57.4683C18.9045 57.4683 5.31339 57.5895 5.31339 57.74Z" fill="#263238"/>
<path d="M5.31338 25.9245C5.31338 26.075 18.9045 26.1973 35.6669 26.1973C52.4346 26.1973 66.0236 26.075 66.0236 25.9245C66.0236 25.7741 52.4356 25.6528 35.6669 25.6528C18.9045 25.6528 5.31338 25.7751 5.31338 25.9245Z" fill="#263238"/>
<path d="M272.359 199.673C276.64 199.203 281.442 198.863 281.442 198.863L285.692 198.334C285.636 198.614 285.538 198.891 285.434 199.157C285.236 199.662 285.022 200.192 285.095 200.732C285.235 201.753 286.335 202.366 287.353 202.553C289.484 202.945 291.792 202.113 293.17 200.457C294.493 198.865 294.894 196.575 294.23 194.611C294.449 194.11 294.596 193.545 294.613 192.887C294.722 188.858 289.952 185.473 289.952 185.473L291.413 185.08C291.413 185.08 296.053 185.715 298.491 193.133C298.854 194.24 299.585 195.223 300.597 195.808C301.217 196.167 301.937 196.373 302.653 196.116C304.438 195.477 304.442 194.048 302.984 189.397C301.526 184.745 298.578 180.736 295.489 179.653C292.401 178.57 291.124 178.346 291.124 178.346C291.124 178.346 304.098 174.029 304.908 173.722C307.251 172.836 308.813 171.048 308.366 169.428C308.08 168.389 306.95 167.29 304.191 168.237C301.803 169.056 276.247 174.345 276.247 174.345L265.081 177.348L256.274 181.324L262.449 196.792L263.462 197.473C266.079 199.234 269.232 200.017 272.359 199.673Z" fill="#FFBF9D"/>
<path d="M266.711 179.168C266.812 180.648 268.289 181.696 269.745 182.016C271.2 182.337 272.719 182.157 274.192 182.371C278.6 183.015 282.004 187.05 286.437 187.482C287.055 187.543 287.835 187.424 288.023 186.836C288.196 186.29 287.726 185.766 287.297 185.383C283.635 182.098 279.973 178.815 276.31 175.531" fill="#FFBF9D"/>
<path d="M276.309 175.531C276.348 175.488 276.808 175.827 277.606 176.476C278.405 177.125 279.542 178.084 280.935 179.283C282.376 180.539 284.013 181.967 285.8 183.525C286.257 183.928 286.723 184.34 287.198 184.76C287.611 185.185 288.34 185.559 288.468 186.568C288.508 187.075 288.117 187.569 287.703 187.726C287.295 187.904 286.898 187.927 286.511 187.907C285.78 187.829 285.075 187.697 284.381 187.462C281.602 186.527 279.468 184.826 277.32 183.802C276.255 183.273 275.197 182.886 274.173 182.721C273.149 182.555 272.142 182.576 271.211 182.498C269.325 182.431 267.801 181.607 267.188 180.715C266.538 179.815 266.683 179.143 266.711 179.167C266.793 179.147 266.783 179.77 267.441 180.509C268.09 181.255 269.433 181.908 271.243 181.906C272.142 181.946 273.156 181.886 274.273 182.034C275.391 182.181 276.535 182.575 277.655 183.106C279.905 184.142 282.065 185.809 284.638 186.663C285.273 186.882 285.936 187.002 286.561 187.074C287.172 187.124 287.699 186.909 287.645 186.585C287.642 186.223 287.138 185.769 286.663 185.352C286.194 184.925 285.734 184.506 285.284 184.095C283.541 182.488 281.945 181.016 280.54 179.72C279.197 178.466 278.12 177.44 277.389 176.716C276.656 175.994 276.271 175.574 276.309 175.531Z" fill="#FF9A6C"/>
<path d="M289.823 185.323C289.837 185.433 290.92 184.869 292.609 185.319C293.434 185.543 294.323 186.108 295.023 187.006C295.738 187.896 296.272 189.057 296.744 190.321C297.222 191.584 297.677 192.829 298.335 193.855C298.991 194.874 299.786 195.679 300.638 196.102C301.495 196.545 302.356 196.416 302.804 196.176C303.267 195.937 303.443 195.706 303.429 195.69C303.399 195.646 303.175 195.819 302.723 195.982C302.278 196.142 301.553 196.194 300.815 195.764C300.08 195.351 299.355 194.57 298.761 193.595C298.163 192.615 297.734 191.407 297.252 190.131C296.775 188.854 296.202 187.632 295.411 186.692C294.636 185.741 293.615 185.139 292.703 184.948C291.789 184.741 291.026 184.852 290.538 184.99C290.046 185.134 289.81 185.295 289.823 185.323Z" fill="#FF9A6C"/>
<path d="M305.805 173.369C305.773 173.298 304.796 173.645 303.219 174.21C301.462 174.832 299.367 175.573 297.052 176.392C294.724 177.177 292.618 177.887 290.851 178.481C289.261 179.009 288.278 179.339 288.298 179.415C288.317 179.485 289.339 179.283 290.963 178.848C292.587 178.416 294.808 177.74 297.231 176.903C299.653 176.066 301.816 175.227 303.36 174.567C304.907 173.907 305.834 173.435 305.805 173.369Z" fill="#FF9A6C"/>
<path d="M287.925 189.232C287.897 189.262 288.116 189.481 288.478 189.882C288.816 190.271 289.376 190.936 289.266 191.833C289.215 192.267 288.911 192.646 288.425 192.868C287.951 193.103 287.356 193.188 286.711 193.318C286.082 193.443 285.301 193.658 284.793 194.316C284.309 194.963 284.202 195.846 284.456 196.632C284.715 197.438 285.355 198.03 286.038 198.352C286.731 198.673 287.463 198.8 288.17 198.691C289.499 198.442 290.576 197.961 291.462 197.509C292.339 197.042 292.99 196.546 293.363 196.125C293.735 195.701 293.832 195.393 293.809 195.385C293.765 195.361 293.61 195.62 293.213 195.976C292.815 196.33 292.16 196.757 291.29 197.166C290.421 197.56 289.323 197.997 288.097 198.197C286.954 198.35 285.403 197.758 284.975 196.468C284.767 195.836 284.862 195.12 285.221 194.635C285.582 194.147 286.207 193.937 286.821 193.804C287.437 193.665 288.079 193.562 288.634 193.266C289.194 193.003 289.624 192.435 289.649 191.879C289.715 190.758 289.012 190.089 288.63 189.734C288.207 189.367 287.948 189.208 287.925 189.232Z" fill="#FF9A6C"/>
<path d="M286.356 198.006C286.352 197.98 286.052 198.003 285.65 198.327C285.265 198.64 284.788 199.321 284.845 200.279C284.903 201.216 285.579 202.276 286.706 202.806C287.826 203.342 289.245 203.347 290.55 202.904C291.862 202.457 292.937 201.6 293.618 200.622C294.311 199.642 294.596 198.571 294.665 197.686C294.734 196.794 294.594 196.075 294.449 195.605C294.299 195.132 294.155 194.897 294.126 194.909C294.022 194.931 294.497 195.962 294.283 197.645C294.17 198.471 293.866 199.45 293.21 200.33C292.566 201.212 291.57 201.985 290.372 202.393C289.179 202.8 287.894 202.8 286.915 202.356C285.933 201.923 285.319 201.032 285.226 200.244C285.129 199.445 285.488 198.807 285.795 198.482C286.112 198.143 286.375 198.049 286.356 198.006Z" fill="#FF9A6C"/>
<path d="M274.607 192.072C274.655 192.06 274.587 191.563 274.16 190.845C273.742 190.139 272.899 189.216 271.592 188.716L271.617 189.192C272.14 188.951 272.693 188.658 273.241 188.317C276.31 186.431 277.839 183.862 277.71 183.813C277.584 183.706 275.909 186.048 272.952 187.859C272.422 188.188 271.891 188.477 271.391 188.725L270.838 188.998L271.416 189.202C272.6 189.62 273.424 190.411 273.89 191.026C274.364 191.65 274.54 192.098 274.607 192.072Z" fill="#FF9A6C"/>
<path d="M296.706 184.794C296.603 184.692 295.85 185.507 295.759 186.807C295.657 188.106 296.282 189.03 296.398 188.947C296.541 188.881 296.205 187.98 296.3 186.85C296.372 185.718 296.837 184.881 296.706 184.794Z" fill="#FF9A6C"/>
<path d="M159.613 160.022C159.613 160.022 187.263 207.35 196.472 211.962C205.682 216.575 238.972 209.839 246.713 208.074C255.497 206.071 266.71 202.555 266.71 202.555L263.43 176.27L256.187 176.427C256.187 176.427 215.133 180.591 212.759 178.714C210.385 176.836 194.574 146.521 194.574 146.521C194.574 146.521 184.65 126.427 181.094 121.831C175.868 115.078 171.519 115.078 171.519 115.078L159.613 160.022Z" fill="#2563EB"/>
<path d="M192.832 256C192.101 218.439 188.74 142.112 188.74 142.112L171.519 115.078C171.519 115.078 166.203 113.512 159.613 112.784C153.024 112.055 151.903 111.424 151.903 111.424L147.107 103.852L107.595 101.541L101.556 112.767C101.556 112.767 76.8147 125.688 73.5193 127.507C70.224 129.327 91.7006 218.375 91.7006 218.375L87.5577 255.999L192.832 256Z" fill="#2563EB"/>
<path d="M158.456 256C158.304 249.41 157.961 241.569 157.505 232.867C156.986 224.168 156.299 214.611 155.315 204.602C154.288 194.594 153.073 185.086 151.729 176.472C150.308 167.871 148.889 160.143 147.365 153.723C146.998 152.117 146.648 150.586 146.316 149.136C145.937 147.701 145.579 146.345 145.244 145.076C144.584 142.538 144.014 140.351 143.446 138.593C142.932 136.866 142.526 135.502 142.232 134.515C142.111 134.082 142.013 133.73 141.935 133.448C141.871 133.207 141.845 133.08 141.857 133.077C141.87 133.074 141.921 133.191 142.009 133.425C142.107 133.701 142.228 134.045 142.379 134.47C142.706 135.449 143.159 136.8 143.731 138.512C144.345 140.26 144.956 142.438 145.656 144.971C146.011 146.239 146.388 147.592 146.789 149.025C147.137 150.474 147.506 152.004 147.892 153.609C149.487 160.027 150.963 167.759 152.424 176.369C153.809 184.992 155.047 194.513 156.076 204.533C157.061 214.554 157.729 224.124 158.209 232.833C158.626 241.546 158.913 249.395 158.997 255.992" fill="#263238"/>
<path d="M188.74 142.113C188.793 142.111 188.875 143.024 188.981 144.677C189.088 146.331 189.204 148.725 189.322 151.684C189.561 157.602 189.763 165.781 189.999 174.81C190.235 183.843 190.538 192.013 190.828 197.924C190.971 200.785 191.089 203.147 191.178 204.924C191.259 206.578 191.278 207.495 191.226 207.499C191.174 207.504 191.054 206.594 190.882 204.946C190.705 203.298 190.504 200.909 190.29 197.955C189.862 192.045 189.473 183.867 189.237 174.83C189.001 165.797 188.885 157.618 188.784 151.699C188.743 148.834 188.71 146.468 188.686 144.688C188.67 143.031 188.688 142.115 188.74 142.113Z" fill="#263238"/>
<g opacity="0.3">
<path d="M187.364 206.509C187.073 204.158 185.194 202.235 183.027 201.252C180.86 200.269 178.425 200.07 176.046 199.954C145.202 198.462 113.928 209.247 90.6403 229.407L89.43 237.803C96.9444 240.994 105.667 238.806 113.119 235.473C120.571 232.141 127.652 227.662 135.674 226.116C142.626 224.776 150.118 225.675 156.535 222.698C160.583 220.822 163.908 217.51 168.155 216.137C171.946 214.912 176.087 215.36 179.972 214.47C183.856 213.58 187.851 210.442 187.364 206.509Z" fill="black"/>
</g>
<path d="M73.5193 127.508C73.5193 127.508 61.2887 133.163 57.8255 148.611C55.7488 157.876 49.7096 183.366 49.7096 183.366C49.7096 183.366 43.1543 213.777 44.0905 219.672C45.0266 225.568 46.9991 238.728 59.8 240.28C72.6009 241.832 117.135 225.568 117.135 225.568L129.309 220.603L124.627 198.261L103.712 203.537L83.2354 205.165L86.0033 186.591L90.5445 174.655C90.5445 174.655 90.2891 161.644 85.2944 150.783C80.3008 139.923 73.5193 127.508 73.5193 127.508Z" fill="#2563EB"/>
<path d="M149.861 187.616L166.023 154.878C167.121 152.654 169.395 151.245 171.887 151.245H212.495C214.002 151.245 214.965 152.843 214.253 154.164L186.765 205.177C185.995 206.607 184.496 207.499 182.864 207.499H140.747L149.861 187.616Z" fill="#455A64"/>
<path d="M213.984 154.402C213.984 154.428 213.705 154.45 213.172 154.467C212.555 154.478 211.786 154.49 210.846 154.506C208.718 154.507 205.823 154.507 202.294 154.508C194.98 154.445 185.062 154.362 174.102 154.268C172.76 154.322 171.438 154.537 170.353 155.17C169.262 155.786 168.483 156.824 167.862 157.911C166.682 160.148 165.688 162.481 164.66 164.61C162.643 168.883 160.821 172.746 159.273 176.026C157.748 179.19 156.498 181.787 155.58 183.694C155.16 184.53 154.817 185.215 154.541 185.763C154.296 186.233 154.155 186.474 154.131 186.463C154.107 186.452 154.201 186.189 154.401 185.699C154.642 185.134 154.942 184.43 155.31 183.57C156.173 181.636 157.349 179.007 158.782 175.8C160.287 172.501 162.059 168.615 164.02 164.316C165.042 162.159 165.985 159.889 167.209 157.546C167.855 156.404 168.708 155.238 169.97 154.518C171.219 153.789 172.673 153.569 174.068 153.51C185.128 153.583 195.07 153.82 202.3 153.971C205.829 154.069 208.723 154.151 210.849 154.209C211.789 154.251 212.557 154.286 213.173 154.313C213.705 154.346 213.984 154.375 213.984 154.402Z" fill="#263238"/>
<path d="M188.962 161.574C189.946 162.082 189.984 162.889 189.571 163.599C189.158 164.309 188.217 164.627 187.421 164.409C186.895 164.265 186.405 163.869 186.302 163.336C186.198 162.803 186.69 161.649 187.542 161.474C187.542 161.474 188.472 161.322 188.962 161.574Z" fill="white"/>
<path d="M125.04 200.236L127.841 197.373C127.841 197.373 131.953 191.428 133.635 189.569C135.318 187.711 145.41 181.208 145.41 181.208C145.41 181.208 150.274 174.656 151.021 174.656C151.769 174.656 154.135 175.076 153.497 178.122C152.882 181.055 151.765 184.998 150.83 186.912L172.386 187.381C173.743 187.41 175.059 187.99 175.898 189.052C176.461 189.766 176.697 190.553 175.688 191.054C173.445 192.17 164.287 194.399 164.287 194.399L168.377 193.351C168.377 193.351 169.253 197.24 166.667 199.086C164.094 200.922 163.913 201.273 163.913 201.273C163.913 201.273 163.787 204.952 162.665 206.438C161.543 207.924 149.399 214.135 149.399 214.135C149.399 214.135 141.639 216.416 137.714 216.23C133.789 216.044 129.751 218.256 129.309 218.375C128.867 218.495 125.04 200.236 125.04 200.236Z" fill="#FFBF9D"/>
<path d="M152.904 187.006C152.898 187.22 150.182 187.329 146.849 187.68C143.515 188.047 140.763 188.212 140.745 187.979C140.733 187.794 143.405 187.295 146.773 186.925C150.151 186.57 152.913 186.801 152.904 187.006Z" fill="#FF9A6C"/>
<path d="M150.026 196.516C149.959 196.287 153.891 195.219 158.832 194.656C161.296 194.344 163.528 194.124 165.139 193.946C166.75 193.776 167.743 193.642 167.769 193.748C167.793 193.845 166.826 194.168 165.22 194.476C163.617 194.792 161.387 195.098 158.929 195.407C154.003 195.97 150.078 196.69 150.026 196.516Z" fill="#FF9A6C"/>
<path d="M150.026 203.528C150.027 203.305 153.168 203.209 156.962 202.552C160.761 201.916 163.755 200.966 163.83 201.176C163.907 201.356 160.972 202.647 157.091 203.298C153.216 203.969 150.015 203.723 150.026 203.528Z" fill="#FF9A6C"/>
<path d="M151.329 211.385C151.121 211.419 150.807 210.577 150.63 209.504C150.452 208.43 150.476 207.534 150.683 207.499C150.891 207.465 151.204 208.307 151.382 209.38C151.56 210.453 151.536 211.35 151.329 211.385Z" fill="#FF9A6C"/>
<path d="M149.398 201.977C149.182 201.961 149.069 201.264 148.698 200.529C148.346 199.785 147.866 199.265 147.985 199.087C148.082 198.907 148.925 199.252 149.384 200.198C149.848 201.141 149.6 202.013 149.398 201.977Z" fill="#FF9A6C"/>
<path d="M146.937 192.56C146.724 192.583 146.503 192.134 146.242 191.626C145.99 191.113 145.762 190.669 145.908 190.513C146.043 190.358 146.6 190.64 146.924 191.287C147.25 191.933 147.143 192.545 146.937 192.56Z" fill="#FF9A6C"/>
<path d="M141.856 133.076C141.828 133.114 141.412 132.842 140.625 132.368C139.732 131.835 138.599 131.159 137.226 130.339C135.765 129.476 133.997 128.443 132.011 127.221C130.039 125.975 127.79 124.647 125.617 122.758L126.174 122.662C124.658 125.595 123.726 129.221 123.883 133.015L123.884 133.061L123.907 133.918L123.255 133.365C116.919 127.988 111.234 123.05 107.283 119.298C105.303 117.427 103.738 115.874 102.691 114.769C101.639 113.668 101.089 113.028 101.125 112.995C101.164 112.956 101.786 113.525 102.899 114.56C104.118 115.676 105.718 117.139 107.649 118.907C111.684 122.55 117.413 127.413 123.751 132.791L123.123 133.095L123.122 133.048C122.959 129.112 123.945 125.359 125.544 122.339L125.757 121.937L126.102 122.243C128.157 124.069 130.399 125.45 132.331 126.721C134.264 127.948 135.985 129.041 137.455 129.974C138.886 130.887 140.007 131.636 140.755 132.179C141.505 132.714 141.877 133.049 141.856 133.076Z" fill="#263238"/>
<path d="M151.903 111.425C151.948 111.404 152.259 111.957 152.732 112.994C153.203 114.031 153.84 115.552 154.568 117.454C155.29 119.358 156.128 121.631 156.904 124.222C157.099 124.87 157.28 125.539 157.429 126.248C157.491 126.614 157.58 126.953 157.529 127.453C157.491 127.722 157.156 127.937 156.9 127.869C156.773 127.854 156.623 127.749 156.574 127.681L156.49 127.573L156.153 127.141C155.252 125.98 154.321 124.781 153.366 123.552C152.113 121.925 150.901 120.351 149.766 118.877L150.386 118.828C148.136 123.062 146.088 126.676 144.539 129.197C143.766 130.457 143.118 131.445 142.646 132.104C142.178 132.766 141.888 133.101 141.854 133.078C141.816 133.051 142.034 132.671 142.434 131.971C142.901 131.145 143.466 130.147 144.134 128.965C145.567 126.389 147.526 122.737 149.734 118.491L149.997 117.983L150.354 118.441C151.489 119.902 152.703 121.463 153.956 123.075C154.9 124.301 155.822 125.498 156.715 126.655L157.047 127.088L157.129 127.196L156.996 127.331L156.997 127.327C156.997 127.327 156.996 127.331 157.003 127.342L157.008 127.348L157.002 127.345L156.807 127.295C156.823 127.077 156.775 126.712 156.713 126.387C156.58 125.718 156.41 125.056 156.227 124.415C155.499 121.847 154.714 119.558 154.059 117.638C153.423 115.841 152.886 114.325 152.455 113.106C152.07 112.037 151.852 111.448 151.903 111.425Z" fill="#263238"/>
<path d="M57.2678 203.079C57.2448 202.995 58.6522 202.505 61.0197 202.084C63.382 201.66 66.7212 201.38 70.3887 201.668C74.0573 201.966 77.3078 202.773 79.5721 203.567C81.8417 204.358 83.1521 205.064 83.1156 205.144C83.0676 205.256 81.6895 204.728 79.4095 204.078C77.1327 203.425 73.928 202.716 70.3272 202.424C66.7275 202.141 63.4509 202.332 61.0979 202.615C58.7429 202.895 57.2969 203.197 57.2678 203.079Z" fill="#263238"/>
<path d="M70.1906 197.531C70.2062 197.345 73.7497 197.825 77.5527 199.923C81.3714 201.992 83.6774 204.709 83.5284 204.822C83.3668 204.991 80.8867 202.589 77.1858 200.587C73.5037 198.553 70.1343 197.757 70.1906 197.531Z" fill="#263238"/>
<path d="M87.6713 175.604C87.6859 175.607 87.6745 175.784 87.6369 176.129C87.589 176.519 87.5264 177.022 87.4492 177.651C87.2574 179.042 86.9885 180.992 86.6486 183.464C85.9085 188.552 84.8565 195.779 83.5722 204.599L83.5753 204.575C83.5638 204.759 83.5503 204.972 83.5367 205.185L83.2094 204.867C89.7209 204.257 97.131 203.562 105.151 202.809L105.096 202.819C111.152 201.284 117.716 199.622 124.534 197.894L124.919 197.797L125 198.184C125.371 199.952 125.768 201.841 126.167 203.748C127.376 209.533 128.553 215.168 129.674 220.528L129.736 220.828L129.451 220.945C113.376 227.55 98.9074 232.214 88.4501 234.99C83.2261 236.399 79.0185 237.403 76.1214 238.058C74.712 238.362 73.6017 238.602 72.7885 238.778C72.4403 238.845 72.1568 238.9 71.9233 238.946C71.7283 238.98 71.6272 238.992 71.624 238.981C71.6209 238.971 71.7179 238.936 71.9076 238.881C72.137 238.818 72.4164 238.742 72.7583 238.649C73.5641 238.444 74.664 238.164 76.0599 237.808C78.9372 237.075 83.1218 236.002 88.3208 234.532C98.7302 231.634 113.131 226.892 129.166 220.261L128.944 220.678C127.818 215.319 126.634 209.687 125.418 203.902C125.019 201.996 124.624 200.107 124.254 198.338L124.72 198.628C117.899 200.341 111.331 201.99 105.272 203.512L105.244 203.52L105.216 203.522C97.1915 204.231 89.7772 204.887 83.2636 205.462L82.9113 205.494L82.9363 205.145C82.9519 204.932 82.9665 204.719 82.98 204.536L82.9811 204.522L82.9832 204.512C84.3749 195.707 85.5143 188.492 86.3171 183.414C86.7257 180.952 87.0479 179.01 87.2772 177.625C87.3898 177.001 87.4795 176.502 87.5493 176.115C87.615 175.776 87.6557 175.602 87.6713 175.604Z" fill="#263238"/>
<path d="M89.1349 153.663C89.0119 153.678 88.7795 152.224 88.1863 149.934C87.5973 147.645 86.5715 144.535 84.9608 141.311C83.3397 138.09 81.459 135.405 79.9756 133.559C78.4942 131.71 77.4652 130.65 77.5517 130.562C77.6111 130.498 78.7788 131.427 80.3884 133.214C81.998 134.995 83.9912 137.689 85.6436 140.973C87.2866 144.259 88.2509 147.463 88.7128 149.813C89.1777 152.167 89.2215 153.653 89.1349 153.663Z" fill="#263238"/>
<g opacity="0.3">
<path d="M89.8814 161.234C88.1143 170.783 86.853 181.562 85.3267 191.152C85.6874 191.598 85.4925 193.032 85.8532 193.479C87.6275 188.569 89.9627 182.649 90.9656 177.529C91.9685 172.41 91.2554 166.269 89.8814 161.234Z" fill="black"/>
</g>
<g opacity="0.3">
<path d="M127.586 130.626C131.973 131.229 136.359 131.832 140.747 132.435C135.516 129.474 130.441 126.381 125.86 122.499C124.218 126.348 123.298 127.753 123.57 133.311C117.195 127.986 111.151 121.908 104.775 116.583C111.368 126.282 119.355 134.621 128.623 141.842C127.773 138.172 127.423 134.388 127.586 130.626Z" fill="black"/>
</g>
<path d="M121.231 16.3978C122.482 13.782 125.55 12.1549 128.432 12.5792C131.701 9.81503 136.957 9.73247 140.312 12.3921C142.797 10.8099 146.123 10.6323 148.764 11.9386C151.406 13.2459 153.268 15.9913 153.496 18.9153C156.429 18.3468 159.649 19.8245 161.116 22.412C162.582 25.0006 162.185 28.5036 160.176 30.7024C163.423 31.6283 165.659 35.2013 165.059 38.5047C164.46 41.8092 161.108 44.38 157.741 44.1198L122.795 24.36C120.646 22.4058 119.98 19.0135 121.231 16.3978Z" fill="#263238"/>
<path d="M162.198 82.0613C162.027 74.5275 160.407 59.043 158.776 45.0446C157.024 29.9949 143.938 18.8087 128.707 19.3365L127.194 19.3887C110.909 20.9009 103.102 35.495 105.074 51.6368L109.662 102.526L141.172 131.011L148.04 110.879L146.946 100.628C146.946 100.628 162.55 97.6607 162.198 82.0613Z" fill="#FFBF9D"/>
<path d="M147.076 100.601C147.076 100.601 137.081 101.547 126.315 95.3334C126.315 95.3334 131.542 106.387 147.143 104.441L147.076 100.601Z" fill="#FF9A6C"/>
<path d="M154.201 59.7715C154.284 60.9461 153.352 61.9838 152.12 62.0925C150.89 62.2001 149.823 61.339 149.741 60.1644C149.659 58.9898 150.59 57.951 151.82 57.8423C153.052 57.7336 154.118 58.5979 154.201 59.7715Z" fill="#263238"/>
<path d="M155.672 52.7905C155.405 53.0905 153.664 51.9002 151.254 51.99C148.845 52.0454 147.119 53.3392 146.848 53.0549C146.715 52.9295 146.979 52.3955 147.73 51.8113C148.469 51.2292 149.743 50.645 151.245 50.5991C152.746 50.5552 154.029 51.061 154.775 51.5981C155.535 52.1395 155.804 52.6557 155.672 52.7905Z" fill="#263238"/>
<path d="M132.949 60.7329C133.033 61.9075 132.101 62.9453 130.869 63.0539C129.638 63.1626 128.572 62.3015 128.49 61.1258C128.407 59.9522 129.339 58.9124 130.568 58.8037C131.801 58.694 132.867 59.5583 132.949 60.7329Z" fill="#263238"/>
<path d="M131.995 54.0571C131.728 54.3571 129.984 53.1678 127.576 53.2577C125.168 53.3131 123.442 54.6068 123.171 54.3226C123.037 54.1972 123.3 53.6631 124.054 53.079C124.793 52.4969 126.066 51.9127 127.568 51.8667C129.069 51.8228 130.351 52.3286 131.098 52.8658C131.856 53.4071 132.127 53.9234 131.995 54.0571Z" fill="#263238"/>
<path d="M141.365 71.5251C141.349 71.3893 142.839 71.0799 145.255 70.687C145.868 70.6034 146.447 70.4613 146.535 70.0401C146.664 69.5928 146.384 68.9428 146.061 68.2405C145.43 66.7806 144.77 65.2496 144.078 63.6444C141.317 57.0982 139.297 51.7079 139.563 51.5992C139.83 51.4916 142.283 56.7095 145.042 63.2546C145.709 64.8692 146.344 66.4086 146.95 67.881C147.208 68.5687 147.635 69.3431 147.354 70.2711C147.205 70.734 146.764 71.082 146.373 71.2012C145.982 71.3349 145.637 71.3537 145.332 71.3819C142.894 71.5972 141.379 71.6599 141.365 71.5251Z" fill="#263238"/>
<path d="M134.33 73.4281C134.721 73.3915 134.816 75.9916 137.12 77.7609C139.421 79.5354 142.2 79.1466 142.233 79.5103C142.275 79.6723 141.629 80.037 140.453 80.1102C139.3 80.1896 137.601 79.8792 136.19 78.7976C134.785 77.7128 134.144 76.2226 134.018 75.1587C133.88 74.0729 134.15 73.4187 134.33 73.4281Z" fill="#263238"/>
<path d="M132.288 44.6465C132.074 45.3059 129.656 45.0802 126.84 45.517C124.015 45.8974 121.763 46.7993 121.368 46.2287C121.191 45.9549 121.567 45.3278 122.467 44.6653C123.359 44.0038 124.796 43.3548 126.487 43.1082C128.178 42.8647 129.742 43.0789 130.786 43.4603C131.84 43.8397 132.38 44.3329 132.288 44.6465Z" fill="#263238"/>
<path d="M154.543 45.887C154.138 46.4461 152.458 45.9382 150.46 45.981C148.462 45.9538 146.785 46.4743 146.377 45.9183C146.196 45.6476 146.443 45.0938 147.164 44.5524C147.874 44.0142 149.077 43.5523 150.451 43.546C151.824 43.5419 153.03 43.9944 153.745 44.5273C154.47 45.0624 154.721 45.6152 154.543 45.887Z" fill="#263238"/>
<path d="M157.018 37.9467C157.018 37.9467 152.539 28.3249 147.723 26.2108C141.892 23.6504 139.643 29.9928 134.125 28.6635C128.607 27.3342 123.041 24.8773 117.604 29.2697C111.652 34.0779 114.629 37.2026 114.494 44.1344C113.945 72.2357 109.071 80.3464 107.142 67.1861C106.93 65.7439 102.85 64.7323 102.037 58.6386C100.983 50.7349 100.339 41.1174 101.922 35.4281C103.257 30.6324 105.862 27.2621 110.615 23.4791C118.117 17.5087 128.69 17.0207 135.899 17.4899C143.105 17.9591 157.244 25.6977 157.018 37.9467Z" fill="#263238"/>
<path d="M108.126 66.7262C107.943 64.3226 105.791 62.4948 103.387 62.8063C100.471 63.1846 97.2738 64.9476 97.6783 70.9503C98.3945 81.5983 109 78.6879 108.998 78.3806C108.996 78.1726 108.466 71.1792 108.126 66.7262Z" fill="#FFBF9D"/>
<path d="M106.398 74.5296C106.349 74.4983 106.22 74.6717 105.914 74.8369C105.616 74.9967 105.094 75.1284 104.521 74.9581C103.362 74.6205 102.289 72.8983 102.108 70.9817C102.016 70.015 102.158 69.0786 102.452 68.2917C102.726 67.4912 103.196 66.9133 103.759 66.7754C104.317 66.6071 104.743 66.9196 104.894 67.2101C105.058 67.4985 105.005 67.7149 105.062 67.7295C105.094 67.7546 105.28 67.5351 105.165 67.1014C105.105 66.8924 104.963 66.65 104.698 66.4629C104.427 66.2716 104.043 66.1912 103.649 66.2602C102.826 66.372 102.134 67.1767 101.811 68.0399C101.443 68.9104 101.259 69.9648 101.364 71.0506C101.576 73.192 102.817 75.1263 104.395 75.4681C105.161 75.6133 105.774 75.3458 106.083 75.073C106.396 74.7888 106.436 74.5474 106.398 74.5296Z" fill="#FF9A6C"/>
<path d="M107.612 46.0657C109.038 46.9623 110.544 47.8861 112.227 47.9927C113.911 48.1004 115.797 47.0752 116.022 45.4125C116.123 44.6663 115.911 43.8115 116.382 43.221C116.944 42.5167 118.031 42.6933 118.933 42.757C122.061 42.9775 125.177 40.6753 125.867 37.6332C126.703 38.789 128.557 38.673 129.733 37.861C130.909 37.0479 131.64 35.7594 132.544 34.6548C133.448 33.5502 134.736 32.5459 136.16 32.6964C136.957 32.781 137.716 33.2241 138.51 33.1269C139.914 32.9535 140.544 31.2908 140.709 29.8936C140.873 28.4963 140.982 26.8702 142.148 26.0729C143.228 25.3351 144.675 25.6893 145.979 25.8346C147.282 25.9798 148.944 25.6193 149.232 24.3475C149.383 23.6807 149.074 22.9952 148.685 22.4309C146.924 19.8757 143.242 18.8401 140.395 20.1015C139.222 16.6152 135.813 13.989 132.124 13.7308C128.435 13.4727 124.689 15.5983 123.036 18.8871C120.698 16.9214 117.375 16.1773 114.415 16.958C111.455 17.7376 108.938 20.0199 107.886 22.8792C105.254 22.2877 102.316 23.3934 100.738 25.5691C99.1597 27.7449 99.0336 30.8665 100.431 33.1614C98.5415 34.3225 96.9579 36.284 96.9955 38.4922C97.033 40.6993 99.2723 42.8239 101.394 42.1687C100.588 43.916 101.374 46.2245 103.083 47.1253C104.79 48.0272 107.154 47.3824 108.16 45.7406" fill="#263238"/>
<path d="M100.607 42.1718C100.569 42.1446 100.44 43.0747 101.347 44.1971C101.795 44.729 102.548 45.2735 103.54 45.3968C104.512 45.5243 105.688 45.2474 106.567 44.4071L106.111 44.3559C106.674 45.2557 107.407 46.166 108.345 46.9403C108.949 47.4336 109.615 47.8485 110.342 48.0805C111.055 48.3355 111.856 48.3334 112.507 48.2059C113.861 48.0094 115.021 47.2434 115.54 46.3342C116.081 45.4438 116.233 44.6287 116.33 44.0853C116.419 43.5356 116.419 43.2273 116.382 43.221C116.335 43.2127 116.255 43.5084 116.095 44.0309C115.933 44.5472 115.71 45.3195 115.176 46.0928C114.213 47.6572 110.929 48.5529 108.737 46.4659C107.866 45.7479 107.157 44.8868 106.608 44.0445L106.408 43.7373L106.152 43.9923C105.441 44.7018 104.435 44.9788 103.594 44.9004C102.742 44.8304 102.062 44.4009 101.618 43.9505C100.723 43.012 100.698 42.1415 100.607 42.1718Z" fill="#455A64"/>
<path d="M130.696 75.1075C130.871 75.1023 130.898 73.9768 131.778 73.0164C132.623 72.0267 133.743 71.8564 133.726 71.6839C133.724 71.6087 133.421 71.5293 132.936 71.6296C132.455 71.7247 131.816 72.0445 131.314 72.6109C130.812 73.1784 130.576 73.8493 130.541 74.3352C130.504 74.8264 130.62 75.1148 130.696 75.1075Z" fill="#FF9A6C"/>
<path d="M129.642 72.195C129.796 72.2806 130.172 71.8961 130.733 71.6244C131.285 71.3359 131.82 71.2617 131.841 71.0893C131.88 70.9273 131.193 70.7026 130.454 71.0768C129.713 71.4467 129.488 72.1291 129.642 72.195Z" fill="#FF9A6C"/>
<path d="M149.272 12.2134C149.32 12.11 150.429 12.806 151.296 14.5731C151.728 15.4416 152.144 16.5493 152.254 17.8598C152.396 19.164 152.059 20.6971 151.148 21.9512C150.219 23.1948 148.958 23.988 147.803 24.5314C146.638 25.0811 145.549 25.4396 144.638 25.7259C142.808 26.2777 141.677 26.5849 141.639 26.4909C141.598 26.3905 142.683 25.8983 144.459 25.2201C145.34 24.871 146.393 24.4656 147.489 23.9054C148.582 23.3526 149.718 22.5949 150.531 21.506C151.327 20.3993 151.644 19.0961 151.555 17.9068C151.493 16.7113 151.157 15.6454 150.808 14.7957C150.104 13.0631 149.208 12.2908 149.272 12.2134Z" fill="#E0E0E0"/>
<path d="M156.077 19.2225C156.164 19.2267 156.233 19.8987 155.944 20.9375C155.663 21.971 154.941 23.3348 153.72 24.4614C152.494 25.5837 151.069 26.192 150.011 26.3884C148.947 26.5922 148.278 26.472 148.28 26.3853C148.276 26.2641 148.918 26.1888 149.871 25.8701C150.825 25.5576 152.078 24.9306 153.202 23.9033C154.32 22.8708 155.046 21.6784 155.435 20.7577C155.83 19.8381 155.955 19.2079 156.077 19.2225Z" fill="#E0E0E0"/>
</svg>
