<svg width="125" height="121" viewBox="0 0 125 121" fill="none" xmlns="http://www.w3.org/2000/svg">
<g clip-path="url(#clip0_19_152)">
<path d="M117.159 40.7243C115.358 41.6925 113.556 42.6607 111.754 43.629C111.404 43.8172 111.046 44.0119 110.785 44.3106C110.523 44.6096 110.376 45.0399 110.518 45.41C110.678 45.8278 111.163 46.0497 111.612 46.0436C112.062 46.0374 112.486 45.8512 112.897 45.6686C115.119 44.6796 117.34 43.6909 119.563 42.7019C120.12 42.4539 120.693 42.195 121.112 41.7523C121.531 41.3099 121.761 40.6327 121.508 40.0795C121.237 39.4898 120.618 39.2152 119.988 39.3782C119.362 39.5404 117.731 40.4084 117.159 40.7243Z" fill="#FAFAFA"/>
<path d="M117.159 40.7243C117.156 40.7188 117.236 40.667 117.392 40.5754C117.548 40.4843 117.78 40.353 118.083 40.1907C118.386 40.0288 118.758 39.8337 119.202 39.6265C119.424 39.5248 119.662 39.4154 119.933 39.3319C120.207 39.2509 120.53 39.24 120.834 39.3548C121.138 39.4661 121.41 39.7079 121.563 40.0255C121.726 40.3453 121.722 40.7421 121.603 41.0955C121.483 41.451 121.245 41.7796 120.938 42.028C120.633 42.2818 120.274 42.4718 119.904 42.6439C118.421 43.3073 116.793 44.0352 115.084 44.7993C114.227 45.1784 113.39 45.5481 112.581 45.9059C112.17 46.0718 111.71 46.2024 111.259 46.0952C111.039 46.0427 110.829 45.9412 110.665 45.7837C110.5 45.6284 110.393 45.4087 110.378 45.1864C110.349 44.7376 110.593 44.3412 110.892 44.0834C111.195 43.8193 111.54 43.6553 111.855 43.4842C112.491 43.1472 113.085 42.8325 113.628 42.5444C114.702 41.982 115.576 41.5236 116.202 41.1954C116.495 41.0466 116.729 40.9274 116.907 40.8373C117.069 40.7578 117.156 40.7184 117.159 40.7243C117.163 40.7301 117.082 40.7804 116.926 40.8716C116.753 40.9697 116.524 41.0991 116.238 41.2614C115.619 41.6024 114.754 42.0791 113.693 42.6637C113.153 42.9579 112.563 43.2796 111.931 43.6239C111.615 43.7978 111.281 43.9634 111.004 44.2092C110.731 44.4462 110.526 44.8029 110.554 45.1731C110.575 45.5459 110.913 45.8366 111.3 45.9196C111.689 46.0118 112.112 45.8975 112.511 45.7347C113.317 45.3765 114.151 45.0064 115.006 44.6268C116.717 43.8679 118.345 43.145 119.83 42.486C120.195 42.3183 120.542 42.137 120.831 41.9003C121.123 41.6677 121.339 41.3712 121.453 41.0455C121.565 40.7224 121.569 40.372 121.429 40.0897C121.295 39.8023 121.056 39.585 120.785 39.481C120.221 39.2535 119.682 39.5438 119.245 39.7239C118.8 39.9201 118.424 40.1054 118.116 40.2571C117.823 40.4037 117.588 40.5211 117.41 40.6097C117.249 40.6896 117.163 40.7301 117.159 40.7243Z" fill="#263238"/>
<path d="M49.8343 18.9904L49.4793 47.465C49.4185 52.3074 50.3241 59.4328 58.0205 59.1787C64.6814 58.4569 66.4487 52.1812 66.5005 47.6622C66.5249 45.519 66.5497 43.7314 66.567 43.5116C66.567 43.5116 73.8587 42.9197 74.4744 35.7518C74.7718 32.2879 74.8006 25.1036 74.751 18.6038C74.6978 11.6229 69.259 5.85689 62.2638 5.34852L61.5684 5.29783C54.036 5.1884 49.7355 11.4938 49.8343 18.9904Z" fill="#FFBF9D"/>
<path d="M66.5664 43.5112C66.5664 43.5112 62.0034 43.4463 57.3833 40.0674C57.3833 40.0674 59.2884 45.4744 66.5287 45.3505L66.5664 43.5112Z" fill="#FF9A6C"/>
<path d="M62.4376 21.541C62.2944 21.6861 61.4629 21.0198 60.2558 20.9874C59.0511 20.9374 58.1486 21.5442 58.0218 21.3896C57.9593 21.3207 58.1082 21.0559 58.5014 20.781C58.8888 20.5071 59.544 20.2489 60.2957 20.2744C61.0471 20.301 61.6712 20.6015 62.0267 20.9013C62.3897 21.2025 62.5081 21.476 62.4376 21.541Z" fill="#263238"/>
<path d="M62.4012 24.0248C62.3817 24.5379 61.9292 24.9446 61.3906 24.9344C60.8534 24.9241 60.4318 24.5007 60.4513 23.9877C60.4708 23.4745 60.9234 23.0672 61.4611 23.0774C61.9996 23.0876 62.4207 23.5117 62.4012 24.0248Z" fill="#263238"/>
<path d="M65.4602 29.8949C65.4593 29.8318 66.1566 29.7636 67.2829 29.7027C67.5679 29.6943 67.8401 29.6578 67.9017 29.4689C67.9833 29.2705 67.8871 28.9584 67.774 28.6207C67.5577 27.9201 67.3321 27.1856 67.0945 26.4162C66.1566 23.2795 65.5001 20.7088 65.6273 20.6719C65.7545 20.6355 66.618 23.1482 67.5555 26.2849C67.7802 27.058 67.9948 27.7947 68.1987 28.4996C68.2825 28.8274 68.4394 29.2038 68.2643 29.6152C68.1725 29.8197 67.954 29.9576 67.7692 29.993C67.5839 30.0349 67.4243 30.0265 67.2838 30.0247C66.1566 30.0036 65.4598 29.958 65.4602 29.8949Z" fill="#263238"/>
<path d="M61.9243 17.0254C61.8077 17.292 60.8414 17.0914 59.6849 17.1505C58.5271 17.1851 57.5776 17.4634 57.4433 17.2073C57.3844 17.0848 57.5643 16.8398 57.9571 16.602C58.3472 16.3649 58.9566 16.1563 59.6508 16.1279C60.3445 16.1005 60.9664 16.2588 61.3711 16.4638C61.7793 16.6687 61.9753 16.8988 61.9243 17.0254Z" fill="#263238"/>
<path d="M73.384 19.2511C73.2572 19.4681 72.3157 19.227 71.1748 19.192C70.0338 19.1366 69.0866 19.3025 68.966 19.0753C68.9132 18.967 69.1012 18.7726 69.4992 18.5997C69.8933 18.4272 70.5028 18.2956 71.1867 18.3222C71.8707 18.3503 72.4753 18.5301 72.8645 18.7336C73.2572 18.9378 73.4398 19.1472 73.384 19.2511Z" fill="#263238"/>
<path d="M50.0333 24.3454C49.9145 24.2834 45.1871 22.5274 44.985 27.4438C44.7828 32.3601 49.7837 31.5483 49.7979 31.4076C49.8121 31.2672 50.0333 24.3454 50.0333 24.3454Z" fill="#FFBF9D"/>
<path d="M48.3656 29.4835C48.3443 29.4667 48.277 29.54 48.1289 29.6002C47.9844 29.6589 47.7388 29.6936 47.4853 29.5871C46.9716 29.3752 46.566 28.5327 46.5784 27.6455C46.5841 27.1977 46.6958 26.7753 46.8696 26.4293C47.0354 26.0759 47.2792 25.8341 47.5442 25.7983C47.808 25.7487 47.9875 25.9129 48.042 26.0536C48.1032 26.1937 48.0673 26.2906 48.093 26.3001C48.1063 26.3129 48.2029 26.2221 48.171 26.0175C48.1551 25.919 48.1019 25.8009 47.9897 25.7017C47.8754 25.601 47.7029 25.5449 47.519 25.5573C47.1369 25.5679 46.7796 25.9026 46.5886 26.283C46.3767 26.6641 46.2402 27.1382 46.2335 27.6411C46.2247 28.6331 46.6958 29.5808 47.402 29.8154C47.7455 29.9197 48.0398 29.8274 48.1941 29.7173C48.3519 29.602 48.3825 29.4934 48.3656 29.4835Z" fill="#FF9A6C"/>
<path d="M64.2944 33.2989C64.3484 33.1749 63.3808 32.886 62.7004 31.9827C62.3604 31.5378 62.164 31.0531 62.0169 30.6986C61.8728 30.3416 61.7638 30.1177 61.7101 30.1341C61.66 30.1498 61.672 30.3912 61.7518 30.7796C61.8342 31.1636 62.0022 31.7125 62.3874 32.2176C62.7664 32.7278 63.2757 33.0327 63.6494 33.1789C64.0262 33.3313 64.2815 33.3408 64.2944 33.2989Z" fill="#263238"/>
<path d="M84.3143 12.1688C84.2363 11.8804 84.0253 11.6426 83.7669 11.4909C83.2026 11.1594 82.5532 11.2035 81.9256 11.1937C80.0138 11.1634 78.1175 10.5825 76.5098 9.55513C75.7567 8.47456 74.9087 7.45893 73.9889 6.51512C71.8059 4.27485 70.0093 2.75009 68.1516 2.00576C65.7483 1.04262 61.7287 0.652407 59.2234 1.30702C56.7177 1.96127 54.4668 3.98492 54.1184 6.53992C52.7132 5.35725 50.6033 5.36744 48.8919 6.05233L48.8489 6.03371C46.9428 6.70986 45.8595 8.71416 45.297 10.6492C44.735 12.5839 44.4947 14.6528 43.4655 16.3868C43.25 16.7494 42.9947 17.184 43.1826 17.5611C43.3281 17.8529 43.7004 17.9732 44.0243 17.9258C44.348 17.8784 44.6352 17.7004 44.9118 17.5261C44.699 18.0326 44.4863 18.5396 44.2738 19.0461C44.9632 19.1658 45.6773 19.1107 46.3471 18.9083C46.7522 20.7175 47.235 22.7838 47.7035 24.0102C48.5005 24.0081 49.2296 24.0646 49.7208 24.5044C50.3883 25.1018 50.6871 26.2257 51.7966 25.7994C52.3613 25.5821 52.8764 24.403 53.0656 23.8308C54.3192 20.0315 54.7354 15.962 54.2828 11.9887C55.0718 11.151 56.0248 10.4665 57.0727 9.98475L56.9872 10.0613C59 9.36552 61.2766 8.68099 63.1866 9.62153C64.668 10.3512 65.5386 11.8808 66.6463 13.1017C68.7451 15.4153 71.5763 16.6728 74.7053 16.807C74.8116 18.8255 74.6414 21.6781 74.7478 23.6966L76.4539 20.4633L76.4553 20.4794C76.5949 20.2427 76.7106 20.0042 76.8223 19.7649L76.8604 19.6924V19.6832C77.0381 19.2992 77.207 18.9148 77.4313 18.5348C77.4375 18.5407 77.4437 18.5461 77.4504 18.552C78.5492 19.5169 80.168 18.0418 79.3014 16.8657C79.1299 16.6323 78.9242 16.4244 78.6889 16.253C79.1911 16.7224 79.9397 16.9474 80.5984 16.7457C81.2567 16.544 81.7678 15.881 81.7106 15.198C81.6711 14.7315 81.3365 14.3147 80.9136 14.1301C81.801 14.198 82.7084 14.0058 83.4823 13.5667C83.9889 13.2779 84.4863 12.8038 84.3143 12.1688Z" fill="#263238"/>
<path d="M56.3856 7.36262C56.3997 7.38124 56.0837 7.55228 55.663 8.02055C55.2459 8.48661 54.7778 9.29767 54.5571 10.4012C54.4436 10.9497 54.3727 11.5635 54.3731 12.2235C54.37 12.884 54.4237 13.5912 54.4742 14.3362C54.5225 15.0813 54.5766 15.8686 54.5283 16.6877C54.5043 17.0965 54.4547 17.5126 54.366 17.9284C54.2752 18.3368 54.1675 18.7803 53.8581 19.1314C53.6112 19.4177 53.1985 19.5447 52.8412 19.4717C52.4813 19.4083 52.1608 19.2175 51.9263 18.9575C51.4622 18.4189 51.347 17.7362 51.2317 17.1341L51.3833 17.1523C51.1364 17.6931 50.8824 18.2278 50.5066 18.6544C50.1373 19.0837 49.6254 19.3678 49.1054 19.4141C48.8461 19.4374 48.585 19.3958 48.3625 19.2846C48.1356 19.1749 47.9707 18.9874 47.8581 18.7898C47.7504 18.5881 47.6936 18.3671 47.7051 18.1541C47.7171 17.9415 47.8009 17.7394 47.9365 17.5965L48.0128 17.6643C47.4574 18.2941 46.8709 18.6326 46.4653 18.82C46.2605 18.9137 46.0965 18.9699 45.9857 19.0053C45.874 19.0385 45.8151 19.0519 45.8137 19.0476C45.8124 19.0429 45.8678 19.0202 45.976 18.9787C46.0832 18.9349 46.2424 18.8711 46.441 18.7704C46.8346 18.5698 47.4024 18.2227 47.9348 17.598L48.011 17.6658C47.769 17.9214 47.7548 18.3704 47.9636 18.7314C48.0686 18.9094 48.2198 19.076 48.4197 19.1694C48.6183 19.2664 48.8559 19.3025 49.0926 19.2784C49.5704 19.231 50.0478 18.9648 50.3935 18.5564C50.7477 18.1486 50.9937 17.6282 51.2375 17.0863L51.3412 16.8562L51.3891 17.1045C51.5043 17.7055 51.6271 18.3612 52.05 18.8466C52.2601 19.0797 52.5535 19.2522 52.8692 19.3065C53.1843 19.367 53.5181 19.2638 53.7335 19.0184C54.0039 18.7143 54.1147 18.2945 54.2029 17.8926C54.2898 17.4871 54.3395 17.0798 54.3643 16.6775C54.4139 15.8723 54.3643 15.0904 54.3199 14.3457C54.2734 13.6006 54.2251 12.8906 54.2344 12.2217C54.2402 11.5533 54.3191 10.9315 54.4414 10.3757C54.6808 9.25756 55.1754 8.43667 55.6147 7.97643C56.0575 7.51399 56.3856 7.36262 56.3856 7.36262Z" fill="#455A64"/>
<path d="M78.6723 14.3395C78.6741 14.3417 78.6546 14.3585 78.6143 14.3888C78.566 14.4241 78.5066 14.4671 78.4347 14.5193C78.3558 14.578 78.2557 14.6462 78.1293 14.714C78.0048 14.7851 77.8629 14.8716 77.6909 14.9438C77.0221 15.2603 75.9489 15.5747 74.6076 15.4959C73.2783 15.4215 71.6834 14.9529 70.2592 13.8979C68.8199 12.868 67.5571 11.3505 66.5238 9.6128C65.9999 8.74447 65.5726 7.85427 65.1019 7.03227C64.6342 6.20991 64.1178 5.4495 63.4924 4.84925C62.874 4.24606 62.1559 3.80005 61.4161 3.59509C61.0478 3.48605 60.6759 3.46125 60.3213 3.46963C59.9658 3.48823 59.6293 3.56008 59.3191 3.6611C58.698 3.86824 58.1972 4.20996 57.8168 4.56115C57.4356 4.91563 57.1794 5.2898 57.0039 5.61071C56.6759 6.26969 56.6581 6.69309 56.632 6.68581C56.6289 6.68546 56.6311 6.65991 56.6378 6.61068C56.6471 6.55125 56.6586 6.47903 56.6719 6.39115C56.7069 6.19897 56.7902 5.92068 56.9454 5.58155C57.1147 5.2504 57.3678 4.86238 57.7517 4.49331C58.1342 4.12753 58.6431 3.77014 59.28 3.54914C59.5983 3.44119 59.9454 3.36315 60.3142 3.34054C60.6808 3.32777 61.0713 3.35148 61.4529 3.46125C62.2215 3.66766 62.964 4.12389 63.5996 4.73838C64.2433 5.34997 64.7716 6.12349 65.245 6.95096C65.7215 7.77878 66.1488 8.66678 66.6683 9.52708C67.6936 11.2517 68.9383 12.752 70.3501 13.7728C71.7481 14.8187 73.3058 15.288 74.6143 15.3774C75.9334 15.4697 76.9937 15.1786 77.6635 14.884C78.339 14.5849 78.659 14.3191 78.6723 14.3395Z" fill="#455A64"/>
<path d="M79.3281 11.1886C79.3338 11.1984 79.2421 11.2615 79.0697 11.3677C78.8994 11.4767 78.6379 11.6113 78.3046 11.7542C77.9721 11.9001 77.5603 12.0361 77.0931 12.1503C76.6246 12.2557 76.0998 12.3341 75.5444 12.3545C74.989 12.3691 74.4597 12.3246 73.985 12.2491C73.5116 12.1652 73.0918 12.0555 72.7505 11.9311C72.4092 11.8093 72.1392 11.6919 71.9624 11.5941C71.7837 11.4993 71.688 11.442 71.6933 11.4319C71.7071 11.4034 72.1051 11.6073 72.7882 11.8188C73.1282 11.9271 73.5439 12.0226 74.0094 12.0967C74.4766 12.1623 74.9947 12.2014 75.5391 12.1871C76.083 12.1667 76.5976 12.0949 77.059 11.9997C77.5191 11.8961 77.9274 11.7743 78.2603 11.6445C78.9282 11.3899 79.3121 11.1612 79.3281 11.1886Z" fill="#455A64"/>
<path d="M73.4376 21.9932C73.2944 22.1383 72.4629 21.4721 71.2559 21.4396C70.0511 21.3896 69.1486 21.9965 69.0218 21.8419C68.9593 21.7729 69.1082 21.5081 69.5019 21.2332C69.8888 20.9593 70.544 20.7011 71.2957 20.7266C72.0471 20.7533 72.6716 21.0538 73.0267 21.3536C73.3902 21.6551 73.5081 21.9286 73.4376 21.9932Z" fill="#263238"/>
<path d="M73.2398 24.3738C73.2203 24.8869 72.7677 25.2936 72.2292 25.2833C71.6915 25.2732 71.2704 24.8498 71.2894 24.3366C71.3089 23.8235 71.7615 23.4162 72.2996 23.4264C72.8382 23.4366 73.2593 23.8607 73.2398 24.3738Z" fill="#263238"/>
<path d="M106.488 69.7043L106.078 69.6306L114.475 55.0224L113.148 50.8109C113.148 50.8109 111.609 44.8131 112.891 43.2818C112.891 43.2818 115.696 39.9963 116.605 40.0415C117.515 40.0868 118.243 40.268 118.425 40.9471C118.425 40.9471 119.972 40.7658 120.381 41.264C120.79 41.7621 121.109 42.3507 121.109 42.3507C121.109 42.3507 122.792 42.2151 123.247 43.6636C123.247 43.6636 124.839 44.4787 124.976 45.6558C125.112 46.8333 124.657 52.3114 124.157 53.7152C123.656 55.119 121.791 58.0617 121.245 62.4081C120.699 66.7546 118.752 72.4312 117.041 78.7841L112.42 77.7566L106.488 69.7043Z" fill="#FFBF9D"/>
<path d="M31.0661 63.1096C31.0661 63.1096 25.9202 92.199 26.1686 94.9189C26.4171 97.6387 27.7856 101.966 30.8899 102.708C33.9941 103.45 36.8514 102.708 36.8514 102.708L33.125 66.9783L31.0661 63.1096Z" fill="#2563EB"/>
<path d="M46.1335 48.1052C46.1335 48.1052 39.9751 52.4622 38.6135 53.7434C32.9202 59.1028 31.7283 61.2964 31.0658 63.1096C30.4033 64.9228 35.0183 107.039 35.0183 107.039L35.9533 114.398L36.6287 120.763L79.1787 120.547C79.1787 120.547 78.8507 118.689 78.8684 116.428L79.1787 76.9131L72.6845 50.4549L68.6884 49.3228L67.8817 46.1689C67.8817 46.1689 62.9163 42.5203 54.7275 42.4149C52.208 42.3825 48.6446 43.3679 46.6539 44.905L46.1335 48.1052Z" fill="#2563EB"/>
<path d="M67.8507 50.5634C67.8507 50.5634 72.6703 50.3049 73.3086 50.6525C73.9474 51.0002 78.7847 53.5449 83.278 57.1228C87.7718 60.7008 100.576 68.8903 100.576 68.8903C100.576 68.8903 102.351 67.1869 103.999 69.125L107.699 66.178C107.699 66.178 117.204 69.7652 118.702 76.9211C118.702 76.9211 119.226 79.7653 116.23 81.3394C116.23 81.3394 108.278 88.4177 101.846 87.7321C95.0511 87.0081 79.841 79.9268 79.079 79.6325L68.5994 75.0121C68.5994 75.0121 62.1583 62.788 65.0045 56.6755C67.8507 50.5634 67.8507 50.5634 67.8507 50.5634Z" fill="#2563EB"/>
<path d="M103.903 75.4789C103.883 75.4864 103.734 75.1436 103.586 74.559C103.437 73.9762 103.309 73.1464 103.321 72.2247C103.335 71.3031 103.488 70.4768 103.654 69.8984C103.819 69.3187 103.978 68.9808 103.999 68.9883C104.027 68.9984 103.914 69.3509 103.785 69.9311C103.655 70.5103 103.526 71.3225 103.512 72.2274C103.499 73.1318 103.605 73.9475 103.718 74.5303C103.83 75.114 103.933 75.4696 103.903 75.4789Z" fill="#263238"/>
<path d="M68.6889 49.3228C68.6867 49.329 68.6083 49.3131 68.4611 49.2765C68.2949 49.2328 68.0826 49.1772 67.8197 49.1084C67.2621 48.9672 66.4518 48.7736 65.4403 48.5834C63.4212 48.1881 60.5967 47.8144 57.4624 47.6044C54.3268 47.4143 51.4757 47.4319 49.4279 47.6283C48.403 47.7156 47.5795 47.8431 47.0139 47.945C46.7475 47.9975 46.532 48.0399 46.3636 48.073C46.2142 48.1003 46.1349 48.1118 46.1331 48.1052C46.1313 48.099 46.2076 48.0752 46.3538 48.0359C46.5209 47.9936 46.7346 47.9397 46.9983 47.8727C47.5617 47.7474 48.3866 47.5992 49.4141 47.4942C51.4682 47.263 54.3295 47.2242 57.4744 47.4143C60.6171 47.6247 63.4469 48.0205 65.4664 48.4511C66.4775 48.6589 67.286 48.8733 67.8392 49.0365C68.0985 49.1199 68.3082 49.1869 68.4722 49.2399C68.6167 49.288 68.6912 49.3167 68.6889 49.3228Z" fill="#263238"/>
<path d="M51.8524 47.1342C51.7997 47.1417 51.6561 46.4212 51.5315 45.5261C51.4065 44.6304 51.3476 43.8989 51.3994 43.8915C51.4513 43.8843 51.5949 44.6042 51.7204 45.5C51.8458 46.3952 51.9048 47.1271 51.8524 47.1342Z" fill="#263238"/>
<path d="M53.4668 46.9965C53.4212 47.0137 53.1481 46.3087 53.0865 45.3871C53.0196 44.4659 53.1924 43.73 53.2399 43.7409C53.2962 43.749 53.2115 44.4787 53.2767 45.3739C53.3361 46.2694 53.5213 46.9806 53.4668 46.9965Z" fill="#263238"/>
<path d="M91.9007 84.8821C91.8985 84.8883 91.8222 84.8684 91.6786 84.8256C91.5164 84.774 91.3089 84.7087 91.0532 84.628C90.5146 84.444 89.7393 84.1643 88.7912 83.7955C86.8931 83.0614 84.3018 81.9752 81.4565 80.7368C78.6103 79.4975 76.0509 78.339 74.2034 77.4897C73.2987 77.0675 72.5589 76.7221 72.0212 76.4711C71.7805 76.3537 71.5855 76.2589 71.4326 76.1847C71.2987 76.1172 71.23 76.0789 71.2322 76.0731C71.2349 76.0674 71.3094 76.0939 71.4481 76.1499C71.605 76.2161 71.8049 76.3003 72.0518 76.404C72.5953 76.6414 73.3435 76.9683 74.2588 77.3675C76.14 78.1939 78.7016 79.3193 81.5328 80.5625C84.3763 81.8009 86.9583 82.9056 88.8413 83.6711C89.7819 84.0549 90.5483 84.3531 91.078 84.5583C91.3284 84.6527 91.5314 84.729 91.6901 84.789C91.8302 84.8442 91.9024 84.8759 91.9007 84.8821Z" fill="#263238"/>
<g opacity="0.3">
<path d="M46.2756 48.0681C53.0407 49.2602 59.898 48.0792 67.0567 48.9222C60.144 47.4981 52.9454 46.8231 46.2756 48.0681Z" fill="black"/>
</g>
<g opacity="0.3">
<path d="M34.4048 102.763C30.5996 93.8936 31.0499 83.8678 31.5662 74.2374L34.4048 102.763Z" fill="black"/>
</g>
<path d="M31.066 69.4515C31.0693 69.4511 31.0759 69.489 31.0862 69.5631C31.0964 69.6474 31.1096 69.7564 31.1261 69.8927C31.1583 70.1958 31.2038 70.6211 31.2613 71.1619C31.3723 72.2786 31.5306 73.8712 31.7259 75.834C32.1125 79.7799 32.6405 85.2311 33.27 91.2465C33.9013 97.2637 34.5312 102.705 35.0354 106.637C35.2834 108.603 35.497 110.192 35.6473 111.291C35.7187 111.83 35.7751 112.254 35.8151 112.556C35.8312 112.693 35.844 112.802 35.8539 112.886C35.8616 112.96 35.8642 112.999 35.8609 113C35.8576 113 35.8488 112.963 35.8349 112.889C35.8202 112.805 35.8012 112.697 35.7774 112.562C35.7286 112.261 35.6608 111.838 35.574 111.302C35.4014 110.207 35.1672 108.619 34.902 106.654C34.3633 102.725 33.7119 97.2849 33.0805 91.2664C32.4511 85.2491 31.9439 79.7958 31.5918 75.8464C31.4218 73.8814 31.284 72.2865 31.1873 71.1686C31.1448 70.6259 31.1114 70.1997 31.0876 69.8958C31.0789 69.759 31.0719 69.6496 31.0664 69.5644C31.0631 69.4899 31.0627 69.4519 31.066 69.4515Z" fill="#263238"/>
<path d="M60.3312 64.6921C60.3312 64.6987 60.235 64.7036 60.0524 64.7071C59.8516 64.7089 59.5857 64.7106 59.2541 64.7128C58.5613 64.7102 57.5586 64.7199 56.3206 64.7486C53.8441 64.8042 50.4239 64.985 46.6708 65.4271C42.917 65.874 39.5498 66.4969 37.1296 67.0215C35.9194 67.2827 34.9421 67.5072 34.2694 67.6718C33.9462 67.7472 33.6879 67.8072 33.4922 67.8531C33.3142 67.8924 33.2196 67.91 33.2178 67.9039C33.2159 67.8977 33.3072 67.8672 33.4823 67.8161C33.6758 67.7618 33.9312 67.6899 34.251 67.6003C34.9186 67.4137 35.8922 67.1693 37.1003 66.8905C39.516 66.3319 42.887 65.6865 46.6486 65.2387C50.4092 64.7953 53.8379 64.6356 56.3184 64.6144C57.5586 64.603 58.5626 64.6136 59.2554 64.6387C59.5874 64.6515 59.8525 64.6612 60.0533 64.6687C60.2359 64.6775 60.3317 64.6855 60.3312 64.6921Z" fill="#263238"/>
<path d="M43.7319 74.1112C43.6792 74.1094 43.7785 70.0811 43.9536 65.1152C44.1288 60.1475 44.3134 56.1227 44.3662 56.1249C44.419 56.1267 44.3197 60.1542 44.1442 65.1222C43.9694 70.0877 43.7847 74.1134 43.7319 74.1112Z" fill="#263238"/>
<path d="M65.8232 73.6136C65.8174 73.6166 65.7615 73.5297 65.6614 73.3608C65.5537 73.1764 65.4092 72.9293 65.2279 72.6196C64.8418 71.9592 64.2988 71.0318 63.6325 69.8927C62.9774 68.7333 62.1933 67.3352 61.6326 65.6499C61.3595 64.8077 61.1445 63.8971 61.0359 62.9375C60.9388 61.9767 60.9424 60.9752 61.0275 59.9569C61.2159 57.9289 61.6552 55.9969 62.4544 54.4039C62.848 53.6067 63.3294 52.9021 63.8613 52.314C64.395 51.7272 64.9801 51.2653 65.5519 50.9097C66.7026 50.1981 67.8023 49.9462 68.5505 49.9096C69.3041 49.869 69.7128 49.974 69.7128 49.974C69.711 49.9992 69.2979 49.9206 68.5559 49.9833C67.8192 50.0415 66.7447 50.3102 65.6237 51.0231C65.0665 51.3796 64.4969 51.8393 63.9792 52.419C63.4632 52.9992 62.9947 53.6944 62.6122 54.4806C61.8347 56.0516 61.4047 57.9606 61.2177 59.9741C61.1334 60.9814 61.129 61.97 61.2221 62.9172C61.3267 63.8636 61.535 64.7614 61.8001 65.5956C62.3444 67.2633 63.1113 68.6609 63.7509 69.8265C64.395 70.978 64.9193 71.915 65.293 72.583C65.461 72.9002 65.5953 73.1534 65.6955 73.3422C65.7846 73.5169 65.8289 73.6105 65.8232 73.6136Z" fill="#263238"/>
<g opacity="0.3">
<path d="M63.5673 69.4224C63.0345 73.1278 65.7331 75.5852 68.8293 77.7099C71.925 79.8346 74.8718 81.4806 79.1312 83.0728L79.1795 79.6744C79.1795 79.6744 74.6476 77.8136 70.5039 75.7096C68.2499 74.5652 65.6719 73.3369 64.9259 72.0139L63.5673 69.4224Z" fill="black"/>
</g>
<path d="M100.087 75.7237C100.064 75.7272 99.9686 75.3403 99.8946 74.7015C99.8201 74.0631 99.7811 73.1706 99.8623 72.1912C99.9451 71.2114 100.131 70.3374 100.311 69.7202C100.49 69.1021 100.647 68.7364 100.669 68.7434C100.697 68.7531 100.585 69.1325 100.441 69.7533C100.296 70.3736 100.134 71.2391 100.052 72.2066C99.9726 73.1737 99.9895 74.0543 100.029 74.6896C100.068 75.3258 100.116 75.7189 100.087 75.7237Z" fill="#263238"/>
<path d="M116.248 81.5027C116.242 81.5044 116.218 81.4475 116.18 81.3377C116.136 81.2067 116.084 81.0483 116.02 80.8568C115.957 80.6464 115.873 80.3914 115.757 80.1015C115.646 79.8099 115.531 79.4746 115.364 79.1181C115.286 78.9377 115.204 78.7493 115.118 78.5539C115.023 78.3619 114.924 78.1621 114.821 77.9561C114.625 77.5387 114.369 77.1169 114.117 76.6639C113.579 75.7771 112.936 74.833 112.186 73.8986C111.43 72.9686 110.641 72.1409 109.893 71.4191C109.134 70.7089 108.423 70.0983 107.797 69.6222C107.491 69.3739 107.198 69.1718 106.945 68.9865C106.695 68.799 106.472 68.6464 106.288 68.5255C106.122 68.4108 105.984 68.315 105.871 68.2365C105.776 68.1686 105.728 68.1306 105.731 68.1244C105.735 68.1191 105.79 68.1465 105.891 68.2043C106.01 68.2749 106.155 68.36 106.329 68.4633C106.52 68.5753 106.749 68.7196 107.006 68.8992C107.266 69.0769 107.566 69.2724 107.878 69.515C108.518 69.9805 109.244 70.5836 110.013 71.2925C110.773 72.0116 111.572 72.8419 112.335 73.7794C113.09 74.7214 113.735 75.6761 114.269 76.5752C114.519 77.0344 114.772 77.4619 114.963 77.8864C115.063 78.0959 115.164 78.2967 115.252 78.493C115.335 78.6919 115.414 78.883 115.489 79.0665C115.648 79.4283 115.755 79.7693 115.858 80.0658C115.965 80.3609 116.039 80.6203 116.091 80.8352C116.141 81.0311 116.182 81.1934 116.216 81.3275C116.243 81.4409 116.254 81.5005 116.248 81.5027Z" fill="#263238"/>
<g opacity="0.3">
<path d="M104.851 74.5215C104.806 73.9683 104.586 73.4464 104.438 72.9116C104.091 71.6552 103.946 70.4274 103.999 69.1255C103.07 71.3539 103.132 73.8509 104.254 75.9897C104.725 75.6915 104.897 75.0747 104.851 74.5215Z" fill="black"/>
</g>
<g opacity="0.3">
<path d="M33.9172 67.8814C36.6473 67.7415 39.3665 67.3842 42.0398 66.815C41.7093 67.9894 41.5554 69.2124 41.5851 70.4318C42.4311 69.4864 43.0544 68.3446 43.3908 67.1234C43.5784 68.454 44.3378 69.6941 45.4398 70.4702C45.7097 69.264 45.7718 68.0119 45.6224 66.785C49.6636 66.3006 53.684 65.6384 57.6667 64.8011C49.6078 64.6047 41.5199 65.6067 33.7549 67.7644" fill="black"/>
</g>
<path d="M118.345 40.9048C118.379 40.9522 117.801 41.3325 117.365 42.0342C116.918 42.7297 116.825 43.4131 116.767 43.4029C116.719 43.4087 116.731 42.6735 117.203 41.9332C117.668 41.1881 118.329 40.8596 118.345 40.9048Z" fill="#FF9A6C"/>
<path d="M121.018 42.3985C121.049 42.4474 120.498 42.7785 120.059 43.4094C119.61 44.0341 119.485 44.6625 119.428 44.6497C119.38 44.6519 119.427 43.9677 119.903 43.3C120.373 42.6283 121.004 42.3529 121.018 42.3985Z" fill="#FF9A6C"/>
<path d="M123.157 43.668C123.193 43.7117 122.774 44.0757 122.391 44.6278C122.003 45.1762 121.804 45.6924 121.75 45.6743C121.703 45.6637 121.827 45.0959 122.235 44.5192C122.639 43.9393 123.131 43.6271 123.157 43.668Z" fill="#FF9A6C"/>
<path d="M115.273 44.1487C115.243 44.195 114.864 43.9474 114.341 43.99C113.815 44.0181 113.474 44.3142 113.438 44.2726C113.422 44.2566 113.483 44.1545 113.636 44.0422C113.786 43.9295 114.036 43.8208 114.327 43.8008C114.618 43.7814 114.88 43.8558 115.045 43.947C115.212 44.0378 115.287 44.1304 115.273 44.1487Z" fill="#FF9A6C"/>
<path d="M118.621 46.2324C118.568 46.2514 118.41 45.7634 117.928 45.4065C117.454 45.0377 116.939 45.0161 116.944 44.9601C116.944 44.9371 117.074 44.9068 117.285 44.9338C117.495 44.9597 117.782 45.058 118.043 45.2556C118.304 45.4537 118.475 45.7039 118.556 45.8984C118.638 46.0943 118.643 46.2266 118.621 46.2324Z" fill="#FF9A6C"/>
<path d="M121.946 46.9392C121.905 46.9789 121.54 46.5664 120.913 46.4053C120.29 46.2297 119.766 46.4022 119.751 46.3475C119.742 46.3264 119.862 46.25 120.083 46.198C120.303 46.145 120.626 46.1318 120.963 46.2218C121.3 46.3136 121.572 46.4869 121.735 46.6427C121.899 46.7989 121.964 46.925 121.946 46.9392Z" fill="#FF9A6C"/>
<path d="M32.8577 37.7588C32.8589 37.7738 32.6987 37.771 32.4329 37.8571C32.1706 37.941 31.7982 38.1422 31.5007 38.5394C31.3553 38.7369 31.2289 38.9821 31.1744 39.2641C31.1224 39.5449 31.1406 39.8606 31.2656 40.1589C31.4985 40.751 32.1258 41.2951 32.8783 41.3141C33.6316 41.3191 34.2757 40.7947 34.5274 40.21C34.6619 39.9158 34.6904 39.6011 34.6472 39.3187C34.6014 39.0351 34.4832 38.7862 34.3437 38.5843C34.0591 38.1781 33.6933 37.9654 33.4338 37.8733C33.1708 37.7791 33.0106 37.7769 33.0125 37.7619C33.0128 37.7573 33.052 37.7573 33.1272 37.7613C33.1652 37.7619 33.2115 37.7672 33.2655 37.7788C33.32 37.7875 33.3827 37.8003 33.4507 37.8234C33.7234 37.9029 34.1127 38.1101 34.4218 38.5291C34.5729 38.7375 34.7036 38.998 34.7578 39.3003C34.8095 39.6014 34.7829 39.9433 34.6418 40.2596C34.5083 40.5772 34.2751 40.8724 33.9691 41.0901C33.6667 41.3126 33.2802 41.4508 32.8758 41.4492C32.4721 41.438 32.09 41.2873 31.795 41.0558C31.4963 40.8284 31.2725 40.5261 31.1493 40.2044C31.0186 39.884 31.0026 39.5415 31.0641 39.2419C31.1277 38.9415 31.2666 38.6854 31.4242 38.4817C31.7465 38.0726 32.1423 37.878 32.4172 37.8068C32.4859 37.7857 32.5489 37.775 32.6038 37.7678C32.6583 37.7579 32.7047 37.7538 32.7423 37.7547C32.8182 37.7529 32.8574 37.7541 32.8577 37.7588Z" fill="#263238"/>
<path d="M32.7982 28.3932C32.7982 28.3932 32.802 28.313 32.8155 28.1573C32.8302 27.9986 32.8518 27.7686 32.8801 27.4679C32.8948 27.3162 32.9111 27.1469 32.9293 26.9606C32.9387 26.7734 32.9305 26.5678 32.9321 26.3454C32.9314 26.1229 32.9308 25.8837 32.9299 25.6278C32.9343 25.4996 32.9239 25.368 32.907 25.2326C32.8929 25.0969 32.8785 24.9574 32.8637 24.8139C32.7829 23.663 32.465 22.2684 31.8575 20.7482C31.2422 19.2329 30.2684 17.5988 28.8258 16.1168C28.6443 15.9331 28.4606 15.7474 28.2748 15.5593C28.0782 15.3831 27.8679 15.2168 27.662 15.0421C27.5582 14.9554 27.4539 14.8683 27.3488 14.781C27.2448 14.6923 27.1398 14.6037 27.0225 14.5301C26.794 14.3744 26.5633 14.2172 26.3304 14.0584C26.2129 13.9798 26.0972 13.8974 25.9775 13.8207C25.8524 13.7524 25.7267 13.6837 25.6004 13.6144C25.348 13.4763 25.0929 13.3368 24.8359 13.1961C24.5748 13.0632 24.2958 12.9605 24.0228 12.8398C23.8855 12.7815 23.7473 12.7228 23.6087 12.6638C23.5391 12.6352 23.4708 12.6027 23.3993 12.5775L23.1821 12.5094C22.6 12.3338 22.0176 12.1195 21.3945 12.0203C21.0857 11.9619 20.7776 11.8836 20.4619 11.8403C20.1444 11.8081 19.8244 11.7757 19.5018 11.7429C19.3404 11.7295 19.1793 11.7036 19.0163 11.7001C18.8533 11.7001 18.6894 11.6998 18.5251 11.6998C18.1966 11.7036 17.865 11.6908 17.5327 11.7076C16.871 11.7822 16.193 11.8093 15.5269 11.9734C15.3592 12.0072 15.1912 12.0405 15.0226 12.0745C14.9386 12.0923 14.8533 12.1067 14.7696 12.1269L14.5217 12.2025C14.1906 12.3032 13.8578 12.4043 13.523 12.5063C13.1939 12.6236 12.8729 12.7699 12.5444 12.9013C12.3827 12.9724 12.2131 13.0283 12.0563 13.1125L11.584 13.3633C10.9373 13.6731 10.3484 14.0943 9.73803 14.4933C9.45408 14.722 9.16915 14.9519 8.88263 15.1828L8.6676 15.3563C8.5996 15.4183 8.53502 15.4845 8.46857 15.5484L8.0711 15.9365L7.67208 16.3262L7.3094 16.753L6.94677 17.1829L6.76463 17.3985C6.70851 17.4739 6.65714 17.5529 6.60288 17.6299C6.38879 17.9404 6.17376 18.252 5.95811 18.5649C5.77411 18.8972 5.58919 19.2307 5.40364 19.5654C4.71184 20.9307 4.22283 22.4185 3.96173 23.9687C3.74168 25.5258 3.75704 27.0916 4.00373 28.6013C4.07927 28.9763 4.15481 29.3497 4.22973 29.7219C4.341 30.0851 4.45164 30.4467 4.56197 30.807L4.64601 31.0765L4.75443 31.3367L4.97044 31.8552L5.18701 32.3709L5.44969 32.8623L5.71113 33.3515L5.84247 33.5945L5.99508 33.8241C6.19854 34.1302 6.40102 34.435 6.60257 34.7382C7.06365 35.3017 7.4981 35.8801 8.02128 36.3696L8.39615 36.7502C8.51999 36.8778 8.66481 36.9817 8.7977 37.098C9.07101 37.3217 9.33307 37.5576 9.61144 37.7682C9.90009 37.9657 10.1869 38.1619 10.4722 38.3572L10.6856 38.5035C10.7593 38.5481 10.8361 38.5874 10.911 38.6292C11.0614 38.7119 11.2116 38.7946 11.3614 38.8767C11.9469 39.2326 12.5852 39.4619 13.1939 39.7311C13.5058 39.8469 13.8258 39.9339 14.138 40.0359C14.2947 40.0853 14.4512 40.1342 14.6066 40.1829C14.7633 40.2284 14.9248 40.2522 15.0828 40.2874C15.4003 40.3529 15.7153 40.4178 16.0278 40.4821C16.3422 40.5351 16.6598 40.5529 16.9719 40.5897C17.596 40.6817 18.2164 40.6515 18.8248 40.6587L19.0523 40.6593C19.1279 40.6561 19.2031 40.6459 19.278 40.6393C19.4281 40.6246 19.5777 40.61 19.7262 40.5957C20.0231 40.5619 20.3203 40.5479 20.6096 40.4992C20.8977 40.4421 21.1829 40.3853 21.4653 40.3292C21.6066 40.3011 21.7471 40.2734 21.8872 40.2456C22.0239 40.205 22.1599 40.1645 22.295 40.1242C22.5655 40.0425 22.8329 39.9617 23.0978 39.8815C23.2319 39.8466 23.3589 39.7929 23.4849 39.7399C23.6115 39.6878 23.7372 39.636 23.8626 39.5845C24.1121 39.4797 24.3629 39.3842 24.6036 39.2747C24.8378 39.1512 25.0691 39.0289 25.2976 38.9082C27.1213 37.927 28.5443 36.6603 29.5891 35.3999C29.7207 35.2427 29.8543 35.0911 29.9784 34.9369C30.0912 34.7744 30.2019 34.6147 30.3106 34.4578C30.4194 34.3012 30.526 34.1473 30.6304 33.997C30.6815 33.9208 30.737 33.8488 30.7827 33.7717C30.8263 33.6934 30.8696 33.6157 30.9125 33.539C31.0836 33.232 31.2473 32.9384 31.4037 32.6583C31.552 32.3744 31.6582 32.0873 31.7779 31.8247C31.8356 31.6924 31.8914 31.5635 31.9456 31.4384C32.0027 31.3146 32.0525 31.192 32.087 31.0684C32.1651 30.8248 32.2381 30.5967 32.3061 30.3849C32.3719 30.1724 32.4418 29.979 32.4895 29.7977C32.5286 29.6143 32.5644 29.448 32.5961 29.2992C32.66 29.0044 32.7092 28.7785 32.743 28.6225C32.7772 28.4706 32.7982 28.3932 32.7982 28.3932C32.7982 28.3932 32.7866 28.4721 32.7572 28.6256C32.7262 28.7822 32.6816 29.009 32.6233 29.3057C32.5932 29.4555 32.5597 29.6227 32.5227 29.8068C32.4773 29.989 32.4089 30.1837 32.3453 30.3974C32.2792 30.6105 32.2077 30.8397 32.1315 31.0849C32.098 31.2094 32.0491 31.3324 31.9926 31.4572C31.9391 31.5829 31.8839 31.7127 31.8271 31.8459C31.709 32.1101 31.6036 32.399 31.457 32.6851C31.3018 32.9674 31.1391 33.2632 30.9689 33.5723C30.9263 33.6497 30.8833 33.7277 30.8398 33.8067C30.7943 33.8843 30.7388 33.957 30.6881 34.0338C30.5837 34.1857 30.4774 34.3405 30.369 34.4986C30.2605 34.6565 30.1499 34.8175 30.0373 34.9816C29.9135 35.1372 29.78 35.2901 29.6483 35.4486C28.6036 36.7202 27.177 37.9996 25.3443 38.9927C25.1145 39.115 24.882 39.2385 24.6465 39.3636C24.4046 39.4744 24.1525 39.5714 23.9015 39.6778C23.7754 39.7299 23.6488 39.7823 23.5215 39.835C23.3946 39.8887 23.267 39.943 23.1319 39.9785C22.8655 40.06 22.5962 40.142 22.3242 40.225C22.1878 40.2656 22.0518 40.3099 21.9135 40.3482C21.7728 40.3766 21.6311 40.405 21.4888 40.4337C21.2042 40.4908 20.9171 40.5485 20.6271 40.6065C20.3359 40.6561 20.0366 40.6711 19.7375 40.7058C19.5877 40.7207 19.4369 40.7357 19.2859 40.7507C19.2103 40.7573 19.1344 40.7678 19.0583 40.7713H18.8289C18.216 40.7657 17.5904 40.7969 16.9616 40.7055C16.6469 40.6689 16.3269 40.6515 16.0099 40.5984C15.6946 40.5341 15.3771 40.4689 15.057 40.4038C14.8978 40.3682 14.7348 40.3445 14.5769 40.299C14.4198 40.2499 14.2621 40.201 14.1042 40.1517C13.7891 40.0493 13.4663 39.9617 13.1516 39.8456C12.5372 39.5752 11.8934 39.3446 11.3022 38.9865C11.1511 38.9038 10.9997 38.8208 10.8474 38.7375C10.7718 38.6951 10.6944 38.6558 10.6201 38.6108L10.4045 38.4636C10.1167 38.267 9.82708 38.0692 9.53555 37.8702C9.25439 37.658 8.98985 37.4206 8.71401 37.1951C8.57983 37.0778 8.43378 36.9729 8.30869 36.8444L7.93005 36.4607C7.40186 35.9674 6.96303 35.3847 6.49725 34.8159C6.29384 34.5102 6.08914 34.2029 5.88351 33.8943L5.7293 33.6625L5.59637 33.4173L5.33214 32.9238L5.06698 32.428L4.84787 31.9077L4.6297 31.3845L4.5203 31.1218L4.43537 30.85C4.32376 30.4866 4.21186 30.1215 4.09965 29.755C4.02379 29.3794 3.94731 29.0025 3.87083 28.6241C3.62163 27.1004 3.60564 25.5195 3.82788 23.9484C4.09118 22.3842 4.5852 20.8823 5.28387 19.5043C5.47132 19.1664 5.65816 18.8301 5.84402 18.4947C6.06188 18.179 6.27908 17.8646 6.49508 17.5516C6.5496 17.4736 6.60164 17.3941 6.65838 17.3179L6.84207 17.1005L7.20816 16.6669L7.5746 16.2366L7.9774 15.8432L8.37859 15.4517C8.4457 15.3871 8.51086 15.3203 8.57952 15.258L8.79677 15.0833C9.08608 14.8505 9.3738 14.6187 9.66033 14.3882C10.2762 13.9857 10.8709 13.5617 11.5238 13.2495L12.0009 12.9971C12.1589 12.9122 12.33 12.8557 12.4933 12.7843C12.8246 12.652 13.1488 12.5048 13.481 12.3868C13.8189 12.2845 14.1549 12.1825 14.4887 12.0814L14.7389 12.0056C14.8232 11.985 14.9091 11.9706 14.9941 11.9528C15.1643 11.9189 15.3338 11.8852 15.5028 11.8515C16.1745 11.687 16.8585 11.6599 17.5258 11.5863C17.8609 11.5698 18.1953 11.5829 18.5267 11.5797C18.6925 11.58 18.8574 11.5804 19.0219 11.581C19.1862 11.5847 19.3488 11.6109 19.5115 11.625C19.8366 11.6584 20.1591 11.6918 20.4792 11.7248C20.7977 11.7691 21.108 11.8483 21.4189 11.9079C22.0465 12.0093 22.6332 12.2262 23.2194 12.4046L23.4382 12.4733C23.51 12.4988 23.5786 12.5319 23.6488 12.5609C23.7883 12.6205 23.9275 12.6801 24.066 12.7391C24.3409 12.8614 24.6215 12.9655 24.8844 13.1C25.1434 13.2426 25.3998 13.3836 25.6537 13.5233C25.7806 13.5932 25.9073 13.6628 26.0329 13.7321C26.1536 13.8098 26.2696 13.893 26.3875 13.9726C26.6219 14.1333 26.8539 14.2921 27.0833 14.4496C27.2015 14.5242 27.3068 14.6137 27.4115 14.7033C27.5172 14.7915 27.6219 14.8795 27.7262 14.9672C27.9334 15.1438 28.1444 15.3116 28.3418 15.4898C28.5284 15.6795 28.7127 15.8673 28.8951 16.0526C30.3426 17.5485 31.3162 19.1961 31.9281 20.7217C32.5321 22.2522 32.8434 23.6549 32.9167 24.8108C32.9305 24.9549 32.944 25.095 32.9571 25.231C32.9731 25.367 32.9825 25.499 32.9772 25.6275C32.9756 25.8843 32.9744 26.1242 32.9731 26.3472C32.9694 26.57 32.9753 26.7762 32.9637 26.9637C32.9434 27.1503 32.9246 27.32 32.9079 27.4716C32.8741 27.7721 32.8481 28.0017 32.8299 28.1605C32.8108 28.3143 32.7982 28.3932 32.7982 28.3932Z" fill="#263238"/>
<path d="M16.172 31.157C15.8592 31.157 15.5733 30.9711 15.4502 30.6797L13.0162 24.9277H10.5239V23.3678H13.5365C13.8519 23.3678 14.1365 23.556 14.2587 23.8451L15.9185 27.768L17.1372 21.953C17.213 21.5914 17.5331 21.3322 17.9042 21.3322H25.3145V22.8921H18.5414L16.9394 30.5362C16.8695 30.8703 16.5893 31.1205 16.2476 31.1532C16.2225 31.1558 16.1971 31.157 16.172 31.157Z" fill="#2563EB"/>
<path d="M22.8121 25.6708L19.0754 29.3909L20.1838 30.4937L23.9204 26.7736L22.8121 25.6708Z" fill="#2563EB"/>
<path d="M20.1836 25.6693L19.0754 26.7723L22.8125 30.4918L23.9208 29.3888L20.1836 25.6693Z" fill="#2563EB"/>
</g>
<defs>
<clipPath id="clip0_19_152">
<rect width="125" height="120" fill="white" transform="translate(0 0.875916)"/>
</clipPath>
</defs>
</svg>
