<svg width="282" height="274" viewBox="0 0 282 274" fill="none" xmlns="http://www.w3.org/2000/svg">
<path d="M206.328 229.921C206.221 230.026 204.587 228.398 201.432 225.698C199.855 224.349 197.891 222.739 195.519 221.002C193.14 219.279 190.353 217.411 187.088 215.718C185.455 214.878 183.705 214.074 181.825 213.438C179.952 212.817 177.924 212.313 175.883 212.381C174.871 212.416 173.863 212.615 172.999 213.067C172.126 213.506 171.459 214.256 171.029 215.162C170.592 216.071 170.437 217.161 170.438 218.273C170.441 219.39 170.607 220.543 170.869 221.696C171.417 224.003 172.323 226.314 173.432 228.586C174.546 230.859 175.855 233.105 177.32 235.308C180.238 239.724 183.751 243.981 187.658 248.031C191.589 252.061 195.739 255.702 200.066 258.753C202.224 260.285 204.43 261.662 206.668 262.844C208.906 264.021 211.188 264.997 213.479 265.614C214.624 265.91 215.771 266.111 216.888 266.148C217.999 266.182 219.093 266.061 220.015 265.651C220.933 265.249 221.703 264.605 222.168 263.745C222.645 262.894 222.874 261.893 222.94 260.882C223.069 258.844 222.626 256.801 222.062 254.91C221.483 253.012 220.733 251.238 219.942 249.581C218.349 246.266 216.566 243.424 214.915 240.995C213.25 238.572 211.7 236.561 210.4 234.944C207.798 231.707 206.219 230.025 206.328 229.921C206.373 229.877 206.815 230.251 207.616 231.006C208.408 231.769 209.554 232.919 210.945 234.481C212.339 236.039 213.985 238.004 215.752 240.402C217.504 242.808 219.393 245.643 221.105 249.007C221.954 250.691 222.767 252.505 223.412 254.486C224.037 256.466 224.564 258.62 224.457 260.971C224.397 262.138 224.153 263.37 223.536 264.508C222.937 265.655 221.868 266.591 220.66 267.126C219.444 267.676 218.123 267.821 216.846 267.797C215.563 267.768 214.299 267.555 213.058 267.247C210.584 266.604 208.191 265.597 205.86 264.393C203.53 263.183 201.254 261.778 199.034 260.219C194.585 257.111 190.348 253.41 186.344 249.304C182.363 245.179 178.793 240.833 175.822 236.293C174.331 234.028 172.996 231.71 171.857 229.346C170.724 226.98 169.79 224.558 169.223 222.066C168.952 220.817 168.778 219.547 168.788 218.264C168.803 216.987 168.988 215.671 169.574 214.473C170.145 213.281 171.112 212.241 172.277 211.677C173.433 211.094 174.672 210.888 175.84 210.863C178.194 210.827 180.33 211.418 182.291 212.103C184.252 212.807 186.04 213.674 187.697 214.574C191.009 216.386 193.785 218.36 196.137 220.184C198.481 222.022 200.395 223.727 201.911 225.168C203.43 226.606 204.545 227.786 205.284 228.601C206.012 229.424 206.373 229.877 206.328 229.921Z" fill="#E0E0E0"/>
<path d="M185.259 235.182C185.402 235.226 184.763 237.367 183.922 241.296C183.503 243.26 183.043 245.674 182.67 248.494C182.316 251.314 182.029 254.547 182.139 258.102C182.201 259.875 182.341 261.735 182.711 263.615C183.08 265.484 183.631 267.428 184.675 269.099C185.195 269.927 185.848 270.672 186.641 271.189C187.432 271.712 188.377 271.949 189.352 271.918C190.33 271.889 191.339 271.575 192.299 271.089C193.262 270.605 194.188 269.967 195.062 269.231C196.816 267.761 198.399 265.956 199.859 263.999C201.31 262.03 202.654 259.905 203.879 257.659C206.345 253.173 208.387 248.239 210.047 243.055C211.681 237.861 212.861 232.651 213.434 227.563C213.729 225.021 213.858 222.51 213.808 220.064C213.744 217.622 213.492 215.235 212.907 213.021C212.617 211.916 212.228 210.86 211.721 209.909C211.217 208.958 210.574 208.12 209.792 207.532C209.014 206.945 208.105 206.593 207.157 206.565C206.21 206.53 205.247 206.762 204.345 207.139C202.528 207.902 200.956 209.172 199.577 210.486C198.19 211.809 197.003 213.247 195.929 214.66C193.788 217.5 192.158 220.308 190.821 222.815C189.499 225.334 188.483 227.57 187.692 229.416C186.114 233.112 185.402 235.229 185.259 235.182C185.199 235.163 185.314 234.615 185.589 233.585C185.876 232.56 186.331 231.055 187.031 229.155C187.726 227.253 188.656 224.952 189.909 222.354C191.179 219.766 192.754 216.866 194.888 213.894C195.96 212.414 197.154 210.902 198.59 209.479C200.024 208.066 201.662 206.667 203.752 205.744C204.792 205.292 205.966 204.974 207.215 205.002C208.462 205.02 209.735 205.483 210.76 206.247C211.795 207.009 212.579 208.035 213.173 209.124C213.771 210.217 214.209 211.384 214.536 212.579C215.193 214.973 215.471 217.476 215.558 220.018C215.628 222.561 215.51 225.152 215.219 227.764C214.654 232.992 213.461 238.313 211.794 243.612C210.1 248.9 208.005 253.933 205.451 258.528C204.182 260.829 202.784 263.012 201.26 265.049C199.724 267.075 198.052 268.959 196.135 270.535C195.178 271.323 194.148 272.023 193.029 272.571C191.915 273.118 190.684 273.504 189.399 273.529C188.122 273.561 186.815 273.206 185.785 272.501C184.748 271.804 183.973 270.867 183.384 269.898C182.209 267.938 181.678 265.851 181.321 263.87C180.969 261.88 180.866 259.956 180.844 258.128C180.815 254.47 181.201 251.191 181.656 248.345C182.131 245.499 182.699 243.083 183.228 241.128C183.753 239.172 184.249 237.68 184.606 236.677C184.977 235.677 185.199 235.163 185.259 235.182Z" fill="#E0E0E0"/>
<path d="M192.466 225.022C192.504 225.167 190.347 225.75 186.563 227.102C184.673 227.779 182.378 228.658 179.784 229.825C177.2 231.008 174.299 232.465 171.334 234.429C169.858 235.415 168.351 236.512 166.947 237.817C165.551 239.114 164.189 240.606 163.317 242.373C162.886 243.251 162.596 244.198 162.574 245.145C162.546 246.093 162.841 247.021 163.38 247.833C163.919 248.65 164.717 249.342 165.635 249.902C166.553 250.466 167.583 250.918 168.669 251.274C170.842 251.992 173.209 252.388 175.643 252.601C178.081 252.799 180.595 252.824 183.149 252.683C188.261 252.419 193.531 251.559 198.813 250.244C204.09 248.901 209.141 247.162 213.769 244.973C216.086 243.887 218.289 242.674 220.343 241.345C222.386 240.005 224.283 238.535 225.858 236.873C226.645 236.045 227.338 235.159 227.88 234.227C228.424 233.298 228.798 232.31 228.886 231.336C228.976 230.365 228.796 229.407 228.322 228.586C227.853 227.762 227.15 227.066 226.354 226.497C224.749 225.353 222.842 224.685 220.999 224.203C219.144 223.719 217.297 223.467 215.53 223.297C211.988 222.971 208.743 223.062 205.908 223.244C203.071 223.445 200.634 223.758 198.648 224.057C194.677 224.66 192.502 225.168 192.466 225.022C192.451 224.961 192.977 224.77 193.998 224.462C195.021 224.167 196.54 223.762 198.524 223.357C200.507 222.947 202.953 222.527 205.822 222.226C208.691 221.944 211.986 221.758 215.636 222.009C217.458 222.142 219.373 222.362 221.338 222.833C223.294 223.309 225.345 223.966 227.23 225.257C228.162 225.904 229.05 226.734 229.683 227.812C230.324 228.882 230.6 230.209 230.49 231.482C230.387 232.763 229.927 233.969 229.313 235.048C228.698 236.132 227.936 237.118 227.092 238.025C225.402 239.843 223.42 241.397 221.304 242.808C219.178 244.206 216.913 245.468 214.539 246.595C209.796 248.865 204.644 250.651 199.26 252.021C193.871 253.363 188.489 254.229 183.238 254.476C180.614 254.608 178.021 254.568 175.487 254.344C172.956 254.104 170.474 253.673 168.125 252.873C166.952 252.474 165.814 251.966 164.759 251.303C163.708 250.644 162.732 249.8 162.034 248.72C161.334 247.651 160.949 246.352 161.006 245.106C161.053 243.858 161.442 242.705 161.956 241.695C163.004 239.665 164.5 238.115 165.997 236.769C167.504 235.423 169.086 234.322 170.629 233.342C173.725 231.393 176.715 229.996 179.376 228.885C182.046 227.792 184.4 227.003 186.34 226.425C188.28 225.842 189.81 225.479 190.85 225.255C191.896 225.042 192.451 224.961 192.466 225.022Z" fill="#E0E0E0"/>
<path d="M203.539 237.734C204.333 240.889 202.42 244.09 199.265 244.885C196.11 245.679 192.909 243.766 192.115 240.611C191.321 237.456 193.234 234.255 196.389 233.461C199.544 232.666 202.745 234.579 203.539 237.734Z" fill="#E0E0E0"/>
<path d="M264.311 90.3229C260.247 92.5176 256.182 94.7122 252.118 96.9069C251.327 97.3335 250.519 97.7749 249.93 98.4519C249.34 99.1297 249.008 100.105 249.328 100.944C249.69 101.891 250.783 102.394 251.797 102.38C252.811 102.366 253.769 101.944 254.695 101.53C259.708 99.2884 264.72 97.0474 269.733 94.8056C270.991 94.2435 272.284 93.6566 273.229 92.6531C274.174 91.6504 274.693 90.1154 274.121 88.8614C273.511 87.5247 272.115 86.9023 270.692 87.2718C269.281 87.6396 265.602 89.607 264.311 90.3229Z" fill="#FAFAFA"/>
<path d="M264.311 90.3229C264.304 90.3105 264.484 90.1931 264.836 89.9856C265.188 89.779 265.712 89.4814 266.395 89.1135C267.078 88.7465 267.919 88.3043 268.919 87.8347C269.421 87.6041 269.957 87.3561 270.57 87.1668C271.187 86.9833 271.916 86.9585 272.602 87.2189C273.288 87.471 273.902 88.0191 274.246 88.7391C274.613 89.464 274.606 90.3634 274.337 91.1644C274.066 91.9703 273.53 92.7151 272.837 93.2781C272.149 93.8534 271.338 94.2841 270.504 94.6742C267.157 96.1779 263.485 97.8278 259.63 99.5596C257.696 100.419 255.808 101.257 253.983 102.068C253.056 102.444 252.018 102.74 251 102.497C250.504 102.378 250.031 102.148 249.661 101.791C249.288 101.439 249.047 100.941 249.014 100.437C248.947 99.4199 249.497 98.5213 250.173 97.9369C250.856 97.3384 251.635 96.9665 252.346 96.5788C253.781 95.815 255.119 95.1016 256.346 94.4486C258.767 93.1739 260.74 92.1348 262.153 91.3909C262.813 91.0536 263.342 90.7833 263.742 90.5791C264.109 90.3989 264.305 90.3097 264.311 90.3229C264.319 90.3361 264.137 90.4502 263.785 90.6568C263.394 90.8792 262.879 91.1726 262.234 91.5405C260.837 92.3134 258.886 93.3938 256.492 94.7189C255.273 95.3859 253.943 96.115 252.517 96.8954C251.804 97.2897 251.05 97.665 250.426 98.2221C249.809 98.7594 249.348 99.5678 249.41 100.407C249.457 101.252 250.221 101.911 251.094 102.099C251.971 102.308 252.926 102.049 253.824 101.68C255.643 100.868 257.525 100.029 259.454 99.1686C263.313 97.4484 266.987 95.81 270.336 94.3163C271.161 93.9361 271.944 93.5252 272.595 92.9887C273.253 92.4614 273.74 91.7893 273.998 91.0511C274.25 90.3187 274.26 89.5244 273.945 88.8846C273.642 88.2332 273.103 87.7405 272.491 87.5049C271.219 86.9891 270.002 87.6471 269.017 88.0554C268.014 88.5002 267.165 88.9201 266.471 89.264C265.809 89.5963 265.278 89.8624 264.877 90.0633C264.513 90.2443 264.319 90.3361 264.311 90.3229Z" fill="#263238"/>
<path d="M112.426 41.0594L111.625 105.602C111.488 116.578 113.531 132.729 130.894 132.153C145.921 130.517 149.908 116.292 150.025 106.049C150.08 101.191 150.136 97.1392 150.175 96.6408C150.175 96.6408 166.625 95.2992 168.014 79.0519C168.685 71.2006 168.75 54.9161 168.638 40.1832C168.518 24.3599 156.248 11.2902 140.467 10.1379L138.898 10.023C121.905 9.77497 112.203 24.0673 112.426 41.0594Z" fill="#FFBF9D"/>
<path d="M150.174 96.6399C150.174 96.6399 139.88 96.4928 129.457 88.8341C129.457 88.8341 133.755 101.09 150.089 100.809L150.174 96.6399Z" fill="#FF9A6C"/>
<path d="M140.859 46.8408C140.536 47.1698 138.66 45.6595 135.937 45.586C133.219 45.4727 131.183 46.8482 130.897 46.4977C130.756 46.3415 131.092 45.7414 131.979 45.1181C132.853 44.4973 134.331 43.912 136.027 43.9699C137.722 44.0302 139.13 44.7114 139.932 45.3909C140.751 46.0737 141.018 46.6936 140.859 46.8408Z" fill="#263238"/>
<path d="M140.777 52.4709C140.733 53.6339 139.712 54.5556 138.497 54.5325C137.285 54.5093 136.334 53.5496 136.378 52.3866C136.422 51.2235 137.443 50.3002 138.656 50.3233C139.871 50.3464 140.821 51.3078 140.777 52.4709Z" fill="#263238"/>
<path d="M147.678 65.7763C147.676 65.6333 149.249 65.4787 151.79 65.3407C152.433 65.3217 153.047 65.239 153.186 64.8108C153.37 64.3611 153.153 63.6536 152.898 62.8881C152.41 61.3002 151.901 59.6353 151.365 57.8912C149.249 50.7814 147.768 44.9545 148.055 44.871C148.342 44.7883 150.29 50.4838 152.405 57.5936C152.912 59.346 153.396 61.0158 153.856 62.6137C154.045 63.3568 154.399 64.2099 154.004 65.1423C153.797 65.606 153.304 65.9185 152.887 65.9987C152.469 66.0937 152.109 66.0747 151.792 66.0706C149.249 66.0227 147.677 65.9193 147.678 65.7763Z" fill="#263238"/>
<path d="M139.701 36.6055C139.438 37.2097 137.258 36.7551 134.649 36.889C132.037 36.9675 129.895 37.5982 129.592 37.0179C129.459 36.7402 129.865 36.1847 130.751 35.6457C131.631 35.1084 133.006 34.6356 134.572 34.5711C136.137 34.5091 137.54 34.8679 138.453 35.3325C139.374 35.797 139.816 36.3186 139.701 36.6055Z" fill="#263238"/>
<path d="M165.554 41.6504C165.268 42.1422 163.144 41.5958 160.57 41.5164C157.996 41.3908 155.859 41.7669 155.587 41.2519C155.468 41.0064 155.892 40.5658 156.79 40.174C157.679 39.783 159.054 39.4846 160.597 39.5449C162.14 39.6086 163.504 40.0161 164.382 40.4774C165.268 40.9403 165.68 41.4148 165.554 41.6504Z" fill="#263238"/>
<path d="M112.875 53.1975C112.607 53.057 101.942 49.0768 101.486 60.2205C101.03 71.3642 112.312 69.5241 112.344 69.2051C112.376 68.8868 112.875 53.1975 112.875 53.1975Z" fill="#FFBF9D"/>
<path d="M109.113 64.8438C109.065 64.8058 108.913 64.972 108.579 65.1084C108.253 65.2414 107.699 65.32 107.127 65.0786C105.968 64.5983 105.053 62.6888 105.081 60.6777C105.094 59.6626 105.346 58.7053 105.738 57.9209C106.112 57.1199 106.662 56.5718 107.26 56.4908C107.855 56.3784 108.26 56.7504 108.383 57.0694C108.521 57.3869 108.44 57.6067 108.498 57.6282C108.528 57.6572 108.746 57.4513 108.674 56.9876C108.638 56.7644 108.518 56.4966 108.265 56.2717C108.007 56.0436 107.618 55.9163 107.203 55.9444C106.341 55.9684 105.535 56.7272 105.104 57.5894C104.626 58.4532 104.318 59.5278 104.303 60.6677C104.283 62.9162 105.346 65.0645 106.939 65.5961C107.714 65.8325 108.378 65.6233 108.726 65.3737C109.082 65.1125 109.151 64.8662 109.113 64.8438Z" fill="#FF9A6C"/>
<path d="M145.048 73.492C145.17 73.211 142.987 72.5563 141.452 70.5087C140.685 69.5002 140.242 68.4016 139.91 67.5982C139.585 66.7889 139.339 66.2814 139.218 66.3186C139.105 66.3541 139.132 66.9013 139.312 67.7817C139.498 68.6521 139.877 69.8962 140.746 71.0411C141.601 72.1975 142.75 72.8886 143.593 73.2201C144.443 73.5656 145.019 73.5871 145.048 73.492Z" fill="#263238"/>
<path d="M190.213 25.5973C190.037 24.9435 189.561 24.4045 188.978 24.0607C187.705 23.3093 186.24 23.4093 184.824 23.387C180.511 23.3183 176.233 22.0015 172.606 19.6729C170.907 17.2236 168.994 14.9215 166.919 12.7822C161.994 7.70425 157.941 4.24812 153.75 2.56099C148.328 0.377871 139.26 -0.506617 133.608 0.977173C127.955 2.46014 122.877 7.04707 122.091 12.8384C118.921 10.1577 114.161 10.1808 110.3 11.7332L110.203 11.691C105.903 13.2236 103.459 17.7667 102.19 22.1528C100.922 26.538 100.38 31.2275 98.0581 35.1581C97.572 35.9798 96.9959 36.9651 97.4199 37.8198C97.7481 38.4811 98.588 38.7539 99.3187 38.6464C100.049 38.539 100.697 38.1356 101.321 37.7405C100.841 38.8886 100.361 40.0376 99.8816 41.1858C101.437 41.457 103.048 41.3321 104.559 40.8734C105.473 44.9742 106.562 49.6579 107.619 52.4378C109.417 52.4329 111.062 52.561 112.17 53.5579C113.676 54.9119 114.35 57.4596 116.853 56.4933C118.127 56.0006 119.289 53.3281 119.716 52.0311C122.544 43.4194 123.483 34.1951 122.462 25.189C124.242 23.2902 126.392 21.7387 128.756 20.6467L128.563 20.8203C133.104 19.2431 138.24 17.6915 142.549 19.8234C145.891 21.4774 147.855 24.9443 150.354 27.7118C155.089 32.9559 161.476 35.8062 168.535 36.1104C168.775 40.6857 168.391 47.1516 168.631 51.7269L172.48 44.3981L172.483 44.4345C172.798 43.898 173.059 43.3574 173.311 42.8151L173.397 42.6506V42.6299C173.798 41.7595 174.179 40.8882 174.685 40.0269C174.699 40.0401 174.713 40.0525 174.728 40.0658C177.207 42.253 180.859 38.9093 178.904 36.2434C178.517 35.7144 178.053 35.2432 177.522 34.8547C178.655 35.9186 180.344 36.4286 181.83 35.9715C183.315 35.5144 184.468 34.0115 184.339 32.4633C184.25 31.406 183.495 30.4612 182.541 30.0429C184.543 30.1967 186.59 29.7611 188.336 28.7658C189.479 28.1111 190.601 27.0365 190.213 25.5973Z" fill="#263238"/>
<path d="M127.206 14.7032C127.238 14.7454 126.525 15.1331 125.576 16.1945C124.635 17.2509 123.579 19.0893 123.081 21.5907C122.825 22.8339 122.665 24.2251 122.666 25.7213C122.659 27.2183 122.78 28.8212 122.894 30.51C123.003 32.1988 123.125 33.9834 123.016 35.84C122.962 36.7667 122.85 37.7099 122.65 38.6522C122.445 39.578 122.202 40.5832 121.504 41.3792C120.947 42.0281 120.016 42.3158 119.21 42.1505C118.398 42.0067 117.675 41.5743 117.146 40.9849C116.099 39.764 115.839 38.2166 115.579 36.8518L115.921 36.8932C115.364 38.119 114.791 39.3309 113.943 40.298C113.11 41.2709 111.955 41.9149 110.782 42.0199C110.197 42.0728 109.608 41.9785 109.106 41.7264C108.594 41.4776 108.222 41.0527 107.968 40.6047C107.725 40.1476 107.597 39.6466 107.623 39.1639C107.65 38.682 107.839 38.224 108.145 37.9L108.317 38.0537C107.064 39.4813 105.741 40.2484 104.826 40.6733C104.364 40.8857 103.994 41.013 103.744 41.0932C103.492 41.1685 103.359 41.199 103.356 41.1891C103.353 41.1784 103.478 41.1271 103.722 41.0329C103.964 40.9337 104.323 40.789 104.771 40.5609C105.659 40.1062 106.94 39.3193 108.141 37.9033L108.313 38.057C107.767 38.6365 107.735 39.6541 108.206 40.4724C108.443 40.8758 108.784 41.2536 109.235 41.4652C109.683 41.6851 110.219 41.7669 110.753 41.7124C111.831 41.6049 112.908 41.0015 113.688 40.0757C114.487 39.1515 115.042 37.9719 115.592 36.7435L115.826 36.2219L115.934 36.7849C116.194 38.1471 116.471 39.6334 117.425 40.7336C117.899 41.2619 118.561 41.6529 119.273 41.776C119.984 41.9132 120.737 41.6793 121.223 41.123C121.833 40.4336 122.083 39.4821 122.282 38.5712C122.478 37.652 122.59 36.7287 122.646 35.8169C122.758 33.9917 122.646 32.2194 122.546 30.5315C122.441 28.8427 122.332 27.2332 122.353 25.7172C122.366 24.202 122.544 22.7926 122.82 21.5328C123.36 18.9984 124.476 17.1377 125.467 16.0945C126.466 15.0463 127.206 14.7032 127.206 14.7032Z" fill="#455A64"/>
<path d="M177.485 30.5175C177.489 30.5224 177.445 30.5605 177.354 30.6291C177.245 30.7092 177.111 30.8068 176.949 30.925C176.771 31.0581 176.545 31.2127 176.26 31.3664C175.979 31.5276 175.659 31.7235 175.271 31.8872C173.762 32.6047 171.341 33.3172 168.315 33.1387C165.316 32.9701 161.718 31.9078 158.505 29.5164C155.258 27.182 152.409 23.7425 150.078 19.8036C148.896 17.8354 147.932 15.8176 146.87 13.9544C145.815 12.0904 144.65 10.3668 143.239 9.00623C141.844 7.63899 140.224 6.62803 138.555 6.16347C137.724 5.91631 136.885 5.86009 136.085 5.8791C135.283 5.92126 134.524 6.08411 133.824 6.31309C132.423 6.78261 131.293 7.55716 130.435 8.3532C129.575 9.15668 128.997 10.0048 128.601 10.7322C127.861 12.2259 127.821 13.1856 127.762 13.1691C127.755 13.1683 127.76 13.1104 127.775 12.9988C127.796 12.8641 127.822 12.7004 127.852 12.5012C127.931 12.0656 128.119 11.4348 128.469 10.6661C128.851 9.91551 129.422 9.03599 130.288 8.19944C131.151 7.37034 132.299 6.56024 133.736 6.05931C134.454 5.81463 135.237 5.63774 136.069 5.58649C136.896 5.55755 137.777 5.61128 138.638 5.86009C140.372 6.32796 142.047 7.36207 143.481 8.75493C144.933 10.1412 146.125 11.8945 147.193 13.7701C148.268 15.6465 149.232 17.6593 150.404 19.6093C152.717 23.5184 155.525 26.9192 158.71 29.2329C161.864 31.6037 165.378 32.6675 168.33 32.87C171.306 33.0792 173.698 32.4195 175.209 31.7516C176.733 31.0738 177.455 30.4712 177.485 30.5175Z" fill="#455A64"/>
<path d="M178.964 23.3754C178.977 23.3977 178.77 23.5407 178.381 23.7813C177.997 24.0285 177.407 24.3335 176.655 24.6575C175.905 24.9882 174.976 25.2965 173.922 25.5552C172.865 25.7941 171.681 25.9718 170.428 26.0181C169.175 26.0512 167.981 25.9503 166.91 25.7792C165.842 25.5891 164.895 25.3403 164.125 25.0584C163.355 24.7823 162.746 24.5162 162.347 24.2946C161.944 24.0797 161.728 23.9499 161.74 23.9268C161.771 23.8623 162.669 24.3244 164.21 24.8038C164.977 25.0493 165.915 25.2659 166.965 25.4337C168.019 25.5825 169.188 25.671 170.416 25.6387C171.643 25.5924 172.804 25.4296 173.845 25.2138C174.883 24.9791 175.804 24.703 176.555 24.4087C178.062 23.8317 178.928 23.3134 178.964 23.3754Z" fill="#455A64"/>
<path d="M165.675 47.8658C165.352 48.1948 163.476 46.6846 160.753 46.611C158.035 46.4978 155.999 47.8733 155.713 47.5228C155.572 47.3666 155.908 46.7664 156.796 46.1432C157.669 45.5224 159.147 44.9371 160.843 44.995C162.538 45.0553 163.947 45.7365 164.748 46.416C165.568 47.0996 165.834 47.7195 165.675 47.8658Z" fill="#263238"/>
<path d="M165.229 53.2619C165.185 54.425 164.164 55.3467 162.949 55.3235C161.736 55.3004 160.786 54.3407 160.829 53.1776C160.873 52.0146 161.894 51.0912 163.108 51.1144C164.323 51.1375 165.273 52.0989 165.229 53.2619Z" fill="#263238"/>
<path d="M240.236 156.011L239.312 155.844L258.255 122.732L255.261 113.186C255.261 113.186 251.79 99.5909 254.682 96.12C254.682 96.12 261.009 88.6729 263.061 88.7754C265.114 88.8779 266.756 89.2887 267.166 90.8279C267.166 90.8279 270.656 90.4171 271.58 91.5463C272.503 92.6754 273.221 94.0096 273.221 94.0096C273.221 94.0096 277.019 93.7021 278.045 96.9854C278.045 96.9854 281.636 98.8329 281.945 101.501C282.252 104.17 281.226 116.587 280.097 119.769C278.968 122.951 274.761 129.621 273.529 139.473C272.297 149.325 267.904 162.192 264.045 176.592L253.619 174.263L240.236 156.011Z" fill="#FFBF9D"/>
<path d="M70.0851 141.063C70.0851 141.063 58.476 206.999 59.0364 213.164C59.5969 219.329 62.6843 229.138 69.6875 230.819C76.6907 232.501 83.1367 230.819 83.1367 230.819L74.7299 149.832L70.0851 141.063Z" fill="#2563EB"/>
<path d="M104.077 107.053C104.077 107.053 90.1837 116.929 87.1119 119.833C74.2678 131.981 71.5788 136.953 70.0843 141.063C68.5897 145.173 79.0011 240.637 79.0011 240.637L81.1106 257.316L82.6341 271.743L178.627 271.255C178.627 271.255 177.887 267.042 177.927 261.918L178.627 172.351L163.976 112.379L154.961 109.813L153.141 102.664C153.141 102.664 141.939 94.394 123.465 94.1551C117.781 94.0816 109.742 96.3151 105.251 99.7993L104.077 107.053Z" fill="#2563EB"/>
<path d="M153.071 112.625C153.071 112.625 163.944 112.039 165.384 112.827C166.825 113.615 177.738 119.383 187.875 127.493C198.013 135.603 226.899 154.166 226.899 154.166C226.899 154.166 230.904 150.305 234.621 154.698L242.968 148.018C242.968 148.018 264.412 156.149 267.791 172.369C267.791 172.369 268.973 178.816 262.215 182.384C262.215 182.384 244.276 198.428 229.765 196.874C214.435 195.233 180.121 179.182 178.402 178.515L154.76 168.042C154.76 168.042 140.229 140.334 146.65 126.479C153.071 112.625 153.071 112.625 153.071 112.625Z" fill="#2563EB"/>
<path d="M234.406 169.1C234.36 169.117 234.024 168.34 233.69 167.015C233.354 165.694 233.065 163.813 233.092 161.724C233.125 159.635 233.47 157.762 233.843 156.451C234.215 155.137 234.575 154.371 234.621 154.388C234.686 154.411 234.43 155.21 234.139 156.525C233.845 157.838 233.555 159.679 233.523 161.73C233.495 163.78 233.732 165.629 233.987 166.95C234.241 168.273 234.473 169.079 234.406 169.1Z" fill="#263238"/>
<path d="M154.962 109.813C154.957 109.827 154.78 109.791 154.448 109.708C154.073 109.609 153.594 109.483 153.001 109.327C151.743 109.007 149.915 108.568 147.633 108.137C143.078 107.241 136.706 106.394 129.635 105.918C122.561 105.487 116.129 105.527 111.509 105.972C109.197 106.17 107.339 106.459 106.063 106.69C105.462 106.809 104.976 106.905 104.596 106.98C104.259 107.042 104.08 107.068 104.076 107.053C104.072 107.039 104.244 106.985 104.574 106.896C104.951 106.8 105.433 106.678 106.028 106.526C107.299 106.242 109.16 105.906 111.478 105.668C116.112 105.144 122.567 105.056 129.662 105.487C136.752 105.964 143.136 106.861 147.692 107.837C149.973 108.308 151.797 108.794 153.045 109.164C153.63 109.353 154.103 109.505 154.473 109.625C154.799 109.734 154.967 109.799 154.962 109.813Z" fill="#263238"/>
<path d="M116.979 104.852C116.86 104.869 116.536 103.236 116.255 101.207C115.973 99.1769 115.84 97.5187 115.957 97.5021C116.074 97.4856 116.398 99.1174 116.681 101.148C116.964 103.177 117.097 104.836 116.979 104.852Z" fill="#263238"/>
<path d="M120.621 104.54C120.518 104.579 119.902 102.981 119.763 100.892C119.612 98.804 120.002 97.1359 120.109 97.1607C120.236 97.1789 120.045 98.8329 120.192 100.862C120.326 102.892 120.744 104.504 120.621 104.54Z" fill="#263238"/>
<path d="M207.328 190.414C207.323 190.428 207.151 190.383 206.827 190.286C206.461 190.169 205.993 190.021 205.416 189.838C204.201 189.421 202.452 188.787 200.313 187.951C196.031 186.287 190.185 183.825 183.766 181.018C177.345 178.209 171.571 175.583 167.403 173.658C165.362 172.701 163.693 171.918 162.48 171.349C161.937 171.083 161.497 170.868 161.152 170.7C160.85 170.547 160.695 170.46 160.7 170.447C160.706 170.434 160.874 170.494 161.187 170.621C161.541 170.771 161.992 170.962 162.549 171.197C163.775 171.735 165.463 172.476 167.528 173.381C171.772 175.254 177.551 177.805 183.938 180.623C190.353 183.43 196.178 185.934 200.426 187.669C202.548 188.539 204.277 189.215 205.472 189.68C206.037 189.894 206.495 190.067 206.853 190.203C207.169 190.328 207.332 190.4 207.328 190.414Z" fill="#263238"/>
<g opacity="0.3">
<path d="M104.398 106.969C119.66 109.671 135.13 106.994 151.28 108.905C135.685 105.677 119.445 104.147 104.398 106.969Z" fill="black"/>
</g>
<g opacity="0.3">
<path d="M77.6173 230.944C69.0328 210.84 70.0488 188.115 71.2135 166.286L77.6173 230.944Z" fill="black"/>
</g>
<path d="M70.0851 155.438C70.0926 155.437 70.1075 155.523 70.1306 155.691C70.1537 155.882 70.1835 156.129 70.2207 156.438C70.2934 157.125 70.396 158.089 70.5257 159.315C70.7762 161.846 71.1333 165.456 71.5739 169.905C72.446 178.849 73.6371 191.205 75.0573 204.84C76.4816 218.479 77.9025 230.812 79.04 239.724C79.5996 244.181 80.0815 247.784 80.4204 250.274C80.5816 251.496 80.7089 252.457 80.799 253.142C80.8354 253.451 80.8643 253.698 80.8866 253.89C80.904 254.058 80.9098 254.146 80.9023 254.147C80.8949 254.147 80.8751 254.063 80.8437 253.896C80.8106 253.706 80.7676 253.461 80.7139 253.155C80.6039 252.473 80.451 251.515 80.2551 250.298C79.8658 247.816 79.3375 244.217 78.7391 239.763C77.5239 230.858 76.0542 218.527 74.6299 204.885C73.2098 191.246 72.0657 178.885 71.2713 169.933C70.8878 165.479 70.577 161.864 70.3588 159.33C70.2629 158.1 70.1876 157.134 70.1339 156.445C70.1141 156.135 70.0984 155.887 70.086 155.694C70.0785 155.525 70.0777 155.439 70.0851 155.438Z" fill="#263238"/>
<path d="M136.107 144.65C136.107 144.665 135.89 144.676 135.478 144.684C135.025 144.688 134.425 144.692 133.677 144.697C132.114 144.691 129.852 144.713 127.059 144.778C121.472 144.904 113.756 145.314 105.289 146.316C96.8206 147.329 89.224 148.741 83.7641 149.93C81.0338 150.522 78.8292 151.031 77.3115 151.404C76.5824 151.575 75.9996 151.711 75.5582 151.815C75.1565 151.904 74.9432 151.944 74.9391 151.93C74.9349 151.916 75.1408 151.847 75.5359 151.731C75.9723 151.608 76.5485 151.445 77.2701 151.242C78.7762 150.819 80.9726 150.265 83.698 149.633C89.1479 148.367 96.7528 146.904 105.239 145.889C113.723 144.884 121.458 144.522 127.054 144.474C129.852 144.448 132.117 144.472 133.68 144.529C134.429 144.558 135.027 144.58 135.48 144.597C135.892 144.617 136.108 144.635 136.107 144.65Z" fill="#263238"/>
<path d="M98.659 166C98.54 165.996 98.764 156.865 99.1592 145.609C99.5543 134.349 99.9709 125.226 100.09 125.231C100.209 125.235 99.985 134.364 99.589 145.625C99.1947 156.88 98.7781 166.005 98.659 166Z" fill="#263238"/>
<path d="M148.497 164.872C148.484 164.879 148.358 164.682 148.132 164.299C147.889 163.881 147.563 163.321 147.154 162.619C146.283 161.122 145.058 159.02 143.555 156.438C142.077 153.81 140.308 150.641 139.043 146.821C138.427 144.912 137.942 142.848 137.697 140.673C137.478 138.495 137.486 136.225 137.678 133.917C138.103 129.32 139.094 124.941 140.897 121.33C141.785 119.523 142.871 117.926 144.071 116.593C145.275 115.263 146.595 114.216 147.885 113.41C150.481 111.797 152.962 111.226 154.65 111.143C156.35 111.051 157.272 111.289 157.272 111.289C157.268 111.346 156.336 111.168 154.662 111.31C153 111.442 150.576 112.051 148.047 113.667C146.79 114.475 145.505 115.517 144.337 116.831C143.173 118.146 142.116 119.722 141.253 121.504C139.499 125.065 138.529 129.392 138.107 133.956C137.917 136.239 137.907 138.48 138.117 140.627C138.353 142.772 138.823 144.807 139.421 146.698C140.649 150.478 142.379 153.646 143.822 156.288C145.275 158.898 146.458 161.022 147.301 162.536C147.68 163.255 147.983 163.829 148.209 164.257C148.41 164.653 148.51 164.865 148.497 164.872Z" fill="#263238"/>
<g opacity="0.3">
<path d="M143.408 155.372C142.206 163.771 148.294 169.341 155.279 174.157C162.263 178.973 168.911 182.704 178.52 186.313L178.629 178.61C178.629 178.61 168.405 174.392 159.057 169.623C153.972 167.029 148.156 164.245 146.473 161.246L143.408 155.372Z" fill="black"/>
</g>
<path d="M225.795 169.655C225.744 169.663 225.529 168.786 225.362 167.338C225.194 165.891 225.106 163.868 225.289 161.648C225.476 159.427 225.896 157.446 226.301 156.047C226.705 154.646 227.06 153.817 227.109 153.833C227.173 153.855 226.92 154.715 226.595 156.122C226.268 157.528 225.901 159.49 225.718 161.683C225.538 163.875 225.576 165.871 225.666 167.311C225.753 168.753 225.861 169.644 225.795 169.655Z" fill="#263238"/>
<path d="M262.255 182.754C262.241 182.758 262.188 182.629 262.101 182.38C262.003 182.083 261.885 181.724 261.742 181.29C261.6 180.813 261.409 180.235 261.148 179.578C260.897 178.917 260.637 178.157 260.262 177.349C260.085 176.94 259.9 176.513 259.707 176.07C259.491 175.635 259.268 175.182 259.037 174.715C258.595 173.769 258.016 172.813 257.448 171.786C256.235 169.776 254.784 167.636 253.092 165.518C251.386 163.41 249.606 161.534 247.918 159.898C246.207 158.288 244.602 156.904 243.189 155.825C242.499 155.262 241.838 154.804 241.268 154.384C240.703 153.959 240.201 153.613 239.786 153.339C239.411 153.079 239.1 152.862 238.844 152.684C238.63 152.53 238.522 152.444 238.53 152.43C238.538 152.418 238.662 152.48 238.89 152.611C239.159 152.771 239.485 152.964 239.878 153.198C240.309 153.452 240.825 153.779 241.406 154.186C241.991 154.589 242.669 155.032 243.373 155.582C244.817 156.637 246.454 158.004 248.19 159.611C249.904 161.241 251.707 163.123 253.427 165.248C255.132 167.383 256.586 169.547 257.79 171.585C258.355 172.626 258.925 173.595 259.357 174.557C259.583 175.032 259.81 175.487 260.009 175.932C260.195 176.383 260.373 176.816 260.543 177.232C260.902 178.052 261.144 178.825 261.375 179.497C261.616 180.166 261.784 180.754 261.902 181.241C262.015 181.685 262.107 182.053 262.184 182.357C262.245 182.614 262.269 182.749 262.255 182.754Z" fill="#263238"/>
<g opacity="0.3">
<path d="M236.545 166.93C236.442 165.676 235.947 164.493 235.613 163.281C234.83 160.433 234.502 157.65 234.621 154.699C232.525 159.75 232.666 165.41 235.197 170.258C236.259 169.582 236.647 168.184 236.545 166.93Z" fill="black"/>
</g>
<g opacity="0.3">
<path d="M76.5171 151.879C82.6763 151.562 88.8107 150.752 94.8417 149.462C94.0961 152.124 93.7489 154.896 93.8159 157.66C95.7245 155.517 97.1306 152.929 97.8895 150.161C98.3127 153.177 100.026 155.988 102.512 157.747C103.121 155.013 103.261 152.175 102.924 149.394C112.041 148.296 121.111 146.795 130.096 144.897C111.915 144.452 93.6687 146.723 76.1509 151.614" fill="black"/>
</g>
<path d="M266.986 90.7321C267.063 90.8395 265.759 91.7017 264.776 93.2921C263.768 94.8685 263.557 96.4176 263.427 96.3944C263.319 96.4077 263.344 94.7412 264.411 93.0631C265.46 91.3743 266.951 90.6296 266.986 90.7321Z" fill="#FF9A6C"/>
<path d="M273.016 94.1179C273.087 94.2286 271.843 94.9792 270.853 96.4093C269.841 97.8253 269.557 99.2496 269.429 99.2206C269.321 99.2256 269.426 97.6748 270.501 96.1613C271.561 94.6387 272.985 94.0146 273.016 94.1179Z" fill="#FF9A6C"/>
<path d="M277.843 96.9953C277.923 97.0945 276.979 97.9195 276.115 99.171C275.238 100.414 274.789 101.584 274.668 101.543C274.561 101.519 274.842 100.232 275.762 98.9247C276.673 97.6103 277.784 96.9027 277.843 96.9953Z" fill="#FF9A6C"/>
<path d="M260.055 98.0849C259.988 98.1899 259.134 97.6286 257.952 97.7253C256.767 97.789 255.998 98.4602 255.917 98.3659C255.879 98.3296 256.018 98.0981 256.362 97.8435C256.702 97.5881 257.265 97.3418 257.922 97.2963C258.579 97.2525 259.17 97.4211 259.542 97.6278C259.919 97.8336 260.087 98.0436 260.055 98.0849Z" fill="#FF9A6C"/>
<path d="M267.608 102.808C267.489 102.851 267.133 101.745 266.045 100.936C264.976 100.1 263.815 100.051 263.826 99.9241C263.825 99.872 264.118 99.8034 264.595 99.8646C265.068 99.9233 265.717 100.146 266.306 100.594C266.893 101.043 267.28 101.61 267.462 102.051C267.647 102.495 267.658 102.795 267.608 102.808Z" fill="#FF9A6C"/>
<path d="M275.109 104.41C275.018 104.5 274.194 103.565 272.78 103.2C271.375 102.802 270.193 103.193 270.158 103.069C270.139 103.021 270.408 102.848 270.908 102.73C271.403 102.61 272.132 102.58 272.892 102.784C273.652 102.992 274.266 103.385 274.633 103.738C275.005 104.092 275.151 104.378 275.109 104.41Z" fill="#FF9A6C"/>
<path d="M72.4487 67.561C78.0955 50.3782 68.7438 31.8712 51.561 26.2244C34.3782 20.5776 15.8712 29.9293 10.2244 47.1121C4.57763 64.2949 13.9294 82.8019 31.1121 88.4487C48.2949 94.0955 66.8019 84.7437 72.4487 67.561Z" fill="white"/>
<path d="M74.1271 83.6012C74.1299 83.6352 73.7685 83.6288 73.1689 83.824C72.577 84.0142 71.7369 84.4703 71.0658 85.3705C70.7377 85.8182 70.4527 86.374 70.3297 87.0132C70.2123 87.6497 70.2533 88.3653 70.5354 89.0414C71.0608 90.3835 72.4759 91.6168 74.1737 91.6599C75.873 91.6712 77.3262 90.4825 77.8941 89.1573C78.1974 88.4905 78.2618 87.777 78.1642 87.137C78.0609 86.4942 77.7943 85.9299 77.4797 85.4724C76.8376 84.5516 76.0123 84.0694 75.4268 83.8608C74.8335 83.6472 74.4721 83.6422 74.4764 83.6083C74.4771 83.5977 74.5655 83.5977 74.7352 83.6069C74.8208 83.6083 74.9254 83.6203 75.0471 83.6465C75.1701 83.6663 75.3115 83.6953 75.465 83.7476C76.0802 83.9279 76.9585 84.3975 77.6557 85.3472C77.9966 85.8196 78.2915 86.41 78.4138 87.0953C78.5305 87.7777 78.4704 88.5527 78.1522 89.2698C77.8509 89.9896 77.3248 90.6586 76.6346 91.1522C75.9522 91.6564 75.0803 91.9697 74.1681 91.9661C73.2573 91.9407 72.3952 91.5991 71.7298 91.0744C71.0559 90.5589 70.551 89.8737 70.2731 89.1446C69.9782 88.4184 69.9421 87.6419 70.0807 86.963C70.2243 86.282 70.5376 85.7015 70.8933 85.2397C71.6202 84.3126 72.5133 83.8714 73.1335 83.7101C73.2884 83.6621 73.4305 83.638 73.5543 83.6217C73.6773 83.5991 73.782 83.5899 73.8668 83.592C74.038 83.5878 74.1264 83.5906 74.1271 83.6012Z" fill="#263238"/>
<path d="M73.9927 62.3725C73.9927 62.3725 74.0012 62.1908 74.0316 61.8379C74.0648 61.478 74.1136 60.9568 74.1773 60.2751C74.2105 59.9314 74.2473 59.5475 74.2883 59.1253C74.3095 58.701 74.2911 58.235 74.2947 57.7308C74.2932 57.2266 74.2918 56.6842 74.2897 56.1043C74.2996 55.8137 74.2763 55.5153 74.2381 55.2084C74.2063 54.9008 74.1737 54.5847 74.1405 54.2594C73.958 51.6507 73.241 48.4897 71.8705 45.0438C70.4824 41.6091 68.2853 37.9051 65.031 34.5461C64.6215 34.1296 64.2071 33.7088 63.7878 33.2824C63.3444 32.8829 62.8699 32.506 62.4053 32.11C62.1712 31.9134 61.9358 31.7161 61.6989 31.5181C61.4641 31.3172 61.2272 31.1164 60.9627 30.9495C60.4472 30.5966 59.9267 30.2402 59.4013 29.8803C59.1361 29.7021 58.8752 29.5154 58.6051 29.3415C58.3229 29.1866 58.0394 29.031 57.7544 28.874C57.1851 28.5608 56.6095 28.2447 56.0296 27.9257C55.4406 27.6245 54.8112 27.3918 54.1953 27.1182C53.8855 26.9859 53.5737 26.853 53.2611 26.7193C53.1041 26.6543 52.95 26.5807 52.7887 26.5235L52.2987 26.3693C50.9855 25.9712 49.6716 25.4854 48.2658 25.2605C47.5693 25.1282 46.8741 24.9508 46.162 24.8525C45.4457 24.7796 44.7237 24.7061 43.996 24.6318C43.6318 24.6014 43.2684 24.5427 42.9006 24.5349C42.5329 24.5349 42.1631 24.5342 41.7925 24.5342C41.0514 24.5427 40.3033 24.5137 39.5537 24.5519C38.0609 24.7209 36.5313 24.7824 35.0286 25.1544C34.6503 25.2308 34.2713 25.3064 33.8908 25.3835C33.7013 25.4238 33.509 25.4564 33.3201 25.5023L32.7608 25.6735C32.014 25.9019 31.263 26.131 30.5078 26.3622C29.7653 26.6281 29.0412 26.9598 28.3001 27.2575C27.9352 27.4187 27.5526 27.5453 27.199 27.7362L26.1334 28.3048C24.6745 29.007 23.3458 29.9616 21.9689 30.8661C21.3283 31.3844 20.6855 31.9056 20.0391 32.4289L19.554 32.8221C19.4006 32.9628 19.2549 33.1127 19.105 33.2577L18.2083 34.1374L17.3081 35.0206L16.4899 35.988L15.6718 36.9624L15.2609 37.4511C15.1343 37.6222 15.0184 37.8011 14.896 37.9758C14.413 38.6794 13.9279 39.3858 13.4414 40.0951C13.0263 40.8482 12.6091 41.6042 12.1905 42.3629C10.6298 45.4574 9.52661 48.8299 8.93755 52.3437C8.44113 55.8731 8.47578 59.4223 9.03231 62.8442C9.20273 63.6942 9.37316 64.5406 9.54217 65.3843C9.7932 66.2074 10.0428 67.027 10.2917 67.8438L10.4813 68.4547L10.7259 69.0445L11.2132 70.2198L11.7018 71.3887L12.2944 72.5025L12.8842 73.6113L13.1805 74.1622L13.5248 74.6826C13.9838 75.3763 14.4406 76.0672 14.8953 76.7546C15.9355 78.0317 16.9156 79.3428 18.0959 80.4523L18.9416 81.315C19.221 81.6042 19.5477 81.8397 19.8475 82.1035C20.4641 82.6105 21.0553 83.1451 21.6833 83.6224C22.3345 84.0701 22.9816 84.5149 23.6251 84.9575L24.1067 85.2892C24.2728 85.3903 24.4461 85.4794 24.6151 85.5742C24.9545 85.7616 25.2933 85.949 25.6313 86.135C26.9522 86.9418 28.392 87.4616 29.7653 88.0718C30.4689 88.3342 31.1909 88.5315 31.8952 88.7627C32.2488 88.8745 32.6017 88.9855 32.9524 89.0958C33.306 89.199 33.6702 89.2528 34.0266 89.3327C34.7429 89.4812 35.4536 89.6283 36.1587 89.774C36.8679 89.8942 37.5843 89.9345 38.2886 90.0179C39.6965 90.2265 41.096 90.1579 42.4686 90.1742L42.982 90.1756C43.1524 90.1685 43.3221 90.1452 43.4911 90.1304C43.8298 90.0971 44.1672 90.0639 44.5023 90.0314C45.172 89.955 45.8424 89.9232 46.4951 89.8128C47.145 89.6834 47.7885 89.5547 48.4256 89.4274C48.7445 89.3638 49.0614 89.3009 49.3774 89.2379C49.6858 89.146 49.9927 89.0541 50.2975 88.9628C50.9077 88.7776 51.5109 88.5944 52.1085 88.4127C52.4111 88.3335 52.6975 88.2119 52.9818 88.0916C53.2675 87.9735 53.5511 87.8562 53.8339 87.7395C54.3968 87.5019 54.9625 87.2855 55.5056 87.0373C56.0339 86.7572 56.5557 86.48 57.0713 86.2064C61.1855 83.9824 64.3959 81.1113 66.7529 78.2544C67.0499 77.898 67.3511 77.5544 67.6312 77.205C67.8857 76.8366 68.1354 76.4745 68.3807 76.1189C68.6261 75.7639 68.8666 75.4152 69.102 75.0744C69.2173 74.9018 69.3425 74.7385 69.4457 74.5638C69.544 74.3863 69.6416 74.2102 69.7385 74.0363C70.1246 73.3404 70.4937 72.675 70.8466 72.04C71.1811 71.3965 71.4208 70.7459 71.6909 70.1505C71.821 69.8507 71.9469 69.5586 72.0692 69.275C72.1979 68.9943 72.3104 68.7164 72.3882 68.4364C72.5643 67.8841 72.729 67.3671 72.8825 66.887C73.031 66.4054 73.1887 65.967 73.2962 65.5561C73.3845 65.1403 73.4652 64.7634 73.5366 64.4261C73.6808 63.7578 73.7919 63.2459 73.8682 62.8923C73.9453 62.5479 73.9927 62.3725 73.9927 62.3725C73.9927 62.3725 73.9665 62.5514 73.9001 62.8993C73.8301 63.2543 73.7296 63.7684 73.5981 64.4409C73.5302 64.7804 73.4546 65.1594 73.3711 65.5766C73.2686 65.9896 73.1144 66.4309 72.9709 66.9153C72.8217 67.3983 72.6604 67.918 72.4886 68.4738C72.4129 68.756 72.3026 69.0346 72.1753 69.3175C72.0544 69.6024 71.9299 69.8966 71.8019 70.1986C71.5353 70.7975 71.2977 71.4524 70.9668 72.1008C70.6168 72.7408 70.2497 73.4112 69.8658 74.1119C69.7696 74.2873 69.6727 74.4641 69.5744 74.643C69.4719 74.8191 69.3467 74.9839 69.2322 75.1578C68.9967 75.5022 68.7569 75.853 68.5123 76.2115C68.2676 76.5693 68.018 76.9342 67.7641 77.3062C67.4848 77.659 67.1835 78.0055 66.8865 78.3648C64.5296 81.2471 61.3113 84.1471 57.1766 86.398C56.6583 86.6752 56.1336 86.9552 55.6025 87.2388C55.0566 87.4898 54.488 87.7098 53.9216 87.9509C53.6373 88.069 53.3516 88.1878 53.0645 88.3073C52.7781 88.4289 52.4903 88.552 52.1855 88.6326C51.5845 88.8172 50.977 89.0032 50.3632 89.1913C50.0556 89.2832 49.7487 89.3836 49.4368 89.4706C49.1193 89.5349 48.7997 89.5993 48.4787 89.6643C47.8366 89.7938 47.1888 89.9246 46.5347 90.0561C45.8778 90.1685 45.2024 90.2025 44.5278 90.281C44.1898 90.3149 43.8496 90.3489 43.5088 90.3828C43.3384 90.3977 43.1672 90.4217 42.9954 90.4295H42.4778C41.0953 90.4168 39.6838 90.4875 38.2653 90.2803C37.5553 90.1975 36.8333 90.1579 36.1183 90.0377C35.407 89.892 34.6906 89.7442 33.9686 89.5965C33.6094 89.5158 33.2417 89.4621 32.8853 89.3589C32.531 89.2478 32.1753 89.1368 31.8189 89.0251C31.1082 88.7931 30.3798 88.5944 29.6698 88.3314C28.2838 87.7183 26.8313 87.1957 25.4976 86.3839C25.1568 86.1965 24.8152 86.0084 24.4716 85.8196C24.3011 85.7234 24.1265 85.6343 23.9589 85.5325L23.4724 85.1987C22.8232 84.7532 22.1698 84.3048 21.5121 83.8537C20.8778 83.3728 20.281 82.8347 19.6587 82.3234C19.356 82.0575 19.0265 81.8199 18.7443 81.5286L17.8901 80.6588C16.6985 79.5408 15.7085 78.2198 14.6577 76.9307C14.1988 76.2376 13.737 75.5411 13.2731 74.8417L12.9252 74.3163L12.6253 73.7605L12.0292 72.6418L11.431 71.5181L10.9367 70.3386L10.4445 69.1527L10.1977 68.5573L10.0061 67.9413C9.75431 67.1175 9.50186 66.2901 9.2487 65.4592C9.07757 64.6078 8.90502 63.7536 8.73248 62.8958C8.17029 59.4421 8.13423 55.8589 8.6356 52.2977C9.2296 48.7521 10.3441 45.3478 11.9203 42.2243C12.3432 41.4585 12.7647 40.6962 13.184 39.936C13.6755 39.2204 14.1655 38.5076 14.6528 37.7983C14.7758 37.6215 14.8932 37.4412 15.0212 37.2686L15.4356 36.7757L16.2615 35.7928L17.0882 34.8176L17.9969 33.9259L18.902 33.0384C19.0534 32.8921 19.2004 32.7407 19.3553 32.5993L19.8454 32.2033C20.4981 31.6758 21.1472 31.1504 21.7936 30.6278C23.1831 29.7155 24.5246 28.7545 25.9976 28.0467L27.0739 27.4746C27.4303 27.2822 27.8164 27.1542 28.1848 26.9923C28.9323 26.6925 29.6635 26.3587 30.413 26.0914C31.1754 25.8594 31.9334 25.6282 32.6865 25.3991L33.2508 25.2272C33.4411 25.1806 33.6348 25.148 33.8265 25.1077C34.2105 25.0307 34.593 24.9543 34.9742 24.8779C36.4896 24.5052 38.0326 24.4437 39.5381 24.2768C40.2941 24.2394 41.0486 24.2691 41.7961 24.262C42.1702 24.2627 42.5421 24.2634 42.9134 24.2648C43.2839 24.2733 43.6509 24.3327 44.0179 24.3645C44.7513 24.4402 45.4789 24.5159 46.2009 24.5908C46.9194 24.6912 47.6195 24.8708 48.321 25.0059C49.7367 25.2357 51.0605 25.7272 52.3828 26.1317L52.8764 26.2873C53.0384 26.3453 53.1932 26.4202 53.3516 26.486C53.6663 26.621 53.9803 26.7561 54.2929 26.8898C54.913 27.167 55.5459 27.4031 56.1392 27.7079C56.7233 28.0311 57.3018 28.3507 57.8746 28.6675C58.161 28.8259 58.4467 28.9836 58.7302 29.1406C59.0025 29.3167 59.2641 29.5055 59.53 29.6858C60.059 30.05 60.5823 30.41 61.0999 30.7671C61.3665 30.9361 61.6041 31.139 61.8403 31.342C62.0786 31.5421 62.3148 31.7415 62.5503 31.9402C63.0177 32.3405 63.4936 32.7209 63.9391 33.1247C64.3599 33.5547 64.7757 33.9804 65.1872 34.4004C68.4529 37.7912 70.6493 41.5257 72.0296 44.9837C73.3923 48.4529 74.0945 51.6323 74.26 54.2523C74.2911 54.579 74.3215 54.8965 74.3512 55.2048C74.3873 55.5131 74.4085 55.8123 74.3965 56.1036C74.3929 56.6856 74.3901 57.2294 74.3873 57.735C74.3788 58.2399 74.3922 58.7074 74.3661 59.1324C74.3201 59.5552 74.2777 59.9399 74.2402 60.2836C74.1638 60.9646 74.1051 61.485 74.0641 61.845C74.021 62.1936 73.9927 62.3725 73.9927 62.3725Z" fill="#263238"/>
<path d="M36.4839 68.6371C35.7782 68.6371 35.1333 68.2157 34.8554 67.5552L29.3643 54.5174H23.7418V50.9817H30.5382C31.2496 50.9817 31.8917 51.4081 32.1675 52.0636L35.9119 60.9553L38.6613 47.7747C38.8324 46.9551 39.5544 46.3675 40.3917 46.3675H57.1094V49.9033H41.8293L38.2151 67.2299C38.0574 67.9872 37.4252 68.5544 36.6544 68.6286C36.5978 68.6343 36.5405 68.6371 36.4839 68.6371Z" fill="#2563EB"/>
<path d="M51.4638 56.2018L43.034 64.6339L45.5345 67.1337L53.9643 58.7015L51.4638 56.2018Z" fill="#2563EB"/>
<path d="M45.5345 56.1984L43.0344 58.6985L51.4653 67.1294L53.9655 64.6293L45.5345 56.1984Z" fill="#2563EB"/>
</svg>
